<?xml version="1.0" encoding="UTF-8"?>
<svg xmlns="http://www.w3.org/2000/svg" xmlns:xlink="http://www.w3.org/1999/xlink" width="308.538pt" height="423.717pt" viewBox="0 0 308.538 423.717" version="1.1">
<defs>
<g>
<symbol overflow="visible" id="glyph0-0">
<path style="stroke:none;" d=""/>
</symbol>
<symbol overflow="visible" id="glyph0-1">
<path style="stroke:none;" d="M 3.890625 -3.734375 C 3.625 -3.71875 3.421875 -3.5 3.421875 -3.28125 C 3.421875 -3.140625 3.515625 -2.984375 3.734375 -2.984375 C 3.953125 -2.984375 4.1875 -3.15625 4.1875 -3.546875 C 4.1875 -4 3.765625 -4.40625 3 -4.40625 C 1.6875 -4.40625 1.3125 -3.390625 1.3125 -2.953125 C 1.3125 -2.171875 2.046875 -2.03125 2.34375 -1.96875 C 2.859375 -1.859375 3.375 -1.75 3.375 -1.203125 C 3.375 -0.953125 3.15625 -0.109375 1.953125 -0.109375 C 1.8125 -0.109375 1.046875 -0.109375 0.8125 -0.640625 C 1.203125 -0.59375 1.453125 -0.890625 1.453125 -1.171875 C 1.453125 -1.390625 1.28125 -1.515625 1.078125 -1.515625 C 0.8125 -1.515625 0.515625 -1.3125 0.515625 -0.859375 C 0.515625 -0.296875 1.09375 0.109375 1.9375 0.109375 C 3.5625 0.109375 3.953125 -1.09375 3.953125 -1.546875 C 3.953125 -1.90625 3.765625 -2.15625 3.640625 -2.265625 C 3.375 -2.546875 3.078125 -2.609375 2.640625 -2.6875 C 2.28125 -2.765625 1.890625 -2.84375 1.890625 -3.296875 C 1.890625 -3.578125 2.125 -4.1875 3 -4.1875 C 3.25 -4.1875 3.75 -4.109375 3.890625 -3.734375 Z M 3.890625 -3.734375 "/>
</symbol>
<symbol overflow="visible" id="glyph0-2">
<path style="stroke:none;" d="M 1.859375 -2.296875 C 2.15625 -2.296875 2.890625 -2.328125 3.390625 -2.53125 C 4.09375 -2.828125 4.140625 -3.421875 4.140625 -3.5625 C 4.140625 -4 3.765625 -4.40625 3.078125 -4.40625 C 1.96875 -4.40625 0.453125 -3.4375 0.453125 -1.6875 C 0.453125 -0.671875 1.046875 0.109375 2.03125 0.109375 C 3.453125 0.109375 4.28125 -0.953125 4.28125 -1.0625 C 4.28125 -1.125 4.234375 -1.203125 4.171875 -1.203125 C 4.109375 -1.203125 4.09375 -1.171875 4.03125 -1.09375 C 3.25 -0.109375 2.15625 -0.109375 2.046875 -0.109375 C 1.265625 -0.109375 1.171875 -0.953125 1.171875 -1.265625 C 1.171875 -1.390625 1.1875 -1.6875 1.328125 -2.296875 Z M 1.390625 -2.515625 C 1.78125 -4.03125 2.8125 -4.1875 3.078125 -4.1875 C 3.53125 -4.1875 3.8125 -3.890625 3.8125 -3.5625 C 3.8125 -2.515625 2.21875 -2.515625 1.796875 -2.515625 Z M 1.390625 -2.515625 "/>
</symbol>
<symbol overflow="visible" id="glyph0-3">
<path style="stroke:none;" d="M 4.5 -4.296875 C 4.5 -4.34375 4.46875 -4.390625 4.40625 -4.390625 C 4.296875 -4.390625 3.890625 -4 3.734375 -3.703125 C 3.515625 -4.25 3.125 -4.40625 2.796875 -4.40625 C 1.625 -4.40625 0.40625 -2.9375 0.40625 -1.484375 C 0.40625 -0.515625 0.984375 0.109375 1.71875 0.109375 C 2.140625 0.109375 2.53125 -0.125 2.890625 -0.484375 C 2.796875 -0.140625 2.46875 1.203125 2.4375 1.296875 C 2.359375 1.578125 2.28125 1.609375 1.71875 1.625 C 1.59375 1.625 1.5 1.625 1.5 1.828125 C 1.5 1.828125 1.5 1.9375 1.625 1.9375 C 1.9375 1.9375 2.296875 1.90625 2.625 1.90625 C 2.953125 1.90625 3.3125 1.9375 3.65625 1.9375 C 3.703125 1.9375 3.828125 1.9375 3.828125 1.734375 C 3.828125 1.625 3.734375 1.625 3.5625 1.625 C 3.09375 1.625 3.09375 1.5625 3.09375 1.46875 C 3.09375 1.390625 3.109375 1.328125 3.125 1.25 Z M 1.75 -0.109375 C 1.140625 -0.109375 1.109375 -0.875 1.109375 -1.046875 C 1.109375 -1.53125 1.390625 -2.609375 1.5625 -3.03125 C 1.875 -3.765625 2.390625 -4.1875 2.796875 -4.1875 C 3.453125 -4.1875 3.59375 -3.375 3.59375 -3.3125 C 3.59375 -3.25 3.046875 -1.0625 3.015625 -1.03125 C 2.859375 -0.75 2.296875 -0.109375 1.75 -0.109375 Z M 1.75 -0.109375 "/>
</symbol>
<symbol overflow="visible" id="glyph0-4">
<path style="stroke:none;" d="M 4.6875 -3.765625 C 4.703125 -3.8125 4.71875 -3.875 4.71875 -3.9375 C 4.71875 -4.109375 4.609375 -4.203125 4.4375 -4.203125 C 4.34375 -4.203125 4.0625 -4.140625 4.03125 -3.78125 C 3.84375 -4.140625 3.5 -4.40625 3.09375 -4.40625 C 1.96875 -4.40625 0.734375 -3.015625 0.734375 -1.578125 C 0.734375 -0.59375 1.328125 0 2.046875 0 C 2.640625 0 3.109375 -0.46875 3.203125 -0.578125 L 3.21875 -0.5625 C 3.015625 0.3125 2.890625 0.734375 2.890625 0.75 C 2.84375 0.84375 2.515625 1.828125 1.453125 1.828125 C 1.265625 1.828125 0.9375 1.8125 0.65625 1.71875 C 0.953125 1.640625 1.0625 1.375 1.0625 1.203125 C 1.0625 1.046875 0.953125 0.859375 0.6875 0.859375 C 0.46875 0.859375 0.15625 1.03125 0.15625 1.4375 C 0.15625 1.84375 0.515625 2.046875 1.46875 2.046875 C 2.71875 2.046875 3.4375 1.265625 3.59375 0.671875 Z M 3.40625 -1.28125 C 3.34375 -1.015625 3.109375 -0.765625 2.890625 -0.578125 C 2.6875 -0.40625 2.375 -0.21875 2.078125 -0.21875 C 1.578125 -0.21875 1.4375 -0.734375 1.4375 -1.140625 C 1.4375 -1.609375 1.71875 -2.796875 2 -3.296875 C 2.265625 -3.78125 2.6875 -4.1875 3.109375 -4.1875 C 3.765625 -4.1875 3.90625 -3.375 3.90625 -3.328125 C 3.90625 -3.28125 3.890625 -3.21875 3.875 -3.1875 Z M 3.40625 -1.28125 "/>
</symbol>
<symbol overflow="visible" id="glyph0-5">
<path style="stroke:none;" d="M 2.046875 -3.984375 L 2.984375 -3.984375 C 3.1875 -3.984375 3.296875 -3.984375 3.296875 -4.1875 C 3.296875 -4.296875 3.1875 -4.296875 3.015625 -4.296875 L 2.140625 -4.296875 C 2.5 -5.71875 2.546875 -5.90625 2.546875 -5.96875 C 2.546875 -6.140625 2.421875 -6.234375 2.25 -6.234375 C 2.21875 -6.234375 1.9375 -6.234375 1.859375 -5.875 L 1.46875 -4.296875 L 0.53125 -4.296875 C 0.328125 -4.296875 0.234375 -4.296875 0.234375 -4.109375 C 0.234375 -3.984375 0.3125 -3.984375 0.515625 -3.984375 L 1.390625 -3.984375 C 0.671875 -1.15625 0.625 -0.984375 0.625 -0.8125 C 0.625 -0.265625 1 0.109375 1.546875 0.109375 C 2.5625 0.109375 3.125 -1.34375 3.125 -1.421875 C 3.125 -1.53125 3.046875 -1.53125 3.015625 -1.53125 C 2.921875 -1.53125 2.90625 -1.5 2.859375 -1.390625 C 2.4375 -0.34375 1.90625 -0.109375 1.5625 -0.109375 C 1.359375 -0.109375 1.25 -0.234375 1.25 -0.5625 C 1.25 -0.8125 1.28125 -0.875 1.3125 -1.046875 Z M 2.046875 -3.984375 "/>
</symbol>
<symbol overflow="visible" id="glyph0-6">
<path style="stroke:none;" d="M 2.578125 -6.8125 C 2.578125 -6.8125 2.578125 -6.921875 2.4375 -6.921875 C 2.21875 -6.921875 1.484375 -6.84375 1.21875 -6.8125 C 1.140625 -6.8125 1.03125 -6.796875 1.03125 -6.609375 C 1.03125 -6.5 1.140625 -6.5 1.28125 -6.5 C 1.765625 -6.5 1.78125 -6.40625 1.78125 -6.328125 L 1.75 -6.125 L 0.484375 -1.140625 C 0.453125 -1.03125 0.4375 -0.96875 0.4375 -0.8125 C 0.4375 -0.234375 0.875 0.109375 1.34375 0.109375 C 1.671875 0.109375 1.921875 -0.09375 2.09375 -0.453125 C 2.265625 -0.828125 2.390625 -1.40625 2.390625 -1.421875 C 2.390625 -1.53125 2.296875 -1.53125 2.265625 -1.53125 C 2.171875 -1.53125 2.15625 -1.484375 2.140625 -1.34375 C 1.96875 -0.703125 1.78125 -0.109375 1.375 -0.109375 C 1.078125 -0.109375 1.078125 -0.421875 1.078125 -0.5625 C 1.078125 -0.8125 1.09375 -0.859375 1.140625 -1.046875 Z M 2.578125 -6.8125 "/>
</symbol>
<symbol overflow="visible" id="glyph0-7">
<path style="stroke:none;" d="M 1.78125 -1.140625 C 1.390625 -0.484375 1 -0.34375 0.5625 -0.3125 C 0.4375 -0.296875 0.34375 -0.296875 0.34375 -0.109375 C 0.34375 -0.046875 0.40625 0 0.484375 0 C 0.75 0 1.0625 -0.03125 1.328125 -0.03125 C 1.671875 -0.03125 2.015625 0 2.328125 0 C 2.390625 0 2.515625 0 2.515625 -0.1875 C 2.515625 -0.296875 2.4375 -0.3125 2.359375 -0.3125 C 2.140625 -0.328125 1.890625 -0.40625 1.890625 -0.65625 C 1.890625 -0.78125 1.953125 -0.890625 2.03125 -1.03125 L 2.796875 -2.296875 L 5.296875 -2.296875 C 5.3125 -2.09375 5.453125 -0.734375 5.453125 -0.640625 C 5.453125 -0.34375 4.9375 -0.3125 4.734375 -0.3125 C 4.59375 -0.3125 4.5 -0.3125 4.5 -0.109375 C 4.5 0 4.609375 0 4.640625 0 C 5.046875 0 5.46875 -0.03125 5.875 -0.03125 C 6.125 -0.03125 6.765625 0 7.015625 0 C 7.0625 0 7.1875 0 7.1875 -0.203125 C 7.1875 -0.3125 7.09375 -0.3125 6.953125 -0.3125 C 6.34375 -0.3125 6.34375 -0.375 6.3125 -0.671875 L 5.703125 -6.890625 C 5.6875 -7.09375 5.6875 -7.140625 5.515625 -7.140625 C 5.359375 -7.140625 5.3125 -7.0625 5.25 -6.96875 Z M 2.984375 -2.609375 L 4.9375 -5.90625 L 5.265625 -2.609375 Z M 2.984375 -2.609375 "/>
</symbol>
<symbol overflow="visible" id="glyph0-8">
<path style="stroke:none;" d="M 1.40625 -2.265625 C 1.734375 -2.125 2.03125 -2.125 2.265625 -2.125 C 2.515625 -2.125 3.078125 -2.125 3.078125 -2.4375 C 3.078125 -2.671875 2.71875 -2.703125 2.34375 -2.703125 C 2.140625 -2.703125 1.78125 -2.6875 1.421875 -2.515625 C 1.1875 -2.625 1.015625 -2.828125 1.015625 -3.09375 C 1.015625 -3.703125 2 -4.0625 2.890625 -4.0625 C 3.046875 -4.0625 3.40625 -4.0625 3.8125 -3.78125 C 3.921875 -3.703125 3.9375 -3.671875 4 -3.671875 C 4.140625 -3.671875 4.28125 -3.8125 4.28125 -3.953125 C 4.28125 -4.140625 3.671875 -4.515625 2.984375 -4.515625 C 1.84375 -4.515625 0.765625 -3.84375 0.765625 -3.09375 C 0.765625 -2.65625 1.125 -2.40625 1.171875 -2.375 C 0.578125 -2.046875 0.265625 -1.5 0.265625 -1.03125 C 0.265625 -0.390625 0.828125 0.21875 1.890625 0.21875 C 3.203125 0.21875 3.765625 -0.65625 3.765625 -0.8125 C 3.765625 -0.875 3.703125 -0.90625 3.65625 -0.90625 C 3.59375 -0.90625 3.5625 -0.875 3.546875 -0.84375 C 3.40625 -0.609375 3.171875 -0.234375 1.96875 -0.234375 C 1.359375 -0.234375 0.515625 -0.390625 0.515625 -1.09375 C 0.515625 -1.4375 0.796875 -1.96875 1.40625 -2.265625 Z M 1.734375 -2.390625 C 1.96875 -2.46875 2.171875 -2.484375 2.34375 -2.484375 C 2.59375 -2.484375 2.625 -2.46875 2.8125 -2.421875 C 2.65625 -2.359375 2.640625 -2.34375 2.265625 -2.34375 C 2.046875 -2.34375 1.921875 -2.34375 1.734375 -2.390625 Z M 1.734375 -2.390625 "/>
</symbol>
<symbol overflow="visible" id="glyph0-9">
<path style="stroke:none;" d="M 7.0625 -2.328125 C 7.078125 -2.375 7.109375 -2.4375 7.109375 -2.46875 C 7.109375 -2.46875 7.109375 -2.578125 6.984375 -2.578125 C 6.890625 -2.578125 6.875 -2.515625 6.859375 -2.453125 C 6.203125 -0.984375 5.84375 -0.3125 4.140625 -0.3125 L 2.6875 -0.3125 C 2.546875 -0.3125 2.515625 -0.3125 2.46875 -0.3125 C 2.359375 -0.328125 2.328125 -0.34375 2.328125 -0.421875 C 2.328125 -0.453125 2.328125 -0.46875 2.375 -0.640625 L 3.0625 -3.375 L 4.046875 -3.375 C 4.890625 -3.375 4.890625 -3.15625 4.890625 -2.90625 C 4.890625 -2.84375 4.890625 -2.71875 4.828125 -2.421875 C 4.8125 -2.375 4.796875 -2.34375 4.796875 -2.3125 C 4.796875 -2.265625 4.828125 -2.203125 4.921875 -2.203125 C 5 -2.203125 5.03125 -2.25 5.078125 -2.40625 L 5.640625 -4.734375 C 5.640625 -4.796875 5.59375 -4.84375 5.515625 -4.84375 C 5.4375 -4.84375 5.40625 -4.78125 5.390625 -4.671875 C 5.171875 -3.90625 5 -3.671875 4.078125 -3.671875 L 3.140625 -3.671875 L 3.734375 -6.078125 C 3.828125 -6.4375 3.84375 -6.46875 4.28125 -6.46875 L 5.6875 -6.46875 C 6.890625 -6.46875 7.203125 -6.1875 7.203125 -5.359375 C 7.203125 -5.125 7.203125 -5.109375 7.15625 -4.828125 C 7.15625 -4.78125 7.140625 -4.703125 7.140625 -4.65625 C 7.140625 -4.609375 7.171875 -4.53125 7.265625 -4.53125 C 7.375 -4.53125 7.390625 -4.59375 7.40625 -4.78125 L 7.609375 -6.515625 C 7.640625 -6.78125 7.59375 -6.78125 7.34375 -6.78125 L 2.296875 -6.78125 C 2.109375 -6.78125 2 -6.78125 2 -6.578125 C 2 -6.46875 2.09375 -6.46875 2.28125 -6.46875 C 2.65625 -6.46875 2.9375 -6.46875 2.9375 -6.296875 C 2.9375 -6.25 2.9375 -6.234375 2.875 -6.046875 L 1.5625 -0.78125 C 1.46875 -0.390625 1.453125 -0.3125 0.65625 -0.3125 C 0.484375 -0.3125 0.375 -0.3125 0.375 -0.125 C 0.375 0 0.46875 0 0.65625 0 L 5.828125 0 C 6.0625 0 6.078125 -0.015625 6.140625 -0.171875 Z M 7.0625 -2.328125 "/>
</symbol>
<symbol overflow="visible" id="glyph0-10">
<path style="stroke:none;" d="M 1.59375 -0.78125 C 1.5 -0.390625 1.46875 -0.3125 0.6875 -0.3125 C 0.515625 -0.3125 0.421875 -0.3125 0.421875 -0.109375 C 0.421875 0 0.515625 0 0.6875 0 L 4.25 0 C 5.828125 0 7 -1.171875 7 -2.15625 C 7 -2.875 6.421875 -3.453125 5.453125 -3.5625 C 6.484375 -3.75 7.53125 -4.484375 7.53125 -5.4375 C 7.53125 -6.171875 6.875 -6.8125 5.6875 -6.8125 L 2.328125 -6.8125 C 2.140625 -6.8125 2.046875 -6.8125 2.046875 -6.609375 C 2.046875 -6.5 2.140625 -6.5 2.328125 -6.5 C 2.34375 -6.5 2.53125 -6.5 2.703125 -6.484375 C 2.875 -6.453125 2.96875 -6.453125 2.96875 -6.3125 C 2.96875 -6.28125 2.953125 -6.25 2.9375 -6.125 Z M 3.09375 -3.65625 L 3.71875 -6.125 C 3.8125 -6.46875 3.828125 -6.5 4.25 -6.5 L 5.546875 -6.5 C 6.421875 -6.5 6.625 -5.90625 6.625 -5.46875 C 6.625 -4.59375 5.765625 -3.65625 4.5625 -3.65625 Z M 2.65625 -0.3125 C 2.515625 -0.3125 2.5 -0.3125 2.4375 -0.3125 C 2.328125 -0.328125 2.296875 -0.34375 2.296875 -0.421875 C 2.296875 -0.453125 2.296875 -0.46875 2.359375 -0.640625 L 3.046875 -3.421875 L 4.921875 -3.421875 C 5.875 -3.421875 6.078125 -2.6875 6.078125 -2.265625 C 6.078125 -1.28125 5.1875 -0.3125 4 -0.3125 Z M 2.65625 -0.3125 "/>
</symbol>
<symbol overflow="visible" id="glyph0-11">
<path style="stroke:none;" d="M 5.953125 -5.671875 L 6.09375 -5.8125 C 6.390625 -6.109375 6.71875 -6.453125 7.390625 -6.5 C 7.5 -6.515625 7.59375 -6.515625 7.59375 -6.6875 C 7.59375 -6.765625 7.546875 -6.8125 7.46875 -6.8125 C 7.203125 -6.8125 6.921875 -6.78125 6.65625 -6.78125 C 6.3125 -6.78125 5.96875 -6.8125 5.65625 -6.8125 C 5.59375 -6.8125 5.46875 -6.8125 5.46875 -6.625 C 5.46875 -6.515625 5.5625 -6.5 5.609375 -6.5 C 5.6875 -6.5 5.96875 -6.484375 5.96875 -6.265625 C 5.96875 -6.09375 5.734375 -5.84375 5.703125 -5.796875 L 3.390625 -3.125 L 2.296875 -6.09375 C 2.234375 -6.234375 2.234375 -6.25 2.234375 -6.265625 C 2.234375 -6.5 2.71875 -6.5 2.828125 -6.5 C 2.953125 -6.5 3.0625 -6.5 3.0625 -6.703125 C 3.0625 -6.8125 2.9375 -6.8125 2.90625 -6.8125 C 2.625 -6.8125 1.9375 -6.78125 1.65625 -6.78125 C 1.40625 -6.78125 0.78125 -6.8125 0.53125 -6.8125 C 0.484375 -6.8125 0.34375 -6.8125 0.34375 -6.609375 C 0.34375 -6.5 0.453125 -6.5 0.578125 -6.5 C 1.171875 -6.5 1.21875 -6.40625 1.3125 -6.15625 L 2.53125 -2.875 C 2.546875 -2.84375 2.578125 -2.734375 2.578125 -2.71875 C 2.578125 -2.6875 2.171875 -1.078125 2.125 -0.890625 C 2 -0.34375 1.984375 -0.3125 1.1875 -0.3125 C 1 -0.3125 0.921875 -0.3125 0.921875 -0.109375 C 0.921875 0 1.03125 0 1.0625 0 C 1.328125 0 2.03125 -0.03125 2.3125 -0.03125 C 2.59375 -0.03125 3.3125 0 3.59375 0 C 3.65625 0 3.78125 0 3.78125 -0.203125 C 3.78125 -0.3125 3.6875 -0.3125 3.5 -0.3125 C 3.484375 -0.3125 3.296875 -0.3125 3.125 -0.328125 C 2.90625 -0.34375 2.84375 -0.375 2.84375 -0.484375 C 2.84375 -0.5625 2.9375 -0.90625 2.984375 -1.109375 L 3.34375 -2.515625 C 3.390625 -2.71875 3.40625 -2.734375 3.484375 -2.828125 Z M 5.953125 -5.671875 "/>
</symbol>
<symbol overflow="visible" id="glyph0-12">
<path style="stroke:none;" d="M 7.171875 -6.5625 C 7.1875 -6.609375 7.203125 -6.65625 7.203125 -6.71875 C 7.203125 -6.8125 7.15625 -6.8125 6.953125 -6.8125 L 2.75 -6.8125 C 2.515625 -6.8125 2.5 -6.796875 2.4375 -6.609375 L 1.890625 -4.8125 C 1.875 -4.765625 1.859375 -4.6875 1.859375 -4.671875 C 1.859375 -4.671875 1.859375 -4.5625 1.984375 -4.5625 C 2.078125 -4.5625 2.09375 -4.640625 2.109375 -4.671875 C 2.5 -5.84375 3.015625 -6.5 4.5625 -6.5 L 6.1875 -6.5 L 0.625 -0.265625 C 0.625 -0.265625 0.578125 -0.125 0.578125 -0.09375 C 0.578125 0 0.640625 0 0.828125 0 L 5.15625 0 C 5.40625 0 5.40625 -0.015625 5.46875 -0.203125 L 6.1875 -2.40625 C 6.1875 -2.4375 6.21875 -2.515625 6.21875 -2.546875 C 6.21875 -2.609375 6.1875 -2.65625 6.09375 -2.65625 C 6 -2.65625 5.984375 -2.625 5.921875 -2.40625 C 5.484375 -1.0625 5 -0.34375 3.3125 -0.34375 L 1.609375 -0.34375 Z M 7.171875 -6.5625 "/>
</symbol>
<symbol overflow="visible" id="glyph1-0">
<path style="stroke:none;" d=""/>
</symbol>
<symbol overflow="visible" id="glyph1-1">
<path style="stroke:none;" d="M -0.796875 -5.515625 C -1.515625 -5.875 -2.25 -6.1875 -3.0625 -6.21875 C -4.125 -6.25 -4.640625 -5.5625 -4.8125 -5.203125 C -5.09375 -4.65625 -5.171875 -3.90625 -4.546875 -3.109375 C -4.0625 -2.53125 -3.390625 -2.125 -2.671875 -1.765625 C -2 -1.4375 -1.203125 -1.0625 -0.328125 -1.09375 C 0.578125 -1.125 1.09375 -1.6875 1.3125 -2.125 C 1.546875 -2.609375 1.703125 -3.375 1.046875 -4.1875 C 0.578125 -4.78125 -0.109375 -5.171875 -0.796875 -5.515625 Z M 1.109375 -2.21875 C 0.9375 -1.875 0.453125 -1.453125 -0.484375 -1.71875 C -1.0625 -1.890625 -1.890625 -2.3125 -2.421875 -2.578125 C -2.984375 -2.859375 -3.578125 -3.15625 -4.015625 -3.453125 C -4.984375 -4.15625 -4.734375 -4.875 -4.625 -5.09375 C -4.46875 -5.390625 -4.03125 -5.90625 -3.046875 -5.609375 C -2.5 -5.453125 -1.828125 -5.125 -1.28125 -4.84375 C -0.609375 -4.5 0 -4.203125 0.515625 -3.828125 C 1.296875 -3.265625 1.3125 -2.625 1.109375 -2.21875 Z M 1.109375 -2.21875 "/>
</symbol>
<symbol overflow="visible" id="glyph1-2">
<path style="stroke:none;" d="M -2.5 -3.390625 C -2.765625 -3.515625 -3.09375 -3.421875 -3.21875 -3.171875 C -3.359375 -2.90625 -3.234375 -2.578125 -2.96875 -2.453125 C -2.71875 -2.328125 -2.40625 -2.4375 -2.265625 -2.703125 C -2.140625 -2.953125 -2.25 -3.265625 -2.5 -3.390625 Z M 0.390625 -1.9375 C 0.140625 -2.0625 -0.203125 -1.96875 -0.328125 -1.71875 C -0.46875 -1.453125 -0.328125 -1.125 -0.078125 -1 C 0.1875 -0.875 0.484375 -0.984375 0.625 -1.25 C 0.75 -1.5 0.65625 -1.8125 0.390625 -1.9375 Z M 0.390625 -1.9375 "/>
</symbol>
<symbol overflow="visible" id="glyph1-3">
<path style="stroke:none;" d="M -4.390625 -5.484375 C -4.609375 -5.59375 -4.625 -5.59375 -4.734375 -5.390625 C -4.421875 -4.546875 -4.828125 -3.765625 -4.953125 -3.484375 L -4.671875 -3.34375 C -4.59375 -3.53125 -4.328125 -4.046875 -4.34375 -4.625 L 0.28125 -2.296875 C 0.609375 -2.140625 0.6875 -2.0625 0.28125 -1.265625 L 0.140625 -1 L 0.421875 -0.859375 C 0.546875 -1.171875 0.9375 -1.9375 1.109375 -2.3125 C 1.296875 -2.65625 1.6875 -3.4375 1.875 -3.734375 L 1.59375 -3.875 L 1.453125 -3.59375 C 1.046875 -2.78125 0.9375 -2.8125 0.609375 -2.96875 Z M -4.390625 -5.484375 "/>
</symbol>
<symbol overflow="visible" id="glyph2-0">
<path style="stroke:none;" d=""/>
</symbol>
<symbol overflow="visible" id="glyph2-1">
<path style="stroke:none;" d="M -1.40625 -2.265625 C -1.125 -2.5 -1 -2.765625 -0.890625 -2.984375 C -0.78125 -3.203125 -0.53125 -3.703125 -0.796875 -3.84375 C -1.015625 -3.953125 -1.203125 -3.640625 -1.375 -3.296875 C -1.46875 -3.109375 -1.609375 -2.796875 -1.609375 -2.390625 C -1.8125 -2.234375 -2.078125 -2.171875 -2.3125 -2.296875 C -2.859375 -2.5625 -2.734375 -3.59375 -2.328125 -4.390625 C -2.265625 -4.53125 -2.09375 -4.859375 -1.671875 -5.09375 C -1.5625 -5.15625 -1.515625 -5.15625 -1.484375 -5.21875 C -1.421875 -5.34375 -1.484375 -5.53125 -1.609375 -5.59375 C -1.78125 -5.6875 -2.390625 -5.296875 -2.6875 -4.6875 C -3.203125 -3.671875 -3.09375 -2.40625 -2.421875 -2.078125 C -2.03125 -1.875 -1.65625 -2.078125 -1.59375 -2.109375 C -1.5625 -1.4375 -1.21875 -0.90625 -0.796875 -0.703125 C -0.21875 -0.40625 0.578125 -0.640625 1.046875 -1.59375 C 1.640625 -2.765625 1.09375 -3.65625 0.96875 -3.71875 C 0.90625 -3.75 0.84375 -3.71875 0.828125 -3.671875 C 0.796875 -3.625 0.8125 -3.578125 0.84375 -3.546875 C 0.984375 -3.3125 1.21875 -2.953125 0.671875 -1.875 C 0.40625 -1.328125 -0.109375 -0.640625 -0.75 -0.953125 C -1.046875 -1.109375 -1.40625 -1.59375 -1.40625 -2.265625 Z M -1.359375 -2.625 C -1.328125 -2.875 -1.25 -3.046875 -1.171875 -3.203125 C -1.0625 -3.421875 -1.03125 -3.453125 -0.90625 -3.59375 C -0.921875 -3.4375 -0.90625 -3.40625 -1.078125 -3.078125 C -1.171875 -2.875 -1.234375 -2.765625 -1.359375 -2.625 Z M -1.359375 -2.625 "/>
</symbol>
<symbol overflow="visible" id="glyph2-2">
<path style="stroke:none;" d="M 1.078125 -7.359375 C 1.046875 -7.390625 1.015625 -7.453125 0.984375 -7.46875 C 0.984375 -7.46875 0.875 -7.515625 0.8125 -7.40625 C 0.765625 -7.3125 0.828125 -7.265625 0.890625 -7.234375 C 1.90625 -5.984375 2.328125 -5.359375 1.578125 -3.84375 L 0.921875 -2.546875 C 0.859375 -2.421875 0.84375 -2.390625 0.828125 -2.34375 C 0.765625 -2.25 0.734375 -2.234375 0.671875 -2.265625 C 0.640625 -2.28125 0.625 -2.28125 0.484375 -2.40625 L -1.640625 -4.25 L -1.203125 -5.140625 C -0.828125 -5.890625 -0.640625 -5.78125 -0.40625 -5.671875 C -0.359375 -5.640625 -0.25 -5.59375 -0.015625 -5.390625 C 0.03125 -5.359375 0.046875 -5.34375 0.078125 -5.328125 C 0.109375 -5.3125 0.1875 -5.296875 0.234375 -5.390625 C 0.265625 -5.453125 0.234375 -5.5 0.125 -5.625 L -1.703125 -7.171875 C -1.765625 -7.1875 -1.828125 -7.171875 -1.859375 -7.109375 C -1.890625 -7.03125 -1.859375 -6.96875 -1.765625 -6.90625 C -1.1875 -6.375 -1.046875 -6.109375 -1.453125 -5.28125 L -1.875 -4.453125 L -3.765625 -6.0625 C -4.03125 -6.296875 -4.0625 -6.328125 -3.859375 -6.71875 L -3.234375 -7.96875 C -2.703125 -9.046875 -2.3125 -9.203125 -1.578125 -8.84375 C -1.359375 -8.734375 -1.34375 -8.71875 -1.109375 -8.5625 C -1.078125 -8.546875 -1 -8.5 -0.953125 -8.46875 C -0.921875 -8.453125 -0.828125 -8.4375 -0.796875 -8.53125 C -0.75 -8.625 -0.796875 -8.671875 -0.96875 -8.765625 L -2.421875 -9.71875 C -2.640625 -9.859375 -2.65625 -9.828125 -2.78125 -9.59375 L -5.03125 -5.078125 C -5.125 -4.921875 -5.171875 -4.8125 -4.984375 -4.71875 C -4.890625 -4.671875 -4.84375 -4.765625 -4.765625 -4.9375 C -4.59375 -5.265625 -4.46875 -5.515625 -4.3125 -5.4375 C -4.28125 -5.421875 -4.265625 -5.421875 -4.125 -5.28125 L 0 -1.734375 C 0.3125 -1.484375 0.375 -1.4375 0.015625 -0.734375 C -0.0625 -0.578125 -0.109375 -0.46875 0.0625 -0.390625 C 0.171875 -0.328125 0.203125 -0.421875 0.296875 -0.59375 L 2.609375 -5.21875 C 2.71875 -5.421875 2.703125 -5.4375 2.59375 -5.5625 Z M 1.078125 -7.359375 "/>
</symbol>
<symbol overflow="visible" id="glyph2-3">
<path style="stroke:none;" d="M -0.21875 -2.109375 C 0.1875 -1.46875 0.140625 -1.046875 -0.03125 -0.640625 C -0.0625 -0.53125 -0.109375 -0.453125 0.0625 -0.359375 C 0.109375 -0.328125 0.1875 -0.359375 0.21875 -0.4375 C 0.328125 -0.671875 0.4375 -0.96875 0.5625 -1.203125 C 0.71875 -1.515625 0.90625 -1.796875 1.046875 -2.078125 C 1.078125 -2.140625 1.125 -2.25 0.953125 -2.328125 C 0.859375 -2.390625 0.8125 -2.3125 0.78125 -2.25 C 0.65625 -2.046875 0.484375 -1.875 0.25 -1.984375 C 0.140625 -2.03125 0.078125 -2.15625 -0.015625 -2.28125 L -0.796875 -3.53125 L 0.328125 -5.765625 C 0.5 -5.6875 1.78125 -5.203125 1.859375 -5.15625 C 2.125 -5.03125 1.921875 -4.5625 1.84375 -4.375 C 1.78125 -4.25 1.734375 -4.171875 1.921875 -4.078125 C 2.015625 -4.03125 2.0625 -4.125 2.078125 -4.15625 C 2.265625 -4.515625 2.421875 -4.90625 2.59375 -5.265625 C 2.71875 -5.5 3.03125 -6.046875 3.140625 -6.265625 C 3.15625 -6.3125 3.21875 -6.421875 3.03125 -6.515625 C 2.9375 -6.5625 2.890625 -6.484375 2.828125 -6.359375 C 2.5625 -5.8125 2.515625 -5.84375 2.234375 -5.9375 L -3.609375 -8.171875 C -3.796875 -8.25 -3.84375 -8.28125 -3.921875 -8.140625 C -3.984375 -8 -3.9375 -7.90625 -3.890625 -7.8125 Z M -0.984375 -3.84375 L -3.078125 -7.0625 L 0.03125 -5.875 Z M -0.984375 -3.84375 "/>
</symbol>
<symbol overflow="visible" id="glyph3-0">
<path style="stroke:none;" d=""/>
</symbol>
<symbol overflow="visible" id="glyph3-1">
<path style="stroke:none;" d="M 1.671875 -8.46875 C 1.8125 -7.78125 2.046875 -7.359375 2.140625 -7.234375 C 2.546875 -6.515625 3.0625 -6.15625 3.0625 -6.15625 C 3.171875 -6.109375 3.234375 -6.21875 3.265625 -6.296875 C 3.34375 -6.4375 3.328125 -6.453125 3.203125 -6.578125 C 2.421875 -7.203125 1.9375 -8.125 2.03125 -9.328125 C 2.046875 -9.453125 2.046875 -9.484375 1.984375 -9.53125 C 1.921875 -9.546875 1.875 -9.515625 1.84375 -9.515625 C 1.5 -9.171875 0.515625 -8.328125 -1.15625 -8.734375 C -1.28125 -8.765625 -1.296875 -8.765625 -1.375 -8.625 C -1.40625 -8.546875 -1.46875 -8.4375 -1.359375 -8.375 C -1.34375 -8.375 -0.75 -8.1875 0.046875 -8.25 C 0.40625 -8.296875 0.828125 -8.40625 1.3125 -8.640625 L -2 -2.015625 C -2.078125 -1.859375 -2.15625 -1.6875 -1.984375 -1.609375 C -1.796875 -1.515625 -1.71875 -1.6875 -1.640625 -1.84375 Z M 1.671875 -8.46875 "/>
</symbol>
<symbol overflow="visible" id="glyph4-0">
<path style="stroke:none;" d=""/>
</symbol>
<symbol overflow="visible" id="glyph4-1">
<path style="stroke:none;" d="M 7.015625 -0.234375 C 7.234375 -0.34375 7.25 -0.34375 7.140625 -0.546875 C 6.296875 -0.828125 5.890625 -1.609375 5.765625 -1.890625 L 5.484375 -1.75 C 5.5625 -1.5625 5.828125 -1.046875 6.3125 -0.71875 L 1.6875 1.609375 C 1.359375 1.765625 1.25 1.78125 0.84375 0.984375 L 0.703125 0.71875 L 0.421875 0.859375 C 0.609375 1.140625 1 1.90625 1.171875 2.28125 C 1.359375 2.625 1.75 3.40625 1.875 3.734375 L 2.15625 3.59375 L 2.015625 3.3125 C 1.609375 2.5 1.6875 2.4375 2.015625 2.28125 Z M 7.015625 -0.234375 "/>
</symbol>
<symbol overflow="visible" id="glyph4-2">
<path style="stroke:none;" d="M 4.21875 0.015625 C 4.484375 -0.109375 4.59375 -0.421875 4.46875 -0.671875 C 4.328125 -0.9375 4.015625 -1.046875 3.75 -0.921875 C 3.5 -0.796875 3.375 -0.46875 3.515625 -0.203125 C 3.640625 0.046875 3.96875 0.140625 4.21875 0.015625 Z M 1.328125 1.46875 C 1.578125 1.34375 1.703125 1.03125 1.578125 0.78125 C 1.4375 0.515625 1.109375 0.40625 0.859375 0.53125 C 0.59375 0.65625 0.484375 0.984375 0.625 1.25 C 0.75 1.5 1.0625 1.59375 1.328125 1.46875 Z M 1.328125 1.46875 "/>
</symbol>
<symbol overflow="visible" id="glyph5-0">
<path style="stroke:none;" d=""/>
</symbol>
<symbol overflow="visible" id="glyph5-1">
<path style="stroke:none;" d="M 2.65625 0.234375 C 2.6875 0.59375 2.8125 0.859375 2.921875 1.078125 C 3.03125 1.296875 3.28125 1.796875 3.546875 1.65625 C 3.765625 1.546875 3.640625 1.234375 3.46875 0.890625 C 3.375 0.703125 3.203125 0.390625 2.890625 0.140625 C 2.875 -0.109375 2.984375 -0.359375 3.21875 -0.484375 C 3.765625 -0.75 4.515625 -0.03125 4.921875 0.765625 C 4.984375 0.90625 5.15625 1.234375 5.078125 1.71875 C 5.0625 1.84375 5.046875 1.875 5.078125 1.9375 C 5.140625 2.0625 5.328125 2.125 5.453125 2.0625 C 5.625 1.96875 5.671875 1.265625 5.375 0.65625 C 4.859375 -0.359375 3.78125 -1.03125 3.109375 -0.703125 C 2.71875 -0.5 2.65625 -0.078125 2.65625 -0.015625 C 2.09375 -0.40625 1.46875 -0.4375 1.046875 -0.234375 C 0.46875 0.0625 0.171875 0.828125 0.640625 1.78125 C 1.234375 2.953125 2.28125 3.0625 2.40625 3 C 2.46875 2.96875 2.46875 2.90625 2.453125 2.859375 C 2.421875 2.8125 2.375 2.796875 2.34375 2.796875 C 2.078125 2.78125 1.625 2.734375 1.078125 1.65625 C 0.8125 1.109375 0.578125 0.296875 1.21875 -0.015625 C 1.515625 -0.171875 2.125 -0.15625 2.65625 0.234375 Z M 2.921875 0.46875 C 3.078125 0.65625 3.1875 0.828125 3.265625 0.984375 C 3.375 1.203125 3.375 1.234375 3.4375 1.4375 C 3.296875 1.3125 3.28125 1.3125 3.109375 0.984375 C 3.015625 0.78125 2.953125 0.671875 2.921875 0.46875 Z M 2.921875 0.46875 "/>
</symbol>
<symbol overflow="visible" id="glyph5-2">
<path style="stroke:none;" d="M 5.234375 5.265625 C 5.296875 5.265625 5.359375 5.265625 5.390625 5.25 C 5.390625 5.25 5.5 5.203125 5.4375 5.09375 C 5.390625 5 5.328125 5.015625 5.265625 5.046875 C 3.65625 5.109375 2.890625 5.078125 2.140625 3.5625 L 1.484375 2.265625 C 1.421875 2.140625 1.40625 2.109375 1.390625 2.0625 C 1.359375 1.96875 1.359375 1.921875 1.421875 1.890625 C 1.453125 1.875 1.46875 1.875 1.640625 1.84375 L 4.390625 1.21875 L 4.828125 2.109375 C 5.203125 2.859375 5.015625 2.96875 4.78125 3.078125 C 4.734375 3.109375 4.625 3.15625 4.328125 3.234375 C 4.28125 3.234375 4.234375 3.25 4.203125 3.265625 C 4.171875 3.28125 4.125 3.328125 4.171875 3.421875 C 4.203125 3.484375 4.265625 3.5 4.4375 3.46875 L 6.765625 2.921875 C 6.828125 2.90625 6.828125 2.828125 6.796875 2.765625 C 6.765625 2.6875 6.703125 2.6875 6.578125 2.71875 C 5.8125 2.875 5.515625 2.828125 5.109375 2 L 4.6875 1.171875 L 7.109375 0.625 C 7.46875 0.546875 7.5 0.546875 7.703125 0.9375 L 8.328125 2.1875 C 8.859375 3.265625 8.75 3.671875 8.015625 4.03125 C 7.796875 4.140625 7.78125 4.15625 7.515625 4.25 C 7.484375 4.265625 7.40625 4.28125 7.359375 4.3125 C 7.328125 4.328125 7.265625 4.375 7.296875 4.46875 C 7.34375 4.5625 7.421875 4.546875 7.59375 4.484375 L 9.234375 3.875 C 9.484375 3.796875 9.46875 3.765625 9.34375 3.53125 L 7.09375 -0.984375 C 7 -1.140625 6.953125 -1.25 6.765625 -1.15625 C 6.671875 -1.109375 6.71875 -1.015625 6.796875 -0.84375 C 6.96875 -0.515625 7.09375 -0.265625 6.9375 -0.1875 C 6.90625 -0.171875 6.890625 -0.171875 6.6875 -0.125 L 1.40625 1.046875 C 1 1.140625 0.9375 1.15625 0.578125 0.453125 C 0.5 0.296875 0.453125 0.1875 0.28125 0.265625 C 0.171875 0.328125 0.203125 0.421875 0.296875 0.59375 L 2.609375 5.21875 C 2.71875 5.421875 2.734375 5.4375 2.90625 5.40625 Z M 5.234375 5.265625 "/>
</symbol>
<symbol overflow="visible" id="glyph6-0">
<path style="stroke:none;" d=""/>
</symbol>
<symbol overflow="visible" id="glyph6-1">
<path style="stroke:none;" d="M 5.765625 6.40625 C 5.15625 6.09375 4.671875 6.046875 4.515625 6.046875 C 3.703125 5.953125 3.09375 6.15625 3.09375 6.15625 C 2.984375 6.203125 3.046875 6.3125 3.078125 6.390625 C 3.15625 6.53125 3.171875 6.546875 3.359375 6.484375 C 4.328125 6.265625 5.34375 6.40625 6.25 7.203125 C 6.359375 7.296875 6.390625 7.328125 6.453125 7.28125 C 6.515625 7.265625 6.5 7.203125 6.5 7.171875 C 6.4375 6.703125 6.359375 5.390625 7.6875 4.328125 C 7.78125 4.234375 7.796875 4.203125 7.71875 4.0625 C 7.6875 3.984375 7.625 3.875 7.515625 3.9375 C 7.5 3.9375 7 4.3125 6.578125 4.96875 C 6.40625 5.296875 6.234375 5.71875 6.125 6.234375 L 2.8125 -0.390625 C 2.734375 -0.546875 2.65625 -0.71875 2.484375 -0.640625 C 2.296875 -0.546875 2.375 -0.375 2.453125 -0.21875 Z M 5.765625 6.40625 "/>
</symbol>
<symbol overflow="visible" id="glyph7-0">
<path style="stroke:none;" d=""/>
</symbol>
<symbol overflow="visible" id="glyph7-1">
<path style="stroke:none;" d="M 2.9375 -6.375 C 2.9375 -6.625 2.9375 -6.640625 2.703125 -6.640625 C 2.078125 -6 1.203125 -6 0.890625 -6 L 0.890625 -5.6875 C 1.09375 -5.6875 1.671875 -5.6875 2.1875 -5.953125 L 2.1875 -0.78125 C 2.1875 -0.421875 2.15625 -0.3125 1.265625 -0.3125 L 0.953125 -0.3125 L 0.953125 0 C 1.296875 -0.03125 2.15625 -0.03125 2.5625 -0.03125 C 2.953125 -0.03125 3.828125 -0.03125 4.171875 0 L 4.171875 -0.3125 L 3.859375 -0.3125 C 2.953125 -0.3125 2.9375 -0.421875 2.9375 -0.78125 Z M 2.9375 -6.375 "/>
</symbol>
<symbol overflow="visible" id="glyph7-2">
<path style="stroke:none;" d="M 1.90625 -3.765625 C 1.90625 -4.0625 1.671875 -4.296875 1.390625 -4.296875 C 1.09375 -4.296875 0.859375 -4.0625 0.859375 -3.765625 C 0.859375 -3.484375 1.09375 -3.234375 1.390625 -3.234375 C 1.671875 -3.234375 1.90625 -3.484375 1.90625 -3.765625 Z M 1.90625 -0.53125 C 1.90625 -0.8125 1.671875 -1.0625 1.390625 -1.0625 C 1.09375 -1.0625 0.859375 -0.8125 0.859375 -0.53125 C 0.859375 -0.234375 1.09375 0 1.390625 0 C 1.671875 0 1.90625 -0.234375 1.90625 -0.53125 Z M 1.90625 -0.53125 "/>
</symbol>
<symbol overflow="visible" id="glyph7-3">
<path style="stroke:none;" d="M 4.578125 -3.1875 C 4.578125 -3.984375 4.53125 -4.78125 4.1875 -5.515625 C 3.734375 -6.484375 2.90625 -6.640625 2.5 -6.640625 C 1.890625 -6.640625 1.171875 -6.375 0.75 -5.453125 C 0.4375 -4.765625 0.390625 -3.984375 0.390625 -3.1875 C 0.390625 -2.4375 0.421875 -1.546875 0.84375 -0.78125 C 1.265625 0.015625 2 0.21875 2.484375 0.21875 C 3.015625 0.21875 3.78125 0.015625 4.21875 -0.9375 C 4.53125 -1.625 4.578125 -2.40625 4.578125 -3.1875 Z M 2.484375 0 C 2.09375 0 1.5 -0.25 1.328125 -1.203125 C 1.21875 -1.796875 1.21875 -2.71875 1.21875 -3.3125 C 1.21875 -3.953125 1.21875 -4.609375 1.296875 -5.140625 C 1.484375 -6.328125 2.234375 -6.421875 2.484375 -6.421875 C 2.8125 -6.421875 3.46875 -6.234375 3.65625 -5.25 C 3.765625 -4.6875 3.765625 -3.9375 3.765625 -3.3125 C 3.765625 -2.5625 3.765625 -1.890625 3.65625 -1.25 C 3.5 -0.296875 2.9375 0 2.484375 0 Z M 2.484375 0 "/>
</symbol>
<symbol overflow="visible" id="glyph8-0">
<path style="stroke:none;" d=""/>
</symbol>
<symbol overflow="visible" id="glyph8-1">
<path style="stroke:none;" d="M 8.3125 -2.296875 C 7.765625 -1.875 7.5 -1.46875 7.421875 -1.328125 C 6.96875 -0.640625 6.890625 -0.015625 6.890625 -0.015625 C 6.890625 0.109375 7.015625 0.109375 7.09375 0.109375 C 7.25 0.109375 7.265625 0.09375 7.3125 -0.09375 C 7.53125 -1.0625 8.125 -1.90625 9.25 -2.359375 C 9.375 -2.40625 9.40625 -2.421875 9.40625 -2.5 C 9.40625 -2.5625 9.34375 -2.59375 9.328125 -2.609375 C 8.875 -2.765625 7.671875 -3.265625 7.296875 -4.9375 C 7.265625 -5.0625 7.25 -5.09375 7.09375 -5.09375 C 7.015625 -5.09375 6.890625 -5.09375 6.890625 -4.96875 C 6.890625 -4.953125 6.984375 -4.328125 7.390625 -3.65625 C 7.59375 -3.359375 7.890625 -3.015625 8.3125 -2.6875 L 0.90625 -2.6875 C 0.734375 -2.6875 0.546875 -2.6875 0.546875 -2.5 C 0.546875 -2.296875 0.734375 -2.296875 0.90625 -2.296875 Z M 8.3125 -2.296875 "/>
</symbol>
</g>
<clipPath id="clip1">
  <path d="M 119 392 L 156 392 L 156 423.71875 L 119 423.71875 Z M 119 392 "/>
</clipPath>
</defs>
<g id="surface1">
<path style="fill:none;stroke-width:1.39478;stroke-linecap:butt;stroke-linejoin:miter;stroke:rgb(0%,0%,0%);stroke-opacity:1;stroke-miterlimit:10;" d="M 12.451688 233.860875 C 12.451688 240.739781 6.877469 246.314 -0.0014375 246.314 C -6.876437 246.314 -12.454562 240.739781 -12.454562 233.860875 C -12.454562 226.981969 -6.876437 221.40775 -0.0014375 221.40775 C 6.877469 221.40775 12.451688 226.981969 12.451688 233.860875 Z M 12.451688 233.860875 " transform="matrix(1,0,0,-1,98.353,411.064)"/>
<path style="fill:none;stroke-width:0.59776;stroke-linecap:butt;stroke-linejoin:miter;stroke:rgb(100%,100%,100%);stroke-opacity:1;stroke-miterlimit:10;" d="M 12.451688 233.860875 C 12.451688 240.739781 6.877469 246.314 -0.0014375 246.314 C -6.876437 246.314 -12.454562 240.739781 -12.454562 233.860875 C -12.454562 226.981969 -6.876437 221.40775 -0.0014375 221.40775 C 6.877469 221.40775 12.451688 226.981969 12.451688 233.860875 Z M 12.451688 233.860875 " transform="matrix(1,0,0,-1,98.353,411.064)"/>
<g style="fill:rgb(0%,0%,0%);fill-opacity:1;">
  <use xlink:href="#glyph0-1" x="96.018" y="179.351"/>
</g>
<path style="fill:none;stroke-width:0.3985;stroke-linecap:butt;stroke-linejoin:miter;stroke:rgb(0%,0%,0%);stroke-opacity:1;stroke-miterlimit:10;" d="M -48.341281 233.888219 L -17.63425 233.896031 " transform="matrix(1,0,0,-1,98.353,411.064)"/>
<path style="fill:none;stroke-width:0.3985;stroke-linecap:butt;stroke-linejoin:miter;stroke:rgb(0%,0%,0%);stroke-opacity:1;stroke-miterlimit:10;" d="M 4.213996 0.00109847 L 0.198602 1.55662 L 0.197979 -1.556723 Z M 4.213996 0.00109847 " transform="matrix(0.99998,-0.0002,-0.0002,-0.99998,80.61812,177.16991)"/>
<path style="fill:none;stroke-width:0.3985;stroke-linecap:butt;stroke-linejoin:miter;stroke:rgb(0%,0%,0%);stroke-opacity:1;stroke-miterlimit:10;" d="M 90.408719 233.860875 C 90.408719 240.739781 84.830594 246.314 77.955594 246.314 C 71.076688 246.314 65.498563 240.739781 65.498563 233.860875 C 65.498563 226.981969 71.076688 221.40775 77.955594 221.40775 C 84.830594 221.40775 90.408719 226.981969 90.408719 233.860875 Z M 90.408719 233.860875 " transform="matrix(1,0,0,-1,98.353,411.064)"/>
<path style="fill:none;stroke-width:1.39478;stroke-linecap:butt;stroke-linejoin:miter;stroke:rgb(0%,0%,0%);stroke-opacity:1;stroke-miterlimit:10;" d="M 12.451688 389.767125 C 12.451688 396.646031 6.877469 402.22025 -0.0014375 402.22025 C -6.876437 402.22025 -12.454562 396.646031 -12.454562 389.767125 C -12.454562 382.892125 -6.876437 377.314 -0.0014375 377.314 C 6.877469 377.314 12.451688 382.892125 12.451688 389.767125 Z M 12.451688 389.767125 " transform="matrix(1,0,0,-1,98.353,411.064)"/>
<path style="fill:none;stroke-width:0.59776;stroke-linecap:butt;stroke-linejoin:miter;stroke:rgb(100%,100%,100%);stroke-opacity:1;stroke-miterlimit:10;" d="M 12.451688 389.767125 C 12.451688 396.646031 6.877469 402.22025 -0.0014375 402.22025 C -6.876437 402.22025 -12.454562 396.646031 -12.454562 389.767125 C -12.454562 382.892125 -6.876437 377.314 -0.0014375 377.314 C 6.877469 377.314 12.451688 382.892125 12.451688 389.767125 Z M 12.451688 389.767125 " transform="matrix(1,0,0,-1,98.353,411.064)"/>
<g style="fill:rgb(0%,0%,0%);fill-opacity:1;">
  <use xlink:href="#glyph0-1" x="96.018" y="23.446"/>
</g>
<path style="fill:none;stroke-width:0.3985;stroke-linecap:butt;stroke-linejoin:miter;stroke:rgb(0%,0%,0%);stroke-opacity:1;stroke-miterlimit:10;" d="M -48.341281 389.814 L -17.63425 389.821812 " transform="matrix(1,0,0,-1,98.353,411.064)"/>
<path style="fill:none;stroke-width:0.3985;stroke-linecap:butt;stroke-linejoin:miter;stroke:rgb(0%,0%,0%);stroke-opacity:1;stroke-miterlimit:10;" d="M 4.213996 0.000826008 L 0.19882 1.55691 L 0.197761 -1.556433 Z M 4.213996 0.000826008 " transform="matrix(0.99998,-0.00034,-0.00034,-0.99998,80.61812,21.24054)"/>
<path style="fill:none;stroke-width:1.39478;stroke-linecap:butt;stroke-linejoin:miter;stroke:rgb(0%,0%,0%);stroke-opacity:1;stroke-miterlimit:10;" d="M 12.451688 77.954625 C 12.451688 84.833531 6.877469 90.40775 -0.0014375 90.40775 C -6.876437 90.40775 -12.454562 84.833531 -12.454562 77.954625 C -12.454562 71.075719 -6.876437 65.5015 -0.0014375 65.5015 C 6.877469 65.5015 12.451688 71.075719 12.451688 77.954625 Z M 12.451688 77.954625 " transform="matrix(1,0,0,-1,98.353,411.064)"/>
<path style="fill:none;stroke-width:0.59776;stroke-linecap:butt;stroke-linejoin:miter;stroke:rgb(100%,100%,100%);stroke-opacity:1;stroke-miterlimit:10;" d="M 12.451688 77.954625 C 12.451688 84.833531 6.877469 90.40775 -0.0014375 90.40775 C -6.876437 90.40775 -12.454562 84.833531 -12.454562 77.954625 C -12.454562 71.075719 -6.876437 65.5015 -0.0014375 65.5015 C 6.877469 65.5015 12.451688 71.075719 12.451688 77.954625 Z M 12.451688 77.954625 " transform="matrix(1,0,0,-1,98.353,411.064)"/>
<g style="fill:rgb(0%,0%,0%);fill-opacity:1;">
  <use xlink:href="#glyph0-2" x="93.631" y="334.288"/>
  <use xlink:href="#glyph0-3" x="98.269587" y="334.288"/>
</g>
<path style="fill:none;stroke-width:0.3985;stroke-linecap:butt;stroke-linejoin:miter;stroke:rgb(0%,0%,0%);stroke-opacity:1;stroke-miterlimit:10;" d="M -48.341281 77.962437 L -17.63425 77.966344 " transform="matrix(1,0,0,-1,98.353,411.064)"/>
<path style="fill:none;stroke-width:0.3985;stroke-linecap:butt;stroke-linejoin:miter;stroke:rgb(0%,0%,0%);stroke-opacity:1;stroke-miterlimit:10;" d="M 4.213996 0.00155308 L 0.198368 1.556472 L 0.198212 -1.556871 Z M 4.213996 0.00155308 " transform="matrix(0.99998,-0.00005,-0.00005,-0.99998,80.61812,333.09942)"/>
<path style="fill:none;stroke-width:0.3985;stroke-linecap:butt;stroke-linejoin:miter;stroke:rgb(0%,0%,0%);stroke-opacity:1;stroke-miterlimit:10;" d="M -26.524875 155.90775 C -26.524875 162.786656 -32.099094 168.360875 -38.978 168.360875 C -45.853 168.360875 -51.431125 162.786656 -51.431125 155.90775 C -51.431125 149.028844 -45.853 143.454625 -38.978 143.454625 C -32.099094 143.454625 -26.524875 149.028844 -26.524875 155.90775 Z M -26.524875 155.90775 " transform="matrix(1,0,0,-1,98.353,411.064)"/>
<g style="fill:rgb(0%,0%,0%);fill-opacity:1;">
  <use xlink:href="#glyph0-4" x="55.023" y="257.254"/>
</g>
<g style="fill:rgb(0%,0%,0%);fill-opacity:1;">
  <use xlink:href="#glyph0-5" x="60.133814" y="257.254"/>
</g>
<path style="fill:none;stroke-width:0.3985;stroke-linecap:butt;stroke-linejoin:miter;stroke:rgb(0%,0%,0%);stroke-opacity:1;stroke-miterlimit:10;" d="M 51.432156 155.90775 C 51.432156 162.786656 45.854031 168.360875 38.975125 168.360875 C 32.100125 168.360875 26.522 162.786656 26.522 155.90775 C 26.522 149.028844 32.100125 143.454625 38.975125 143.454625 C 45.854031 143.454625 51.432156 149.028844 51.432156 155.90775 Z M 51.432156 155.90775 " transform="matrix(1,0,0,-1,98.353,411.064)"/>
<g style="fill:rgb(0%,0%,0%);fill-opacity:1;">
  <use xlink:href="#glyph0-4" x="132.976" y="257.254"/>
</g>
<g style="fill:rgb(0%,0%,0%);fill-opacity:1;">
  <use xlink:href="#glyph0-5" x="138.086814" y="257.254"/>
</g>
<path style="fill:none;stroke-width:0.3985;stroke-linecap:butt;stroke-linejoin:miter;stroke:rgb(0%,0%,0%);stroke-opacity:1;stroke-miterlimit:10;" d="M 90.408719 77.954625 C 90.408719 84.833531 84.830594 90.40775 77.955594 90.40775 C 71.076688 90.40775 65.498563 84.833531 65.498563 77.954625 C 65.498563 71.075719 71.076688 65.5015 77.955594 65.5015 C 84.830594 65.5015 90.408719 71.075719 90.408719 77.954625 Z M 90.408719 77.954625 " transform="matrix(1,0,0,-1,98.353,411.064)"/>
<g style="fill:rgb(0%,0%,0%);fill-opacity:1;">
  <use xlink:href="#glyph0-6" x="172.922" y="336.571"/>
</g>
<g style="fill:rgb(0%,0%,0%);fill-opacity:1;">
  <use xlink:href="#glyph0-5" x="176.094092" y="336.571"/>
</g>
<g clip-path="url(#clip1)" clip-rule="nonzero">
<path style="fill:none;stroke-width:0.3985;stroke-linecap:butt;stroke-linejoin:miter;stroke:rgb(0%,0%,0%);stroke-opacity:1;stroke-miterlimit:10;" d="M 51.432156 0.0015 C 51.432156 6.8765 45.854031 12.454625 38.975125 12.454625 C 32.100125 12.454625 26.522 6.8765 26.522 0.0015 C 26.522 -6.877406 32.100125 -12.451625 38.975125 -12.451625 C 45.854031 -12.451625 51.432156 -6.877406 51.432156 0.0015 Z M 51.432156 0.0015 " transform="matrix(1,0,0,-1,98.353,411.064)"/>
</g>
<g style="fill:rgb(0%,0%,0%);fill-opacity:1;">
  <use xlink:href="#glyph0-6" x="133.946" y="414.524"/>
</g>
<g style="fill:rgb(0%,0%,0%);fill-opacity:1;">
  <use xlink:href="#glyph0-5" x="137.118092" y="414.524"/>
</g>
<path style="fill:none;stroke-width:0.3985;stroke-linecap:butt;stroke-linejoin:miter;stroke:rgb(0%,0%,0%);stroke-opacity:1;stroke-miterlimit:10;" d="M 5.791531 89.548375 L 31.229031 140.419469 " transform="matrix(1,0,0,-1,98.353,411.064)"/>
<path style="fill:none;stroke-width:0.3985;stroke-linecap:butt;stroke-linejoin:miter;stroke:rgb(0%,0%,0%);stroke-opacity:1;stroke-miterlimit:10;" d="M 4.213842 -0.00104121 L 0.199096 1.555632 L 0.199082 0.000741771 L 0.200815 -1.557642 Z M 4.213842 -0.00104121 " transform="matrix(0.44717,-0.89436,-0.89436,-0.44717,129.53664,270.73307)"/>
<g style="fill:rgb(0%,0%,0%);fill-opacity:1;">
  <use xlink:href="#glyph1-1" x="105.504" y="310.9"/>
</g>
<g style="fill:rgb(0%,0%,0%);fill-opacity:1;">
  <use xlink:href="#glyph1-2" x="108.974234" y="303.969918"/>
</g>
<g style="fill:rgb(0%,0%,0%);fill-opacity:1;">
  <use xlink:href="#glyph2-1" x="111.451512" y="299.022776"/>
</g>
<g style="fill:rgb(0%,0%,0%);fill-opacity:1;">
  <use xlink:href="#glyph3-1" x="114.770461" y="292.394812"/>
</g>
<g style="fill:rgb(0%,0%,0%);fill-opacity:1;">
  <use xlink:href="#glyph2-2" x="120.469936" y="281.012919"/>
</g>
<path style="fill:none;stroke-width:0.3985;stroke-linecap:butt;stroke-linejoin:miter;stroke:rgb(0%,0%,0%);stroke-opacity:1;stroke-miterlimit:10;" d="M 5.791531 66.3765 L 31.229031 15.505406 " transform="matrix(1,0,0,-1,98.353,411.064)"/>
<path style="fill:none;stroke-width:0.3985;stroke-linecap:butt;stroke-linejoin:miter;stroke:rgb(0%,0%,0%);stroke-opacity:1;stroke-miterlimit:10;" d="M 4.21407 -0.000146236 L 0.201043 1.556455 L 0.19931 -0.00192922 L 0.199324 -1.556819 Z M 4.21407 -0.000146236 " transform="matrix(0.44717,0.89436,0.89436,-0.44717,129.5376,395.46932)"/>
<g style="fill:rgb(0%,0%,0%);fill-opacity:1;">
  <use xlink:href="#glyph4-1" x="99.419" y="358.353"/>
</g>
<g style="fill:rgb(0%,0%,0%);fill-opacity:1;">
  <use xlink:href="#glyph4-2" x="102.889234" y="365.283082"/>
</g>
<g style="fill:rgb(0%,0%,0%);fill-opacity:1;">
  <use xlink:href="#glyph5-1" x="105.366065" y="370.22933"/>
</g>
<g style="fill:rgb(0%,0%,0%);fill-opacity:1;">
  <use xlink:href="#glyph6-1" x="108.685013" y="376.857294"/>
</g>
<g style="fill:rgb(0%,0%,0%);fill-opacity:1;">
  <use xlink:href="#glyph5-2" x="114.384489" y="388.239187"/>
</g>
<path style="fill:none;stroke-width:0.3985;stroke-linecap:butt;stroke-linejoin:miter;stroke:rgb(0%,0%,0%);stroke-opacity:1;stroke-miterlimit:10;" d="M 26.518094 153.728062 L -21.837375 153.728062 " transform="matrix(1,0,0,-1,98.353,411.064)"/>
<path style="fill:none;stroke-width:0.3985;stroke-linecap:butt;stroke-linejoin:miter;stroke:rgb(0%,0%,0%);stroke-opacity:1;stroke-miterlimit:10;" d="M 4.213316 0.0000675 L 0.197691 1.558661 L 0.197691 -1.558526 Z M 4.213316 0.0000675 " transform="matrix(-1,0,0,1,76.61566,257.33587)"/>
<g style="fill:rgb(0%,0%,0%);fill-opacity:1;">
  <use xlink:href="#glyph7-1" x="77.903" y="267.666"/>
</g>
<g style="fill:rgb(0%,0%,0%);fill-opacity:1;">
  <use xlink:href="#glyph7-2" x="85.653903" y="267.666"/>
</g>
<g style="fill:rgb(0%,0%,0%);fill-opacity:1;">
  <use xlink:href="#glyph0-7" x="91.187" y="267.666"/>
</g>
<g style="fill:rgb(0%,0%,0%);fill-opacity:1;">
  <use xlink:href="#glyph8-1" x="101.426" y="267.666"/>
</g>
<g style="fill:rgb(0%,0%,0%);fill-opacity:1;">
  <use xlink:href="#glyph0-8" x="114.156" y="267.666"/>
</g>
<path style="fill:none;stroke-width:0.3985;stroke-linecap:butt;stroke-linejoin:miter;stroke:rgb(0%,0%,0%);stroke-opacity:1;stroke-miterlimit:10;" d="M 44.643094 144.606969 L 70.213406 93.47025 " transform="matrix(1,0,0,-1,98.353,411.064)"/>
<path style="fill:none;stroke-width:0.3985;stroke-linecap:butt;stroke-linejoin:miter;stroke:rgb(0%,0%,0%);stroke-opacity:1;stroke-miterlimit:10;" d="M 4.216978 0.000462863 L 0.198768 1.555253 L 0.198795 0.000390979 L 0.197076 -1.557965 Z M 4.216978 0.000462863 " transform="matrix(0.44717,0.89438,0.89438,-0.44717,168.52013,317.50597)"/>
<g style="fill:rgb(0%,0%,0%);fill-opacity:1;">
  <use xlink:href="#glyph4-1" x="149.98" y="272.59"/>
</g>
<g style="fill:rgb(0%,0%,0%);fill-opacity:1;">
  <use xlink:href="#glyph4-2" x="153.450234" y="279.520082"/>
</g>
<g style="fill:rgb(0%,0%,0%);fill-opacity:1;">
  <use xlink:href="#glyph5-2" x="155.927512" y="284.467224"/>
</g>
<g style="fill:rgb(0%,0%,0%);fill-opacity:1;">
  <use xlink:href="#glyph6-1" x="160.715878" y="294.029624"/>
</g>
<g style="fill:rgb(0%,0%,0%);fill-opacity:1;">
  <use xlink:href="#glyph5-2" x="166.415353" y="305.411517"/>
</g>
<path style="fill:none;stroke-width:0.3985;stroke-linecap:butt;stroke-linejoin:miter;stroke:rgb(0%,0%,0%);stroke-opacity:1;stroke-miterlimit:10;" d="M 51.201688 159.204625 C 88.854031 169.286656 88.854031 142.564 56.689969 151.185094 " transform="matrix(1,0,0,-1,98.353,411.064)"/>
<path style="fill:none;stroke-width:0.3985;stroke-linecap:butt;stroke-linejoin:miter;stroke:rgb(0%,0%,0%);stroke-opacity:1;stroke-miterlimit:10;" d="M 4.213442 -0.00197525 L 0.199695 1.55896 L 0.200455 0.00213133 L 0.197443 -1.555708 Z M 4.213442 -0.00197525 " transform="matrix(-0.96588,-0.25891,-0.25891,0.96588,155.13948,259.90531)"/>
<g style="fill:rgb(0%,0%,0%);fill-opacity:1;">
  <use xlink:href="#glyph7-3" x="181.312" y="258.544"/>
</g>
<g style="fill:rgb(0%,0%,0%);fill-opacity:1;">
  <use xlink:href="#glyph7-2" x="189.062903" y="258.544"/>
</g>
<g style="fill:rgb(0%,0%,0%);fill-opacity:1;">
  <use xlink:href="#glyph0-8" x="194.595" y="258.544"/>
</g>
<g style="fill:rgb(0%,0%,0%);fill-opacity:1;">
  <use xlink:href="#glyph8-1" x="202.009" y="258.544"/>
</g>
<g style="fill:rgb(0%,0%,0%);fill-opacity:1;">
  <use xlink:href="#glyph0-7" x="214.739" y="258.544"/>
</g>
<path style="fill:none;stroke-width:0.3985;stroke-linecap:butt;stroke-linejoin:miter;stroke:rgb(0%,0%,0%);stroke-opacity:1;stroke-miterlimit:10;" d="M 43.307156 11.892125 L 67.8345 64.03275 " transform="matrix(1,0,0,-1,98.353,411.064)"/>
<path style="fill:none;stroke-width:0.3985;stroke-linecap:butt;stroke-linejoin:miter;stroke:rgb(0%,0%,0%);stroke-opacity:1;stroke-miterlimit:10;" d="M 4.214658 -0.00142699 L 0.19961 1.559239 L 0.198266 -1.558277 Z M 4.214658 -0.00142699 " transform="matrix(0.42563,-0.90485,-0.90485,-0.42563,166.14623,347.12162)"/>
<g style="fill:rgb(0%,0%,0%);fill-opacity:1;">
  <use xlink:href="#glyph2-1" x="142.693" y="387.542"/>
</g>
<g style="fill:rgb(0%,0%,0%);fill-opacity:1;">
  <use xlink:href="#glyph1-2" x="146.011948" y="380.914037"/>
</g>
<g style="fill:rgb(0%,0%,0%);fill-opacity:1;">
  <use xlink:href="#glyph2-1" x="148.490079" y="375.965193"/>
</g>
<g style="fill:rgb(0%,0%,0%);fill-opacity:1;">
  <use xlink:href="#glyph3-1" x="151.809027" y="369.33723"/>
</g>
<g style="fill:rgb(0%,0%,0%);fill-opacity:1;">
  <use xlink:href="#glyph2-3" x="157.508503" y="357.955337"/>
</g>
<path style="fill:none;stroke-width:0.3985;stroke-linecap:butt;stroke-linejoin:miter;stroke:rgb(0%,0%,0%);stroke-opacity:1;stroke-miterlimit:10;" d="M 73.635281 66.071812 L 49.107938 13.931187 " transform="matrix(1,0,0,-1,98.353,411.064)"/>
<path style="fill:none;stroke-width:0.3985;stroke-linecap:butt;stroke-linejoin:miter;stroke:rgb(0%,0%,0%);stroke-opacity:1;stroke-miterlimit:10;" d="M 4.212372 0.000220427 L 0.198987 1.557352 L 0.198315 -0.00140647 L 0.199514 -1.554967 Z M 4.212372 0.000220427 " transform="matrix(-0.42563,0.90485,0.90485,0.42563,147.50365,397.04381)"/>
<g style="fill:rgb(0%,0%,0%);fill-opacity:1;">
  <use xlink:href="#glyph1-3" x="158.805" y="396.09"/>
</g>
<g style="fill:rgb(0%,0%,0%);fill-opacity:1;">
  <use xlink:href="#glyph1-2" x="162.275234" y="389.159918"/>
</g>
<g style="fill:rgb(0%,0%,0%);fill-opacity:1;">
  <use xlink:href="#glyph2-1" x="164.752512" y="384.212776"/>
</g>
<g style="fill:rgb(0%,0%,0%);fill-opacity:1;">
  <use xlink:href="#glyph3-1" x="168.071461" y="377.584812"/>
</g>
<g style="fill:rgb(0%,0%,0%);fill-opacity:1;">
  <use xlink:href="#glyph2-3" x="173.770936" y="366.202919"/>
</g>
<path style="fill:none;stroke-width:0.3985;stroke-linecap:butt;stroke-linejoin:miter;stroke:rgb(0%,0%,0%);stroke-opacity:1;stroke-miterlimit:10;" d="M 65.307156 77.962437 L 17.635281 77.962437 " transform="matrix(1,0,0,-1,98.353,411.064)"/>
<path style="fill:none;stroke-width:0.3985;stroke-linecap:butt;stroke-linejoin:miter;stroke:rgb(0%,0%,0%);stroke-opacity:1;stroke-miterlimit:10;" d="M 4.21295 0.0013525 L 0.197325 1.55604 L 0.197325 -1.557241 Z M 4.21295 0.0013525 " transform="matrix(-1,0,0,1,116.08795,333.10021)"/>
<g style="fill:rgb(0%,0%,0%);fill-opacity:1;">
  <use xlink:href="#glyph7-3" x="116.805" y="329.582"/>
</g>
<g style="fill:rgb(0%,0%,0%);fill-opacity:1;">
  <use xlink:href="#glyph7-2" x="124.555903" y="329.582"/>
</g>
<g style="fill:rgb(0%,0%,0%);fill-opacity:1;">
  <use xlink:href="#glyph0-9" x="130.089" y="329.582"/>
</g>
<g style="fill:rgb(0%,0%,0%);fill-opacity:1;">
  <use xlink:href="#glyph8-1" x="140.785" y="329.582"/>
</g>
<g style="fill:rgb(0%,0%,0%);fill-opacity:1;">
  <use xlink:href="#glyph0-8" x="153.515" y="329.582"/>
</g>
<path style="fill:none;stroke-width:0.3985;stroke-linecap:butt;stroke-linejoin:miter;stroke:rgb(0%,0%,0%);stroke-opacity:1;stroke-miterlimit:10;" d="M 90.186063 81.239781 C 127.8345 91.325719 127.8345 64.599156 95.670438 73.22025 " transform="matrix(1,0,0,-1,98.353,411.064)"/>
<path style="fill:none;stroke-width:0.3985;stroke-linecap:butt;stroke-linejoin:miter;stroke:rgb(0%,0%,0%);stroke-opacity:1;stroke-miterlimit:10;" d="M 4.213781 -0.00136117 L 0.20115 1.555962 L 0.198069 -0.00186317 L 0.198761 -1.558678 Z M 4.213781 -0.00136117 " transform="matrix(-0.9659,-0.25887,-0.25887,0.9659,194.12052,337.86948)"/>
<g style="fill:rgb(0%,0%,0%);fill-opacity:1;">
  <use xlink:href="#glyph7-3" x="220.293" y="336.506"/>
</g>
<g style="fill:rgb(0%,0%,0%);fill-opacity:1;">
  <use xlink:href="#glyph7-2" x="228.043903" y="336.506"/>
</g>
<g style="fill:rgb(0%,0%,0%);fill-opacity:1;">
  <use xlink:href="#glyph0-7" x="233.576" y="336.506"/>
</g>
<g style="fill:rgb(0%,0%,0%);fill-opacity:1;">
  <use xlink:href="#glyph8-1" x="243.816" y="336.506"/>
</g>
<g style="fill:rgb(0%,0%,0%);fill-opacity:1;">
  <use xlink:href="#glyph0-8" x="256.546" y="336.506"/>
</g>
<path style="fill:none;stroke-width:0.3985;stroke-linecap:butt;stroke-linejoin:miter;stroke:rgb(0%,0%,0%);stroke-opacity:1;stroke-miterlimit:10;" d="M -26.520969 158.122594 L 21.838406 158.122594 " transform="matrix(1,0,0,-1,98.353,411.064)"/>
<path style="fill:none;stroke-width:0.3985;stroke-linecap:butt;stroke-linejoin:miter;stroke:rgb(0%,0%,0%);stroke-opacity:1;stroke-miterlimit:10;" d="M 4.214348 0.00021375 L 0.198723 1.558807 L 0.198723 -1.55838 Z M 4.214348 0.00021375 " transform="matrix(1,0,0,-1,120.09034,252.94162)"/>
<g style="fill:rgb(0%,0%,0%);fill-opacity:1;">
  <use xlink:href="#glyph0-8" x="78.071" y="249.424"/>
</g>
<g style="fill:rgb(0%,0%,0%);fill-opacity:1;">
  <use xlink:href="#glyph7-2" x="85.484" y="249.424"/>
</g>
<g style="fill:rgb(0%,0%,0%);fill-opacity:1;">
  <use xlink:href="#glyph0-8" x="91.019" y="249.424"/>
</g>
<g style="fill:rgb(0%,0%,0%);fill-opacity:1;">
  <use xlink:href="#glyph8-1" x="98.432" y="249.424"/>
</g>
<g style="fill:rgb(0%,0%,0%);fill-opacity:1;">
  <use xlink:href="#glyph0-7" x="111.162" y="249.424"/>
</g>
<path style="fill:none;stroke-width:0.3985;stroke-linecap:butt;stroke-linejoin:miter;stroke:rgb(0%,0%,0%);stroke-opacity:1;stroke-miterlimit:10;" d="M -33.32175 144.606969 L -7.88425 93.735875 " transform="matrix(1,0,0,-1,98.353,411.064)"/>
<path style="fill:none;stroke-width:0.3985;stroke-linecap:butt;stroke-linejoin:miter;stroke:rgb(0%,0%,0%);stroke-opacity:1;stroke-miterlimit:10;" d="M 4.21437 0.00145771 L 0.201343 1.558059 L 0.19961 -0.000325265 L 0.199624 -1.555215 Z M 4.21437 0.00145771 " transform="matrix(0.44717,0.89436,0.89436,-0.44717,90.42275,317.2393)"/>
<g style="fill:rgb(0%,0%,0%);fill-opacity:1;">
  <use xlink:href="#glyph5-1" x="60.379" y="280.274"/>
</g>
<g style="fill:rgb(0%,0%,0%);fill-opacity:1;">
  <use xlink:href="#glyph4-2" x="63.697948" y="286.901963"/>
</g>
<g style="fill:rgb(0%,0%,0%);fill-opacity:1;">
  <use xlink:href="#glyph5-2" x="66.176079" y="291.850807"/>
</g>
<g style="fill:rgb(0%,0%,0%);fill-opacity:1;">
  <use xlink:href="#glyph6-1" x="70.964892" y="301.4141"/>
</g>
<g style="fill:rgb(0%,0%,0%);fill-opacity:1;">
  <use xlink:href="#glyph5-1" x="76.664367" y="312.795993"/>
</g>
<path style="fill:none;stroke-width:0.3985;stroke-linecap:butt;stroke-linejoin:miter;stroke:rgb(0%,0%,0%);stroke-opacity:1;stroke-miterlimit:10;" d="M 12.510281 393.177281 C 50.158719 403.2515 50.158719 376.372594 17.998563 385.0015 " transform="matrix(1,0,0,-1,98.353,411.064)"/>
<path style="fill:none;stroke-width:0.3985;stroke-linecap:butt;stroke-linejoin:miter;stroke:rgb(0%,0%,0%);stroke-opacity:1;stroke-miterlimit:10;" d="M 4.213809 -0.00209044 L 0.199825 1.558264 L 0.200813 0.00143191 L 0.198027 -1.556412 Z M 4.213809 -0.00209044 " transform="matrix(-0.96584,-0.25905,-0.25905,0.96584,116.44823,26.0897)"/>
<g style="fill:rgb(0%,0%,0%);fill-opacity:1;">
  <use xlink:href="#glyph7-3" x="201.493" y="11.689"/>
</g>
<g style="fill:rgb(0%,0%,0%);fill-opacity:1;">
  <use xlink:href="#glyph7-2" x="209.243903" y="11.689"/>
</g>
<g style="fill:rgb(0%,0%,0%);fill-opacity:1;">
  <use xlink:href="#glyph0-7" x="214.776" y="11.689"/>
</g>
<g style="fill:rgb(0%,0%,0%);fill-opacity:1;">
  <use xlink:href="#glyph8-1" x="225.015" y="11.689"/>
</g>
<g style="fill:rgb(0%,0%,0%);fill-opacity:1;">
  <use xlink:href="#glyph0-10" x="237.745" y="11.689"/>
</g>
<g style="fill:rgb(0%,0%,0%);fill-opacity:1;">
  <use xlink:href="#glyph7-1" x="257.757" y="11.689"/>
</g>
<g style="fill:rgb(0%,0%,0%);fill-opacity:1;">
  <use xlink:href="#glyph7-2" x="265.507903" y="11.689"/>
</g>
<g style="fill:rgb(0%,0%,0%);fill-opacity:1;">
  <use xlink:href="#glyph0-10" x="271.041" y="11.689"/>
</g>
<g style="fill:rgb(0%,0%,0%);fill-opacity:1;">
  <use xlink:href="#glyph8-1" x="281.864" y="11.689"/>
</g>
<g style="fill:rgb(0%,0%,0%);fill-opacity:1;">
  <use xlink:href="#glyph0-8" x="294.594" y="11.689"/>
</g>
<g style="fill:rgb(0%,0%,0%);fill-opacity:1;">
  <use xlink:href="#glyph7-3" x="148.618" y="23.645"/>
</g>
<g style="fill:rgb(0%,0%,0%);fill-opacity:1;">
  <use xlink:href="#glyph7-2" x="156.368903" y="23.645"/>
</g>
<g style="fill:rgb(0%,0%,0%);fill-opacity:1;">
  <use xlink:href="#glyph0-8" x="161.902" y="23.645"/>
</g>
<g style="fill:rgb(0%,0%,0%);fill-opacity:1;">
  <use xlink:href="#glyph8-1" x="169.315" y="23.645"/>
</g>
<g style="fill:rgb(0%,0%,0%);fill-opacity:1;">
  <use xlink:href="#glyph0-7" x="182.045" y="23.645"/>
</g>
<g style="fill:rgb(0%,0%,0%);fill-opacity:1;">
  <use xlink:href="#glyph7-1" x="201.522" y="23.645"/>
</g>
<g style="fill:rgb(0%,0%,0%);fill-opacity:1;">
  <use xlink:href="#glyph7-2" x="209.272903" y="23.645"/>
</g>
<g style="fill:rgb(0%,0%,0%);fill-opacity:1;">
  <use xlink:href="#glyph0-7" x="214.805" y="23.645"/>
</g>
<g style="fill:rgb(0%,0%,0%);fill-opacity:1;">
  <use xlink:href="#glyph8-1" x="225.045" y="23.645"/>
</g>
<g style="fill:rgb(0%,0%,0%);fill-opacity:1;">
  <use xlink:href="#glyph0-11" x="237.775" y="23.645"/>
</g>
<g style="fill:rgb(0%,0%,0%);fill-opacity:1;">
  <use xlink:href="#glyph7-3" x="257.787" y="23.645"/>
</g>
<g style="fill:rgb(0%,0%,0%);fill-opacity:1;">
  <use xlink:href="#glyph7-2" x="265.537903" y="23.645"/>
</g>
<g style="fill:rgb(0%,0%,0%);fill-opacity:1;">
  <use xlink:href="#glyph0-11" x="271.07" y="23.645"/>
</g>
<g style="fill:rgb(0%,0%,0%);fill-opacity:1;">
  <use xlink:href="#glyph8-1" x="281.835" y="23.645"/>
</g>
<g style="fill:rgb(0%,0%,0%);fill-opacity:1;">
  <use xlink:href="#glyph0-8" x="294.565" y="23.645"/>
</g>
<g style="fill:rgb(0%,0%,0%);fill-opacity:1;">
  <use xlink:href="#glyph7-1" x="148.598" y="35.6"/>
</g>
<g style="fill:rgb(0%,0%,0%);fill-opacity:1;">
  <use xlink:href="#glyph7-2" x="156.348903" y="35.6"/>
</g>
<g style="fill:rgb(0%,0%,0%);fill-opacity:1;">
  <use xlink:href="#glyph0-8" x="161.881" y="35.6"/>
</g>
<g style="fill:rgb(0%,0%,0%);fill-opacity:1;">
  <use xlink:href="#glyph8-1" x="169.294" y="35.6"/>
</g>
<g style="fill:rgb(0%,0%,0%);fill-opacity:1;">
  <use xlink:href="#glyph0-12" x="182.024" y="35.6"/>
</g>
<g style="fill:rgb(0%,0%,0%);fill-opacity:1;">
  <use xlink:href="#glyph7-3" x="201.501" y="35.6"/>
</g>
<g style="fill:rgb(0%,0%,0%);fill-opacity:1;">
  <use xlink:href="#glyph7-2" x="209.251903" y="35.6"/>
</g>
<g style="fill:rgb(0%,0%,0%);fill-opacity:1;">
  <use xlink:href="#glyph0-12" x="214.785" y="35.6"/>
</g>
<g style="fill:rgb(0%,0%,0%);fill-opacity:1;">
  <use xlink:href="#glyph8-1" x="225.066" y="35.6"/>
</g>
<g style="fill:rgb(0%,0%,0%);fill-opacity:1;">
  <use xlink:href="#glyph0-11" x="237.796" y="35.6"/>
</g>
<path style="fill:none;stroke-width:0.3985;stroke-linecap:butt;stroke-linejoin:miter;stroke:rgb(0%,0%,0%);stroke-opacity:1;stroke-miterlimit:10;" d="M -3.349094 246.399937 C -13.438937 284.048375 13.439969 284.048375 4.818875 251.884312 " transform="matrix(1,0,0,-1,98.353,411.064)"/>
<path style="fill:none;stroke-width:0.3985;stroke-linecap:butt;stroke-linejoin:miter;stroke:rgb(0%,0%,0%);stroke-opacity:1;stroke-miterlimit:10;" d="M 4.212958 0.000723926 L 0.200336 1.558133 L 0.197225 0.000299497 L 0.197888 -1.556523 Z M 4.212958 0.000723926 " transform="matrix(-0.25885,0.9659,0.9659,0.25885,103.1992,159.08286)"/>
<g style="fill:rgb(0%,0%,0%);fill-opacity:1;">
  <use xlink:href="#glyph7-3" x="77.611" y="117.37"/>
</g>
<g style="fill:rgb(0%,0%,0%);fill-opacity:1;">
  <use xlink:href="#glyph7-2" x="85.361903" y="117.37"/>
</g>
<g style="fill:rgb(0%,0%,0%);fill-opacity:1;">
  <use xlink:href="#glyph0-10" x="90.894" y="117.37"/>
</g>
<g style="fill:rgb(0%,0%,0%);fill-opacity:1;">
  <use xlink:href="#glyph8-1" x="101.718" y="117.37"/>
</g>
<g style="fill:rgb(0%,0%,0%);fill-opacity:1;">
  <use xlink:href="#glyph0-8" x="114.448" y="117.37"/>
</g>
<g style="fill:rgb(0%,0%,0%);fill-opacity:1;">
  <use xlink:href="#glyph7-3" x="77.903" y="129.325"/>
</g>
<g style="fill:rgb(0%,0%,0%);fill-opacity:1;">
  <use xlink:href="#glyph7-2" x="85.653903" y="129.325"/>
</g>
<g style="fill:rgb(0%,0%,0%);fill-opacity:1;">
  <use xlink:href="#glyph0-8" x="91.187" y="129.325"/>
</g>
<g style="fill:rgb(0%,0%,0%);fill-opacity:1;">
  <use xlink:href="#glyph8-1" x="98.6" y="129.325"/>
</g>
<g style="fill:rgb(0%,0%,0%);fill-opacity:1;">
  <use xlink:href="#glyph0-7" x="111.33" y="129.325"/>
</g>
<path style="fill:none;stroke-width:0.3985;stroke-linecap:butt;stroke-linejoin:miter;stroke:rgb(0%,0%,0%);stroke-opacity:1;stroke-miterlimit:10;" d="M 65.502469 231.689 L 17.439969 231.642125 " transform="matrix(1,0,0,-1,98.353,411.064)"/>
<path style="fill:none;stroke-width:0.3985;stroke-linecap:butt;stroke-linejoin:miter;stroke:rgb(0%,0%,0%);stroke-opacity:1;stroke-miterlimit:10;" d="M 4.215524 0.00119006 L 0.197436 1.55594 L 0.199819 0.0012192 L 0.198291 -1.557404 Z M 4.215524 0.00119006 " transform="matrix(-0.99998,0.00098,0.00098,0.99998,115.89122,179.42046)"/>
<g style="fill:rgb(0%,0%,0%);fill-opacity:1;">
  <use xlink:href="#glyph0-8" x="117.199" y="191.291"/>
</g>
<g style="fill:rgb(0%,0%,0%);fill-opacity:1;">
  <use xlink:href="#glyph7-2" x="124.612" y="191.291"/>
</g>
<g style="fill:rgb(0%,0%,0%);fill-opacity:1;">
  <use xlink:href="#glyph0-7" x="130.147" y="191.291"/>
</g>
<g style="fill:rgb(0%,0%,0%);fill-opacity:1;">
  <use xlink:href="#glyph8-1" x="140.386" y="191.291"/>
</g>
<g style="fill:rgb(0%,0%,0%);fill-opacity:1;">
  <use xlink:href="#glyph0-8" x="153.116" y="191.291"/>
</g>
<g style="fill:rgb(0%,0%,0%);fill-opacity:1;">
  <use xlink:href="#glyph0-8" x="116.907" y="203.246"/>
</g>
<g style="fill:rgb(0%,0%,0%);fill-opacity:1;">
  <use xlink:href="#glyph7-2" x="124.32" y="203.246"/>
</g>
<g style="fill:rgb(0%,0%,0%);fill-opacity:1;">
  <use xlink:href="#glyph0-8" x="129.855" y="203.246"/>
</g>
<g style="fill:rgb(0%,0%,0%);fill-opacity:1;">
  <use xlink:href="#glyph8-1" x="137.268" y="203.246"/>
</g>
<g style="fill:rgb(0%,0%,0%);fill-opacity:1;">
  <use xlink:href="#glyph0-10" x="149.998" y="203.246"/>
</g>
<path style="fill:none;stroke-width:0.3985;stroke-linecap:butt;stroke-linejoin:miter;stroke:rgb(0%,0%,0%);stroke-opacity:1;stroke-miterlimit:10;" d="M 12.756375 236.138219 L 60.818875 236.091344 " transform="matrix(1,0,0,-1,98.353,411.064)"/>
<path style="fill:none;stroke-width:0.3985;stroke-linecap:butt;stroke-linejoin:miter;stroke:rgb(0%,0%,0%);stroke-opacity:1;stroke-miterlimit:10;" d="M 4.213509 0.00186678 L 0.200186 1.556559 L 0.197803 0.00183763 L 0.199331 -1.556786 Z M 4.213509 0.00186678 " transform="matrix(0.99998,0.00098,0.00098,-0.99998,159.07173,174.9743)"/>
<g style="fill:rgb(0%,0%,0%);fill-opacity:1;">
  <use xlink:href="#glyph7-1" x="117.031" y="155.895"/>
</g>
<g style="fill:rgb(0%,0%,0%);fill-opacity:1;">
  <use xlink:href="#glyph7-2" x="124.781903" y="155.895"/>
</g>
<g style="fill:rgb(0%,0%,0%);fill-opacity:1;">
  <use xlink:href="#glyph0-7" x="130.315" y="155.895"/>
</g>
<g style="fill:rgb(0%,0%,0%);fill-opacity:1;">
  <use xlink:href="#glyph8-1" x="140.554" y="155.895"/>
</g>
<g style="fill:rgb(0%,0%,0%);fill-opacity:1;">
  <use xlink:href="#glyph0-8" x="153.284" y="155.895"/>
</g>
<g style="fill:rgb(0%,0%,0%);fill-opacity:1;">
  <use xlink:href="#glyph7-1" x="116.739" y="167.85"/>
</g>
<g style="fill:rgb(0%,0%,0%);fill-opacity:1;">
  <use xlink:href="#glyph7-2" x="124.489903" y="167.85"/>
</g>
<g style="fill:rgb(0%,0%,0%);fill-opacity:1;">
  <use xlink:href="#glyph0-8" x="130.022" y="167.85"/>
</g>
<g style="fill:rgb(0%,0%,0%);fill-opacity:1;">
  <use xlink:href="#glyph8-1" x="137.435" y="167.85"/>
</g>
<g style="fill:rgb(0%,0%,0%);fill-opacity:1;">
  <use xlink:href="#glyph0-10" x="150.165" y="167.85"/>
</g>
</g>
</svg>
