<?xml version="1.0" encoding="UTF-8"?>
<svg xmlns="http://www.w3.org/2000/svg" xmlns:xlink="http://www.w3.org/1999/xlink" width="100.91pt" height="80.3pt" viewBox="0 0 100.91 80.3" version="1.1">
<defs>
<g>
<symbol overflow="visible" id="glyph0-0">
<path style="stroke:none;" d=""/>
</symbol>
<symbol overflow="visible" id="glyph0-1">
<path style="stroke:none;" d="M 7.578125 -6.921875 C 7.578125 -6.953125 7.5625 -7.03125 7.46875 -7.03125 C 7.4375 -7.03125 7.421875 -7.015625 7.3125 -6.90625 L 6.625 -6.140625 C 6.53125 -6.28125 6.078125 -7.03125 4.96875 -7.03125 C 2.734375 -7.03125 0.5 -4.828125 0.5 -2.515625 C 0.5 -0.921875 1.609375 0.21875 3.21875 0.21875 C 3.65625 0.21875 4.109375 0.125 4.46875 -0.015625 C 4.96875 -0.21875 5.15625 -0.421875 5.328125 -0.625 C 5.421875 -0.375 5.6875 -0.015625 5.78125 -0.015625 C 5.828125 -0.015625 5.859375 -0.046875 5.859375 -0.046875 C 5.875 -0.0625 5.96875 -0.453125 6.015625 -0.65625 L 6.203125 -1.421875 C 6.25 -1.59375 6.296875 -1.765625 6.34375 -1.9375 C 6.453125 -2.375 6.453125 -2.40625 7.03125 -2.40625 C 7.078125 -2.40625 7.1875 -2.421875 7.1875 -2.609375 C 7.1875 -2.6875 7.140625 -2.71875 7.0625 -2.71875 C 6.828125 -2.71875 6.234375 -2.6875 6.015625 -2.6875 C 5.703125 -2.6875 4.921875 -2.71875 4.609375 -2.71875 C 4.53125 -2.71875 4.40625 -2.71875 4.40625 -2.515625 C 4.40625 -2.40625 4.484375 -2.40625 4.703125 -2.40625 C 4.71875 -2.40625 5 -2.40625 5.234375 -2.390625 C 5.5 -2.359375 5.546875 -2.328125 5.546875 -2.203125 C 5.546875 -2.109375 5.4375 -1.671875 5.328125 -1.296875 C 5.046875 -0.203125 3.765625 -0.09375 3.40625 -0.09375 C 2.453125 -0.09375 1.40625 -0.65625 1.40625 -2.1875 C 1.40625 -2.5 1.5 -4.140625 2.546875 -5.4375 C 3.09375 -6.109375 4.0625 -6.71875 5.046875 -6.71875 C 6.0625 -6.71875 6.65625 -5.953125 6.65625 -4.796875 C 6.65625 -4.390625 6.625 -4.390625 6.625 -4.28125 C 6.625 -4.1875 6.734375 -4.1875 6.765625 -4.1875 C 6.890625 -4.1875 6.890625 -4.203125 6.953125 -4.390625 Z M 7.578125 -6.921875 "/>
</symbol>
<symbol overflow="visible" id="glyph0-2">
<path style="stroke:none;" d="M 7.609375 -6.046875 C 7.703125 -6.40625 7.71875 -6.5 8.4375 -6.5 C 8.703125 -6.5 8.78125 -6.5 8.78125 -6.703125 C 8.78125 -6.8125 8.671875 -6.8125 8.640625 -6.8125 C 8.359375 -6.8125 7.640625 -6.78125 7.359375 -6.78125 C 7.078125 -6.78125 6.375 -6.8125 6.078125 -6.8125 C 6 -6.8125 5.890625 -6.8125 5.890625 -6.609375 C 5.890625 -6.5 5.984375 -6.5 6.171875 -6.5 C 6.1875 -6.5 6.375 -6.5 6.546875 -6.484375 C 6.734375 -6.453125 6.8125 -6.453125 6.8125 -6.3125 C 6.8125 -6.28125 6.8125 -6.265625 6.78125 -6.125 L 6.1875 -3.703125 L 3.140625 -3.703125 L 3.734375 -6.046875 C 3.8125 -6.40625 3.84375 -6.5 4.5625 -6.5 C 4.828125 -6.5 4.90625 -6.5 4.90625 -6.703125 C 4.90625 -6.8125 4.796875 -6.8125 4.765625 -6.8125 C 4.484375 -6.8125 3.765625 -6.78125 3.484375 -6.78125 C 3.203125 -6.78125 2.5 -6.8125 2.203125 -6.8125 C 2.125 -6.8125 2.015625 -6.8125 2.015625 -6.609375 C 2.015625 -6.5 2.109375 -6.5 2.296875 -6.5 C 2.3125 -6.5 2.5 -6.5 2.671875 -6.484375 C 2.84375 -6.453125 2.9375 -6.453125 2.9375 -6.3125 C 2.9375 -6.28125 2.9375 -6.25 2.90625 -6.125 L 1.5625 -0.78125 C 1.46875 -0.390625 1.453125 -0.3125 0.65625 -0.3125 C 0.484375 -0.3125 0.390625 -0.3125 0.390625 -0.109375 C 0.390625 0 0.515625 0 0.53125 0 C 0.8125 0 1.515625 -0.03125 1.796875 -0.03125 C 2 -0.03125 2.21875 -0.015625 2.4375 -0.015625 C 2.65625 -0.015625 2.875 0 3.078125 0 C 3.15625 0 3.28125 0 3.28125 -0.203125 C 3.28125 -0.3125 3.1875 -0.3125 3 -0.3125 C 2.625 -0.3125 2.359375 -0.3125 2.359375 -0.484375 C 2.359375 -0.546875 2.375 -0.59375 2.375 -0.65625 L 3.0625 -3.390625 L 6.09375 -3.390625 C 5.6875 -1.734375 5.453125 -0.78125 5.40625 -0.640625 C 5.3125 -0.3125 5.125 -0.3125 4.5 -0.3125 C 4.359375 -0.3125 4.265625 -0.3125 4.265625 -0.109375 C 4.265625 0 4.390625 0 4.40625 0 C 4.6875 0 5.390625 -0.03125 5.671875 -0.03125 C 5.875 -0.03125 6.09375 -0.015625 6.3125 -0.015625 C 6.53125 -0.015625 6.75 0 6.953125 0 C 7.03125 0 7.15625 0 7.15625 -0.203125 C 7.15625 -0.3125 7.0625 -0.3125 6.875 -0.3125 C 6.515625 -0.3125 6.234375 -0.3125 6.234375 -0.484375 C 6.234375 -0.546875 6.25 -0.59375 6.265625 -0.65625 Z M 7.609375 -6.046875 "/>
</symbol>
<symbol overflow="visible" id="glyph0-3">
<path style="stroke:none;" d="M 4.75 -2.359375 C 4.75 -3.921875 3.828125 -4.40625 3.09375 -4.40625 C 1.71875 -4.40625 0.40625 -2.984375 0.40625 -1.578125 C 0.40625 -0.640625 1 0.109375 2.03125 0.109375 C 2.65625 0.109375 3.375 -0.125 4.125 -0.734375 C 4.25 -0.203125 4.578125 0.109375 5.03125 0.109375 C 5.5625 0.109375 5.875 -0.4375 5.875 -0.59375 C 5.875 -0.671875 5.8125 -0.703125 5.75 -0.703125 C 5.6875 -0.703125 5.65625 -0.671875 5.625 -0.59375 C 5.4375 -0.109375 5.078125 -0.109375 5.0625 -0.109375 C 4.75 -0.109375 4.75 -0.890625 4.75 -1.125 C 4.75 -1.328125 4.75 -1.359375 4.859375 -1.46875 C 5.796875 -2.65625 6 -3.8125 6 -3.8125 C 6 -3.84375 5.984375 -3.921875 5.875 -3.921875 C 5.78125 -3.921875 5.78125 -3.890625 5.734375 -3.703125 C 5.546875 -3.078125 5.21875 -2.328125 4.75 -1.734375 Z M 4.09375 -0.984375 C 3.203125 -0.21875 2.4375 -0.109375 2.046875 -0.109375 C 1.453125 -0.109375 1.140625 -0.5625 1.140625 -1.203125 C 1.140625 -1.6875 1.40625 -2.765625 1.71875 -3.265625 C 2.1875 -4 2.734375 -4.1875 3.078125 -4.1875 C 4.0625 -4.1875 4.0625 -2.875 4.0625 -2.109375 C 4.0625 -1.734375 4.0625 -1.15625 4.09375 -0.984375 Z M 4.09375 -0.984375 "/>
</symbol>
<symbol overflow="visible" id="glyph0-4">
<path style="stroke:none;" d="M 1.6875 1.6875 C 1.65625 1.828125 1.640625 1.84375 1.640625 1.890625 C 1.640625 2.109375 1.828125 2.171875 1.9375 2.171875 C 1.984375 2.171875 2.203125 2.140625 2.296875 1.90625 C 2.328125 1.828125 2.375 1.5 2.65625 0.09375 C 2.734375 0.09375 2.8125 0.109375 2.984375 0.109375 C 4.640625 0.109375 6.171875 -1.453125 6.171875 -3.03125 C 6.171875 -3.8125 5.78125 -4.40625 5.03125 -4.40625 C 3.59375 -4.40625 2.984375 -2.46875 2.390625 -0.53125 C 1.3125 -0.734375 0.75 -1.28125 0.75 -2 C 0.75 -2.28125 0.984375 -3.375 1.578125 -4.0625 C 1.671875 -4.15625 1.671875 -4.171875 1.671875 -4.203125 C 1.671875 -4.234375 1.640625 -4.296875 1.546875 -4.296875 C 1.265625 -4.296875 0.5 -2.84375 0.5 -1.890625 C 0.5 -0.953125 1.15625 -0.234375 2.21875 0.015625 Z M 3.078125 -0.46875 C 2.984375 -0.46875 2.96875 -0.46875 2.890625 -0.484375 C 2.765625 -0.484375 2.765625 -0.484375 2.765625 -0.515625 C 2.765625 -0.53125 2.9375 -1.453125 2.953125 -1.59375 C 3.265625 -2.875 4.046875 -3.828125 4.9375 -3.828125 C 5.625 -3.828125 5.890625 -3.296875 5.890625 -2.8125 C 5.890625 -1.6875 4.609375 -0.46875 3.078125 -0.46875 Z M 3.078125 -0.46875 "/>
</symbol>
<symbol overflow="visible" id="glyph1-0">
<path style="stroke:none;" d=""/>
</symbol>
<symbol overflow="visible" id="glyph1-1">
<path style="stroke:none;" d="M 5.1875 -1.578125 C 5.296875 -1.578125 5.46875 -1.578125 5.46875 -1.734375 C 5.46875 -1.921875 5.296875 -1.921875 5.1875 -1.921875 L 1.03125 -1.921875 C 0.921875 -1.921875 0.75 -1.921875 0.75 -1.75 C 0.75 -1.578125 0.90625 -1.578125 1.03125 -1.578125 Z M 5.1875 -1.578125 "/>
</symbol>
<symbol overflow="visible" id="glyph2-0">
<path style="stroke:none;" d=""/>
</symbol>
<symbol overflow="visible" id="glyph2-1">
<path style="stroke:none;" d="M 2.328125 -4.4375 C 2.328125 -4.625 2.328125 -4.625 2.125 -4.625 C 1.671875 -4.1875 1.046875 -4.1875 0.765625 -4.1875 L 0.765625 -3.9375 C 0.921875 -3.9375 1.390625 -3.9375 1.765625 -4.125 L 1.765625 -0.578125 C 1.765625 -0.34375 1.765625 -0.25 1.078125 -0.25 L 0.8125 -0.25 L 0.8125 0 C 0.9375 0 1.796875 -0.03125 2.046875 -0.03125 C 2.265625 -0.03125 3.140625 0 3.296875 0 L 3.296875 -0.25 L 3.03125 -0.25 C 2.328125 -0.25 2.328125 -0.34375 2.328125 -0.578125 Z M 2.328125 -4.4375 "/>
</symbol>
</g>
</defs>
<g id="surface1">
<g style="fill:rgb(0%,0%,0%);fill-opacity:1;">
  <use xlink:href="#glyph0-1" x="3.32048" y="20.28661"/>
</g>
<g style="fill:rgb(0%,0%,0%);fill-opacity:1;">
  <use xlink:href="#glyph0-2" x="59.3852" y="20.28661"/>
</g>
<g style="fill:rgb(0%,0%,0%);fill-opacity:1;">
  <use xlink:href="#glyph0-1" x="3.32048" y="76.98023"/>
</g>
<g style="fill:rgb(0%,0%,0%);fill-opacity:1;">
  <use xlink:href="#glyph0-2" x="59.3852" y="76.98023"/>
</g>
<path style="fill:none;stroke-width:0.3985;stroke-linecap:butt;stroke-linejoin:miter;stroke:rgb(0%,0%,0%);stroke-opacity:1;stroke-miterlimit:10;" d="M 0.00120125 -6.922008 L 0.00120125 -49.371226 " transform="matrix(1,0,0,-1,7.23708,16.88268)"/>
<path style="fill:none;stroke-width:0.3985;stroke-linecap:round;stroke-linejoin:round;stroke:rgb(0%,0%,0%);stroke-opacity:1;stroke-miterlimit:10;" d="M -2.070457 2.391826 C -1.695457 0.958233 -0.851707 0.278545 -0.000145 0.00120125 C -0.851707 -0.280049 -1.695457 -0.95583 -2.070457 -2.389424 " transform="matrix(0,1,1,0,7.23708,66.45327)"/>
<g style="fill:rgb(0%,0%,0%);fill-opacity:1;">
  <use xlink:href="#glyph0-3" x="10.75688" y="47.37423"/>
</g>
<path style="fill:none;stroke-width:0.3985;stroke-linecap:butt;stroke-linejoin:miter;stroke:rgb(0%,0%,0%);stroke-opacity:1;stroke-miterlimit:10;" d="M 7.434795 -56.695445 L 48.23167 -56.695445 " transform="matrix(1,0,0,-1,7.23708,16.88268)"/>
<path style="fill:none;stroke-width:0.3985;stroke-linecap:round;stroke-linejoin:round;stroke:rgb(0%,0%,0%);stroke-opacity:1;stroke-miterlimit:10;" d="M -2.07238 2.392706 C -1.693474 0.955206 -0.849724 0.279425 0.00183875 -0.001825 C -0.849724 -0.279169 -1.693474 -0.95495 -2.07238 -2.39245 " transform="matrix(1,0,0,-1,55.66613,73.5763)"/>
<g style="fill:rgb(0%,0%,0%);fill-opacity:1;">
  <use xlink:href="#glyph0-4" x="32.01078" y="68.11928"/>
</g>
<path style="fill:none;stroke-width:0.3985;stroke-linecap:butt;stroke-linejoin:miter;stroke:rgb(0%,0%,0%);stroke-opacity:1;stroke-miterlimit:10;" d="M 48.630108 -0.0001325 L 7.833233 -0.0001325 " transform="matrix(1,0,0,-1,7.23708,16.88268)"/>
<path style="fill:none;stroke-width:0.3985;stroke-linecap:round;stroke-linejoin:round;stroke:rgb(0%,0%,0%);stroke-opacity:1;stroke-miterlimit:10;" d="M -2.072583 2.390758 C -1.693676 0.957164 -0.849926 0.277476 0.00163625 0.0001325 C -0.849926 -0.277211 -1.693676 -0.956899 -2.072583 -2.390492 " transform="matrix(-1,0,0,1,14.87273,16.88268)"/>
<g style="fill:rgb(0%,0%,0%);fill-opacity:1;">
  <use xlink:href="#glyph0-4" x="26.66269" y="11.42566"/>
</g>
<g style="fill:rgb(0%,0%,0%);fill-opacity:1;">
  <use xlink:href="#glyph1-1" x="33.17992" y="7.8103"/>
</g>
<g style="fill:rgb(0%,0%,0%);fill-opacity:1;">
  <use xlink:href="#glyph2-1" x="39.4066" y="7.8103"/>
</g>
<path style="fill:none;stroke-width:0.3985;stroke-linecap:butt;stroke-linejoin:miter;stroke:rgb(0%,0%,0%);stroke-opacity:1;stroke-dasharray:2.98883,2.98883;stroke-miterlimit:10;" d="M 56.692608 -6.922008 L 56.692608 -49.371226 " transform="matrix(1,0,0,-1,7.23708,16.88268)"/>
<path style="fill:none;stroke-width:0.3985;stroke-linecap:round;stroke-linejoin:round;stroke:rgb(0%,0%,0%);stroke-opacity:1;stroke-miterlimit:10;" d="M -2.070457 2.389613 C -1.695457 0.956019 -0.851707 0.280238 -0.000145 -0.0010125 C -0.851707 -0.278356 -1.695457 -0.958044 -2.070457 -2.391637 " transform="matrix(0,1,1,0,63.9307,66.45327)"/>
<g style="fill:rgb(0%,0%,0%);fill-opacity:1;">
  <use xlink:href="#glyph0-4" x="67.45052" y="48.31572"/>
  <use xlink:href="#glyph0-3" x="73.966087" y="48.31572"/>
</g>
<g style="fill:rgb(0%,0%,0%);fill-opacity:1;">
  <use xlink:href="#glyph0-4" x="80.362101" y="48.31572"/>
</g>
<g style="fill:rgb(0%,0%,0%);fill-opacity:1;">
  <use xlink:href="#glyph1-1" x="86.89498" y="44.70036"/>
</g>
<g style="fill:rgb(0%,0%,0%);fill-opacity:1;">
  <use xlink:href="#glyph2-1" x="93.12166" y="44.70036"/>
</g>
</g>
</svg>
