<?xml version="1.0" encoding="UTF-8"?>
<svg xmlns="http://www.w3.org/2000/svg" xmlns:xlink="http://www.w3.org/1999/xlink" width="257.66pt" height="484.43pt" viewBox="0 0 257.66 484.43" version="1.1">
<defs>
<g>
<symbol overflow="visible" id="glyph0-0">
<path style="stroke:none;" d=""/>
</symbol>
<symbol overflow="visible" id="glyph0-1">
<path style="stroke:none;" d="M 4.671875 -3.703125 C 4.671875 -4.25 4.40625 -4.40625 4.234375 -4.40625 C 3.984375 -4.40625 3.734375 -4.140625 3.734375 -3.921875 C 3.734375 -3.796875 3.78125 -3.734375 3.890625 -3.625 C 4.109375 -3.421875 4.234375 -3.171875 4.234375 -2.8125 C 4.234375 -2.390625 3.625 -0.109375 2.46875 -0.109375 C 1.953125 -0.109375 1.71875 -0.453125 1.71875 -0.984375 C 1.71875 -1.53125 2 -2.265625 2.296875 -3.09375 C 2.375 -3.265625 2.421875 -3.40625 2.421875 -3.59375 C 2.421875 -4.03125 2.109375 -4.40625 1.609375 -4.40625 C 0.671875 -4.40625 0.296875 -2.953125 0.296875 -2.875 C 0.296875 -2.765625 0.390625 -2.765625 0.40625 -2.765625 C 0.515625 -2.765625 0.515625 -2.796875 0.5625 -2.953125 C 0.859375 -3.953125 1.28125 -4.1875 1.578125 -4.1875 C 1.65625 -4.1875 1.828125 -4.1875 1.828125 -3.875 C 1.828125 -3.625 1.71875 -3.34375 1.65625 -3.171875 C 1.21875 -2.015625 1.09375 -1.5625 1.09375 -1.125 C 1.09375 -0.046875 1.96875 0.109375 2.421875 0.109375 C 4.09375 0.109375 4.671875 -3.1875 4.671875 -3.703125 Z M 4.671875 -3.703125 "/>
</symbol>
<symbol overflow="visible" id="glyph0-2">
<path style="stroke:none;" d="M 3.328125 -3.015625 C 3.390625 -3.265625 3.625 -4.1875 4.3125 -4.1875 C 4.359375 -4.1875 4.609375 -4.1875 4.8125 -4.0625 C 4.53125 -4 4.34375 -3.765625 4.34375 -3.515625 C 4.34375 -3.359375 4.453125 -3.171875 4.71875 -3.171875 C 4.9375 -3.171875 5.25 -3.34375 5.25 -3.75 C 5.25 -4.265625 4.671875 -4.40625 4.328125 -4.40625 C 3.75 -4.40625 3.40625 -3.875 3.28125 -3.65625 C 3.03125 -4.3125 2.5 -4.40625 2.203125 -4.40625 C 1.171875 -4.40625 0.59375 -3.125 0.59375 -2.875 C 0.59375 -2.765625 0.703125 -2.765625 0.71875 -2.765625 C 0.796875 -2.765625 0.828125 -2.796875 0.84375 -2.875 C 1.1875 -3.9375 1.84375 -4.1875 2.1875 -4.1875 C 2.375 -4.1875 2.71875 -4.09375 2.71875 -3.515625 C 2.71875 -3.203125 2.546875 -2.546875 2.1875 -1.140625 C 2.03125 -0.53125 1.671875 -0.109375 1.234375 -0.109375 C 1.171875 -0.109375 0.953125 -0.109375 0.734375 -0.234375 C 0.984375 -0.296875 1.203125 -0.5 1.203125 -0.78125 C 1.203125 -1.046875 0.984375 -1.125 0.84375 -1.125 C 0.53125 -1.125 0.296875 -0.875 0.296875 -0.546875 C 0.296875 -0.09375 0.78125 0.109375 1.21875 0.109375 C 1.890625 0.109375 2.25 -0.59375 2.265625 -0.640625 C 2.390625 -0.28125 2.75 0.109375 3.34375 0.109375 C 4.375 0.109375 4.9375 -1.171875 4.9375 -1.421875 C 4.9375 -1.53125 4.859375 -1.53125 4.828125 -1.53125 C 4.734375 -1.53125 4.71875 -1.484375 4.6875 -1.421875 C 4.359375 -0.34375 3.6875 -0.109375 3.375 -0.109375 C 2.984375 -0.109375 2.828125 -0.421875 2.828125 -0.765625 C 2.828125 -0.984375 2.875 -1.203125 2.984375 -1.640625 Z M 3.328125 -3.015625 "/>
</symbol>
<symbol overflow="visible" id="glyph1-0">
<path style="stroke:none;" d=""/>
</symbol>
<symbol overflow="visible" id="glyph1-1">
<path style="stroke:none;" d="M 3.59375 -2.21875 C 3.59375 -2.984375 3.5 -3.546875 3.1875 -4.03125 C 2.96875 -4.34375 2.53125 -4.625 1.984375 -4.625 C 0.359375 -4.625 0.359375 -2.71875 0.359375 -2.21875 C 0.359375 -1.71875 0.359375 0.140625 1.984375 0.140625 C 3.59375 0.140625 3.59375 -1.71875 3.59375 -2.21875 Z M 1.984375 -0.0625 C 1.65625 -0.0625 1.234375 -0.25 1.09375 -0.8125 C 1 -1.21875 1 -1.796875 1 -2.3125 C 1 -2.828125 1 -3.359375 1.09375 -3.734375 C 1.25 -4.28125 1.6875 -4.4375 1.984375 -4.4375 C 2.359375 -4.4375 2.71875 -4.203125 2.84375 -3.796875 C 2.953125 -3.421875 2.96875 -2.921875 2.96875 -2.3125 C 2.96875 -1.796875 2.96875 -1.28125 2.875 -0.84375 C 2.734375 -0.203125 2.265625 -0.0625 1.984375 -0.0625 Z M 1.984375 -0.0625 "/>
</symbol>
<symbol overflow="visible" id="glyph1-2">
<path style="stroke:none;" d="M 2.328125 -4.4375 C 2.328125 -4.625 2.328125 -4.625 2.125 -4.625 C 1.671875 -4.1875 1.046875 -4.1875 0.765625 -4.1875 L 0.765625 -3.9375 C 0.921875 -3.9375 1.390625 -3.9375 1.765625 -4.125 L 1.765625 -0.578125 C 1.765625 -0.34375 1.765625 -0.25 1.078125 -0.25 L 0.8125 -0.25 L 0.8125 0 C 0.9375 0 1.796875 -0.03125 2.046875 -0.03125 C 2.265625 -0.03125 3.140625 0 3.296875 0 L 3.296875 -0.25 L 3.03125 -0.25 C 2.328125 -0.25 2.328125 -0.34375 2.328125 -0.578125 Z M 2.328125 -4.4375 "/>
</symbol>
<symbol overflow="visible" id="glyph1-3">
<path style="stroke:none;" d="M 3.515625 -1.265625 L 3.28125 -1.265625 C 3.265625 -1.109375 3.1875 -0.703125 3.09375 -0.640625 C 3.046875 -0.59375 2.515625 -0.59375 2.40625 -0.59375 L 1.125 -0.59375 C 1.859375 -1.234375 2.109375 -1.4375 2.515625 -1.765625 C 3.03125 -2.171875 3.515625 -2.609375 3.515625 -3.265625 C 3.515625 -4.109375 2.78125 -4.625 1.890625 -4.625 C 1.03125 -4.625 0.4375 -4.015625 0.4375 -3.375 C 0.4375 -3.03125 0.734375 -2.984375 0.8125 -2.984375 C 0.96875 -2.984375 1.171875 -3.109375 1.171875 -3.359375 C 1.171875 -3.484375 1.125 -3.734375 0.765625 -3.734375 C 0.984375 -4.21875 1.453125 -4.375 1.78125 -4.375 C 2.484375 -4.375 2.84375 -3.828125 2.84375 -3.265625 C 2.84375 -2.65625 2.40625 -2.1875 2.1875 -1.9375 L 0.515625 -0.265625 C 0.4375 -0.203125 0.4375 -0.1875 0.4375 0 L 3.3125 0 Z M 3.515625 -1.265625 "/>
</symbol>
<symbol overflow="visible" id="glyph2-0">
<path style="stroke:none;" d=""/>
</symbol>
<symbol overflow="visible" id="glyph2-1">
<path style="stroke:none;" d="M 1.90625 -0.53125 C 1.90625 -0.8125 1.671875 -1.0625 1.390625 -1.0625 C 1.09375 -1.0625 0.859375 -0.8125 0.859375 -0.53125 C 0.859375 -0.234375 1.09375 0 1.390625 0 C 1.671875 0 1.90625 -0.234375 1.90625 -0.53125 Z M 1.90625 -0.53125 "/>
</symbol>
<symbol overflow="visible" id="glyph3-0">
<path style="stroke:none;" d=""/>
</symbol>
<symbol overflow="visible" id="glyph3-1">
<path style="stroke:none;" d="M 0.84375 -0.4375 C 0.828125 -0.34375 0.78125 -0.171875 0.78125 -0.15625 C 0.78125 0 0.90625 0.0625 1.015625 0.0625 C 1.140625 0.0625 1.25 -0.015625 1.296875 -0.078125 C 1.328125 -0.140625 1.375 -0.375 1.421875 -0.515625 C 1.453125 -0.640625 1.53125 -0.96875 1.5625 -1.140625 C 1.609375 -1.296875 1.65625 -1.453125 1.6875 -1.609375 C 1.765625 -1.890625 1.78125 -1.953125 1.984375 -2.234375 C 2.171875 -2.515625 2.5 -2.875 3.03125 -2.875 C 3.421875 -2.875 3.4375 -2.515625 3.4375 -2.390625 C 3.4375 -1.96875 3.140625 -1.203125 3.03125 -0.90625 C 2.953125 -0.703125 2.921875 -0.640625 2.921875 -0.53125 C 2.921875 -0.15625 3.21875 0.0625 3.578125 0.0625 C 4.28125 0.0625 4.578125 -0.890625 4.578125 -1 C 4.578125 -1.09375 4.5 -1.09375 4.46875 -1.09375 C 4.375 -1.09375 4.375 -1.046875 4.34375 -0.96875 C 4.1875 -0.40625 3.875 -0.125 3.609375 -0.125 C 3.453125 -0.125 3.421875 -0.21875 3.421875 -0.375 C 3.421875 -0.53125 3.46875 -0.625 3.59375 -0.9375 C 3.671875 -1.15625 3.953125 -1.890625 3.953125 -2.28125 C 3.953125 -2.953125 3.421875 -3.078125 3.046875 -3.078125 C 2.46875 -3.078125 2.078125 -2.71875 1.875 -2.4375 C 1.828125 -2.921875 1.421875 -3.078125 1.125 -3.078125 C 0.828125 -3.078125 0.671875 -2.859375 0.578125 -2.703125 C 0.421875 -2.4375 0.328125 -2.046875 0.328125 -2 C 0.328125 -1.921875 0.421875 -1.921875 0.453125 -1.921875 C 0.546875 -1.921875 0.546875 -1.9375 0.59375 -2.125 C 0.703125 -2.53125 0.84375 -2.875 1.109375 -2.875 C 1.296875 -2.875 1.34375 -2.71875 1.34375 -2.53125 C 1.34375 -2.40625 1.28125 -2.140625 1.21875 -1.953125 C 1.171875 -1.765625 1.109375 -1.484375 1.078125 -1.328125 Z M 0.84375 -0.4375 "/>
</symbol>
<symbol overflow="visible" id="glyph4-0">
<path style="stroke:none;" d=""/>
</symbol>
<symbol overflow="visible" id="glyph4-1">
<path style="stroke:none;" d="M 5.1875 -1.578125 C 5.296875 -1.578125 5.46875 -1.578125 5.46875 -1.734375 C 5.46875 -1.921875 5.296875 -1.921875 5.1875 -1.921875 L 1.03125 -1.921875 C 0.921875 -1.921875 0.75 -1.921875 0.75 -1.75 C 0.75 -1.578125 0.90625 -1.578125 1.03125 -1.578125 Z M 5.1875 -1.578125 "/>
</symbol>
<symbol overflow="visible" id="glyph5-0">
<path style="stroke:none;" d=""/>
</symbol>
<symbol overflow="visible" id="glyph5-1">
<path style="stroke:none;" d="M 1.90625 -2.5 C 1.90625 -2.78125 1.671875 -3.015625 1.390625 -3.015625 C 1.09375 -3.015625 0.859375 -2.78125 0.859375 -2.5 C 0.859375 -2.203125 1.09375 -1.96875 1.390625 -1.96875 C 1.671875 -1.96875 1.90625 -2.203125 1.90625 -2.5 Z M 1.90625 -2.5 "/>
</symbol>
</g>
<clipPath id="clip1">
  <path d="M 213 43 L 257.660156 43 L 257.660156 102 L 213 102 Z M 213 43 "/>
</clipPath>
<clipPath id="clip2">
  <path d="M 213 156 L 257.660156 156 L 257.660156 215 L 213 215 Z M 213 156 "/>
</clipPath>
<clipPath id="clip3">
  <path d="M 213 383 L 257.660156 383 L 257.660156 442 L 213 442 Z M 213 383 "/>
</clipPath>
<clipPath id="clip4">
  <path d="M 99 439 L 158 439 L 158 484.429688 L 99 484.429688 Z M 99 439 "/>
</clipPath>
</defs>
<g id="surface1">
<path style="fill:none;stroke-width:0.99628;stroke-linecap:butt;stroke-linejoin:miter;stroke:rgb(0%,0%,0%);stroke-opacity:1;stroke-miterlimit:10;" d="M 14.945568 -0.0005225 C 14.945568 8.253384 8.254161 14.94479 0.000255 14.94479 C -8.253651 14.94479 -14.945057 8.253384 -14.945057 -0.0005225 C -14.945057 -8.254429 -8.253651 -14.945835 0.000255 -14.945835 C 8.254161 -14.945835 14.945568 -8.254429 14.945568 -0.0005225 Z M 14.945568 -0.0005225 " transform="matrix(1,0,0,-1,128.82787,15.44479)"/>
<g style="fill:rgb(0%,0%,0%);fill-opacity:1;">
  <use xlink:href="#glyph0-1" x="124.17858" y="16.84234"/>
</g>
<g style="fill:rgb(0%,0%,0%);fill-opacity:1;">
  <use xlink:href="#glyph1-1" x="129.00772" y="18.33672"/>
</g>
<g style="fill:rgb(0%,0%,0%);fill-opacity:1;">
  <use xlink:href="#glyph2-1" x="127.44306" y="298.44473"/>
</g>
<g style="fill:rgb(0%,0%,0%);fill-opacity:1;">
  <use xlink:href="#glyph2-1" x="127.44306" y="302.42979"/>
</g>
<g style="fill:rgb(0%,0%,0%);fill-opacity:1;">
  <use xlink:href="#glyph2-1" x="127.44306" y="306.41485"/>
</g>
<path style="fill:none;stroke-width:0.99628;stroke-linecap:butt;stroke-linejoin:miter;stroke:rgb(0%,0%,0%);stroke-opacity:1;stroke-miterlimit:10;" d="M 15.07838 -340.160679 C 15.07838 -331.83646 8.32838 -325.08646 0.000255 -325.08646 C -8.32787 -325.08646 -15.07787 -331.83646 -15.07787 -340.160679 C -15.07787 -348.488804 -8.32787 -355.238804 0.000255 -355.238804 C 8.32838 -355.238804 15.07838 -348.488804 15.07838 -340.160679 Z M 15.07838 -340.160679 " transform="matrix(1,0,0,-1,128.82787,15.44479)"/>
<g style="fill:rgb(0%,0%,0%);fill-opacity:1;">
  <use xlink:href="#glyph0-1" x="118.60274" y="356.58894"/>
</g>
<g style="fill:rgb(0%,0%,0%);fill-opacity:1;">
  <use xlink:href="#glyph3-1" x="123.43188" y="358.08332"/>
</g>
<g style="fill:rgb(0%,0%,0%);fill-opacity:1;">
  <use xlink:href="#glyph4-1" x="128.35674" y="358.08332"/>
</g>
<g style="fill:rgb(0%,0%,0%);fill-opacity:1;">
  <use xlink:href="#glyph1-2" x="134.58342" y="358.08332"/>
</g>
<path style="fill:none;stroke-width:0.99628;stroke-linecap:butt;stroke-linejoin:miter;stroke:rgb(77.598572%,22.698975%,26.699829%);stroke-opacity:1;stroke-miterlimit:10;" d="M -98.441151 -56.691929 C -98.441151 -48.441929 -105.132557 -41.750522 -113.386464 -41.750522 C -121.64037 -41.750522 -128.331776 -48.441929 -128.331776 -56.691929 C -128.331776 -64.945835 -121.64037 -71.637241 -113.386464 -71.637241 C -105.132557 -71.637241 -98.441151 -64.945835 -98.441151 -56.691929 Z M -98.441151 -56.691929 " transform="matrix(1,0,0,-1,128.82787,15.44479)"/>
<g style="fill:rgb(77.598572%,22.698975%,26.699829%);fill-opacity:1;">
  <use xlink:href="#glyph0-2" x="10.35894" y="73.53596"/>
</g>
<g style="fill:rgb(77.598572%,22.698975%,26.699829%);fill-opacity:1;">
  <use xlink:href="#glyph1-2" x="16.05287" y="75.03034"/>
</g>
<g clip-path="url(#clip1)" clip-rule="nonzero">
<path style="fill:none;stroke-width:0.99628;stroke-linecap:butt;stroke-linejoin:miter;stroke:rgb(77.598572%,22.698975%,26.699829%);stroke-opacity:1;stroke-miterlimit:10;" d="M 128.332286 -56.691929 C 128.332286 -48.441929 121.64088 -41.750522 113.386974 -41.750522 C 105.133068 -41.750522 98.441661 -48.441929 98.441661 -56.691929 C 98.441661 -64.945835 105.133068 -71.637241 113.386974 -71.637241 C 121.64088 -71.637241 128.332286 -64.945835 128.332286 -56.691929 Z M 128.332286 -56.691929 " transform="matrix(1,0,0,-1,128.82787,15.44479)"/>
</g>
<path style="fill:none;stroke-width:0.398484;stroke-linecap:butt;stroke-linejoin:miter;stroke:rgb(77.598572%,22.698975%,26.699829%);stroke-opacity:1;stroke-miterlimit:10;" d="M 56.827283 62.242434 L 66.991345 62.242434 " transform="matrix(1,0,0,-1,180.30553,131.09009)"/>
<g style="fill:rgb(77.598572%,22.698975%,26.699829%);fill-opacity:1;">
  <use xlink:href="#glyph0-2" x="237.1334" y="74.53218"/>
</g>
<g style="fill:rgb(77.598572%,22.698975%,26.699829%);fill-opacity:1;">
  <use xlink:href="#glyph1-2" x="242.82733" y="76.02656"/>
</g>
<path style="fill:none;stroke-width:0.99628;stroke-linecap:butt;stroke-linejoin:miter;stroke:rgb(0%,0%,0%);stroke-opacity:1;stroke-miterlimit:10;" d="M 14.945568 -113.387241 C 14.945568 -105.133335 8.254161 -98.441929 0.000255 -98.441929 C -8.253651 -98.441929 -14.945057 -105.133335 -14.945057 -113.387241 C -14.945057 -121.641147 -8.253651 -128.332554 0.000255 -128.332554 C 8.254161 -128.332554 14.945568 -121.641147 14.945568 -113.387241 Z M 14.945568 -113.387241 " transform="matrix(1,0,0,-1,128.82787,15.44479)"/>
<g style="fill:rgb(0%,0%,0%);fill-opacity:1;">
  <use xlink:href="#glyph0-1" x="124.17858" y="130.22958"/>
</g>
<g style="fill:rgb(0%,0%,0%);fill-opacity:1;">
  <use xlink:href="#glyph1-2" x="129.00772" y="131.72396"/>
</g>
<path style="fill:none;stroke-width:0.99628;stroke-linecap:butt;stroke-linejoin:miter;stroke:rgb(0%,0%,0%);stroke-opacity:1;stroke-miterlimit:10;" d="M 71.636974 -56.691929 C 71.636974 -48.441929 64.945568 -41.750522 56.695568 -41.750522 C 48.441661 -41.750522 41.750255 -48.441929 41.750255 -56.691929 C 41.750255 -64.945835 48.441661 -71.637241 56.695568 -71.637241 C 64.945568 -71.637241 71.636974 -64.945835 71.636974 -56.691929 Z M 71.636974 -56.691929 " transform="matrix(1,0,0,-1,128.82787,15.44479)"/>
<path style="fill:none;stroke-width:0.99628;stroke-linecap:butt;stroke-linejoin:miter;stroke:rgb(0%,0%,0%);stroke-opacity:1;stroke-miterlimit:10;" d="M -41.749745 -56.691929 C -41.749745 -48.441929 -48.441151 -41.750522 -56.695057 -41.750522 C -64.948964 -41.750522 -71.636464 -48.441929 -71.636464 -56.691929 C -71.636464 -64.945835 -64.948964 -71.637241 -56.695057 -71.637241 C -48.441151 -71.637241 -41.749745 -64.945835 -41.749745 -56.691929 Z M -41.749745 -56.691929 " transform="matrix(1,0,0,-1,128.82787,15.44479)"/>
<g style="fill:rgb(0%,0%,0%);fill-opacity:1;">
  <use xlink:href="#glyph5-1" x="122.18609" y="74.35234"/>
</g>
<g style="fill:rgb(0%,0%,0%);fill-opacity:1;">
  <use xlink:href="#glyph5-1" x="126.59954" y="74.35234"/>
</g>
<g style="fill:rgb(0%,0%,0%);fill-opacity:1;">
  <use xlink:href="#glyph5-1" x="131.022952" y="74.35234"/>
</g>
<path style="fill:none;stroke-width:0.3985;stroke-linecap:butt;stroke-linejoin:miter;stroke:rgb(0%,0%,0%);stroke-opacity:1;stroke-miterlimit:10;" d="M -98.874745 -51.410679 C -88.73412 -47.719272 -81.343495 -47.719272 -74.573964 -50.184116 " transform="matrix(1,0,0,-1,128.82787,15.44479)"/>
<path style=" stroke:none;fill-rule:nonzero;fill:rgb(0%,0%,0%);fill-opacity:1;" d="M 57.625 66.855469 C 56.691406 66.304688 55.273438 65.152344 54.390625 64.089844 L 53.367188 66.898438 C 54.730469 66.652344 56.558594 66.679688 57.625 66.855469 "/>
<path style="fill:none;stroke-width:0.3985;stroke-linecap:butt;stroke-linejoin:miter;stroke:rgb(0%,0%,0%);stroke-opacity:1;stroke-miterlimit:10;" d="M -71.20287 -61.977085 C -81.343495 -65.664585 -88.73412 -65.664585 -95.507557 -63.203647 " transform="matrix(1,0,0,-1,128.82787,15.44479)"/>
<path style=" stroke:none;fill-rule:nonzero;fill:rgb(0%,0%,0%);fill-opacity:1;" d="M 29.953125 77.421875 C 30.882812 77.972656 32.300781 79.121094 33.183594 80.1875 L 34.207031 77.378906 C 32.84375 77.625 31.019531 77.597656 29.953125 77.421875 "/>
<path style="fill:none;stroke-width:0.3985;stroke-linecap:butt;stroke-linejoin:miter;stroke:rgb(0%,0%,0%);stroke-opacity:1;stroke-miterlimit:10;" d="M -42.183339 -51.410679 C -32.042714 -47.719272 -24.652089 -47.719272 -17.882557 -50.184116 " transform="matrix(1,0,0,-1,128.82787,15.44479)"/>
<path style=" stroke:none;fill-rule:nonzero;fill:rgb(0%,0%,0%);fill-opacity:1;" d="M 114.316406 66.855469 C 113.386719 66.304688 111.96875 65.152344 111.082031 64.089844 L 110.0625 66.898438 C 111.421875 66.652344 113.25 66.679688 114.316406 66.855469 "/>
<path style="fill:none;stroke-width:0.3985;stroke-linecap:butt;stroke-linejoin:miter;stroke:rgb(0%,0%,0%);stroke-opacity:1;stroke-miterlimit:10;" d="M -14.511464 -61.977085 C -24.652089 -65.664585 -32.042714 -65.664585 -38.812245 -63.203647 " transform="matrix(1,0,0,-1,128.82787,15.44479)"/>
<path style=" stroke:none;fill-rule:nonzero;fill:rgb(0%,0%,0%);fill-opacity:1;" d="M 86.644531 77.421875 C 87.574219 77.972656 88.992188 79.121094 89.878906 80.1875 L 90.902344 77.378906 C 89.539062 77.625 87.710938 77.597656 86.644531 77.421875 "/>
<path style="fill:none;stroke-width:0.3985;stroke-linecap:butt;stroke-linejoin:miter;stroke:rgb(0%,0%,0%);stroke-opacity:1;stroke-miterlimit:10;" d="M 14.511974 -51.410679 C 24.652599 -47.719272 32.043224 -47.719272 38.812755 -50.184116 " transform="matrix(1,0,0,-1,128.82787,15.44479)"/>
<path style=" stroke:none;fill-rule:nonzero;fill:rgb(0%,0%,0%);fill-opacity:1;" d="M 171.011719 66.855469 C 170.082031 66.304688 168.664062 65.152344 167.777344 64.089844 L 166.753906 66.898438 C 168.117188 66.652344 169.945312 66.679688 171.011719 66.855469 "/>
<path style="fill:none;stroke-width:0.3985;stroke-linecap:butt;stroke-linejoin:miter;stroke:rgb(0%,0%,0%);stroke-opacity:1;stroke-miterlimit:10;" d="M 42.183849 -61.977085 C 32.043224 -65.664585 24.652599 -65.664585 17.879161 -63.203647 " transform="matrix(1,0,0,-1,128.82787,15.44479)"/>
<path style=" stroke:none;fill-rule:nonzero;fill:rgb(0%,0%,0%);fill-opacity:1;" d="M 143.339844 77.421875 C 144.269531 77.972656 145.6875 79.121094 146.570312 80.1875 L 147.59375 77.378906 C 146.230469 77.625 144.40625 77.597656 143.339844 77.421875 "/>
<path style="fill:none;stroke-width:0.3985;stroke-linecap:butt;stroke-linejoin:miter;stroke:rgb(0%,0%,0%);stroke-opacity:1;stroke-miterlimit:10;" d="M 71.20338 -51.410679 C 81.344005 -47.719272 88.73463 -47.719272 95.508068 -50.184116 " transform="matrix(1,0,0,-1,128.82787,15.44479)"/>
<path style=" stroke:none;fill-rule:nonzero;fill:rgb(0%,0%,0%);fill-opacity:1;" d="M 227.703125 66.855469 C 226.773438 66.304688 225.355469 65.152344 224.472656 64.089844 L 223.449219 66.898438 C 224.8125 66.652344 226.636719 66.679688 227.703125 66.855469 "/>
<path style="fill:none;stroke-width:0.3985;stroke-linecap:butt;stroke-linejoin:miter;stroke:rgb(0%,0%,0%);stroke-opacity:1;stroke-miterlimit:10;" d="M 98.875255 -61.977085 C 88.73463 -65.664585 81.344005 -65.664585 74.574474 -63.203647 " transform="matrix(1,0,0,-1,128.82787,15.44479)"/>
<path style=" stroke:none;fill-rule:nonzero;fill:rgb(0%,0%,0%);fill-opacity:1;" d="M 200.03125 77.421875 C 200.960938 77.972656 202.378906 79.121094 203.265625 80.1875 L 204.289062 77.378906 C 202.925781 77.625 201.097656 77.597656 200.03125 77.421875 "/>
<path style="fill:none;stroke-width:0.3985;stroke-linecap:butt;stroke-linejoin:miter;stroke:rgb(0%,0%,0%);stroke-opacity:1;stroke-miterlimit:10;" d="M -99.57787 -63.598179 L -17.019276 -104.879429 " transform="matrix(1,0,0,-1,128.82787,15.44479)"/>
<path style=" stroke:none;fill-rule:nonzero;fill:rgb(0%,0%,0%);fill-opacity:1;" d="M 115.015625 121.925781 C 114.15625 121.273438 112.878906 119.964844 112.121094 118.808594 L 110.785156 121.480469 C 112.164062 121.390625 113.976562 121.628906 115.015625 121.925781 "/>
<path style="fill:none;stroke-width:0.3985;stroke-linecap:butt;stroke-linejoin:miter;stroke:rgb(0%,0%,0%);stroke-opacity:1;stroke-miterlimit:10;" d="M 99.574474 -63.598179 L 17.019786 -104.879429 " transform="matrix(1,0,0,-1,128.82787,15.44479)"/>
<path style=" stroke:none;fill-rule:nonzero;fill:rgb(0%,0%,0%);fill-opacity:1;" d="M 142.640625 121.925781 C 143.679688 121.628906 145.488281 121.390625 146.871094 121.480469 L 145.535156 118.808594 C 144.777344 119.964844 143.5 121.273438 142.640625 121.925781 "/>
<path style="fill:none;stroke-width:0.99628;stroke-linecap:butt;stroke-linejoin:miter;stroke:rgb(77.598572%,22.698975%,26.699829%);stroke-opacity:1;stroke-miterlimit:10;" d="M -98.441151 -170.082554 C -98.441151 -161.828647 -105.132557 -155.137241 -113.386464 -155.137241 C -121.64037 -155.137241 -128.331776 -161.828647 -128.331776 -170.082554 C -128.331776 -178.332554 -121.64037 -185.02396 -113.386464 -185.02396 C -105.132557 -185.02396 -98.441151 -178.332554 -98.441151 -170.082554 Z M -98.441151 -170.082554 " transform="matrix(1,0,0,-1,128.82787,15.44479)"/>
<g style="fill:rgb(77.598572%,22.698975%,26.699829%);fill-opacity:1;">
  <use xlink:href="#glyph0-2" x="10.35894" y="186.9232"/>
</g>
<g style="fill:rgb(77.598572%,22.698975%,26.699829%);fill-opacity:1;">
  <use xlink:href="#glyph1-3" x="16.05287" y="188.41758"/>
</g>
<g clip-path="url(#clip2)" clip-rule="nonzero">
<path style="fill:none;stroke-width:0.99628;stroke-linecap:butt;stroke-linejoin:miter;stroke:rgb(77.598572%,22.698975%,26.699829%);stroke-opacity:1;stroke-miterlimit:10;" d="M 128.332286 -170.082554 C 128.332286 -161.828647 121.64088 -155.137241 113.386974 -155.137241 C 105.133068 -155.137241 98.441661 -161.828647 98.441661 -170.082554 C 98.441661 -178.332554 105.133068 -185.02396 113.386974 -185.02396 C 121.64088 -185.02396 128.332286 -178.332554 128.332286 -170.082554 Z M 128.332286 -170.082554 " transform="matrix(1,0,0,-1,128.82787,15.44479)"/>
</g>
<path style="fill:none;stroke-width:0.398484;stroke-linecap:butt;stroke-linejoin:miter;stroke:rgb(77.598572%,22.698975%,26.699829%);stroke-opacity:1;stroke-miterlimit:10;" d="M 56.827283 62.242945 L 66.991345 62.242945 " transform="matrix(1,0,0,-1,180.30553,244.47732)"/>
<g style="fill:rgb(77.598572%,22.698975%,26.699829%);fill-opacity:1;">
  <use xlink:href="#glyph0-2" x="237.1334" y="187.91941"/>
</g>
<g style="fill:rgb(77.598572%,22.698975%,26.699829%);fill-opacity:1;">
  <use xlink:href="#glyph1-3" x="242.82733" y="189.41379"/>
</g>
<path style="fill:none;stroke-width:0.99628;stroke-linecap:butt;stroke-linejoin:miter;stroke:rgb(0%,0%,0%);stroke-opacity:1;stroke-miterlimit:10;" d="M 14.945568 -226.77396 C 14.945568 -218.520054 8.254161 -211.828647 0.000255 -211.828647 C -8.253651 -211.828647 -14.945057 -218.520054 -14.945057 -226.77396 C -14.945057 -235.027866 -8.253651 -241.719272 0.000255 -241.719272 C 8.254161 -241.719272 14.945568 -235.027866 14.945568 -226.77396 Z M 14.945568 -226.77396 " transform="matrix(1,0,0,-1,128.82787,15.44479)"/>
<g style="fill:rgb(0%,0%,0%);fill-opacity:1;">
  <use xlink:href="#glyph0-1" x="124.17858" y="243.61682"/>
</g>
<g style="fill:rgb(0%,0%,0%);fill-opacity:1;">
  <use xlink:href="#glyph1-3" x="129.00772" y="245.1112"/>
</g>
<path style="fill:none;stroke-width:0.99628;stroke-linecap:butt;stroke-linejoin:miter;stroke:rgb(0%,0%,0%);stroke-opacity:1;stroke-miterlimit:10;" d="M 71.636974 -170.082554 C 71.636974 -161.828647 64.945568 -155.137241 56.695568 -155.137241 C 48.441661 -155.137241 41.750255 -161.828647 41.750255 -170.082554 C 41.750255 -178.332554 48.441661 -185.02396 56.695568 -185.02396 C 64.945568 -185.02396 71.636974 -178.332554 71.636974 -170.082554 Z M 71.636974 -170.082554 " transform="matrix(1,0,0,-1,128.82787,15.44479)"/>
<path style="fill:none;stroke-width:0.99628;stroke-linecap:butt;stroke-linejoin:miter;stroke:rgb(0%,0%,0%);stroke-opacity:1;stroke-miterlimit:10;" d="M -41.749745 -170.082554 C -41.749745 -161.828647 -48.441151 -155.137241 -56.695057 -155.137241 C -64.948964 -155.137241 -71.636464 -161.828647 -71.636464 -170.082554 C -71.636464 -178.332554 -64.948964 -185.02396 -56.695057 -185.02396 C -48.441151 -185.02396 -41.749745 -178.332554 -41.749745 -170.082554 Z M -41.749745 -170.082554 " transform="matrix(1,0,0,-1,128.82787,15.44479)"/>
<g style="fill:rgb(0%,0%,0%);fill-opacity:1;">
  <use xlink:href="#glyph5-1" x="122.18609" y="187.73957"/>
</g>
<g style="fill:rgb(0%,0%,0%);fill-opacity:1;">
  <use xlink:href="#glyph5-1" x="126.59954" y="187.73957"/>
</g>
<g style="fill:rgb(0%,0%,0%);fill-opacity:1;">
  <use xlink:href="#glyph5-1" x="131.022952" y="187.73957"/>
</g>
<path style="fill:none;stroke-width:0.3985;stroke-linecap:butt;stroke-linejoin:miter;stroke:rgb(0%,0%,0%);stroke-opacity:1;stroke-miterlimit:10;" d="M -98.874745 -164.797397 C -88.73412 -161.109897 -81.343495 -161.109897 -74.573964 -163.570835 " transform="matrix(1,0,0,-1,128.82787,15.44479)"/>
<path style=" stroke:none;fill-rule:nonzero;fill:rgb(0%,0%,0%);fill-opacity:1;" d="M 57.625 180.242188 C 56.691406 179.691406 55.273438 178.542969 54.390625 177.476562 L 53.367188 180.285156 C 54.730469 180.039062 56.558594 180.066406 57.625 180.242188 "/>
<path style="fill:none;stroke-width:0.3985;stroke-linecap:butt;stroke-linejoin:miter;stroke:rgb(0%,0%,0%);stroke-opacity:1;stroke-miterlimit:10;" d="M -71.20287 -175.363804 C -81.343495 -179.05521 -88.73412 -179.05521 -95.507557 -176.590366 " transform="matrix(1,0,0,-1,128.82787,15.44479)"/>
<path style=" stroke:none;fill-rule:nonzero;fill:rgb(0%,0%,0%);fill-opacity:1;" d="M 29.953125 190.808594 C 30.882812 191.359375 32.300781 192.511719 33.183594 193.574219 L 34.207031 190.765625 C 32.84375 191.011719 31.019531 190.984375 29.953125 190.808594 "/>
<path style="fill:none;stroke-width:0.3985;stroke-linecap:butt;stroke-linejoin:miter;stroke:rgb(0%,0%,0%);stroke-opacity:1;stroke-miterlimit:10;" d="M -42.183339 -164.797397 C -32.042714 -161.109897 -24.652089 -161.109897 -17.882557 -163.570835 " transform="matrix(1,0,0,-1,128.82787,15.44479)"/>
<path style=" stroke:none;fill-rule:nonzero;fill:rgb(0%,0%,0%);fill-opacity:1;" d="M 114.316406 180.242188 C 113.386719 179.691406 111.96875 178.542969 111.082031 177.476562 L 110.0625 180.285156 C 111.421875 180.039062 113.25 180.066406 114.316406 180.242188 "/>
<path style="fill:none;stroke-width:0.3985;stroke-linecap:butt;stroke-linejoin:miter;stroke:rgb(0%,0%,0%);stroke-opacity:1;stroke-miterlimit:10;" d="M -14.511464 -175.363804 C -24.652089 -179.05521 -32.042714 -179.05521 -38.812245 -176.590366 " transform="matrix(1,0,0,-1,128.82787,15.44479)"/>
<path style=" stroke:none;fill-rule:nonzero;fill:rgb(0%,0%,0%);fill-opacity:1;" d="M 86.644531 190.808594 C 87.574219 191.359375 88.992188 192.511719 89.878906 193.574219 L 90.902344 190.765625 C 89.539062 191.011719 87.710938 190.984375 86.644531 190.808594 "/>
<path style="fill:none;stroke-width:0.3985;stroke-linecap:butt;stroke-linejoin:miter;stroke:rgb(0%,0%,0%);stroke-opacity:1;stroke-miterlimit:10;" d="M 14.511974 -164.797397 C 24.652599 -161.109897 32.043224 -161.109897 38.812755 -163.570835 " transform="matrix(1,0,0,-1,128.82787,15.44479)"/>
<path style=" stroke:none;fill-rule:nonzero;fill:rgb(0%,0%,0%);fill-opacity:1;" d="M 171.011719 180.242188 C 170.082031 179.691406 168.664062 178.542969 167.777344 177.476562 L 166.753906 180.285156 C 168.117188 180.039062 169.945312 180.066406 171.011719 180.242188 "/>
<path style="fill:none;stroke-width:0.3985;stroke-linecap:butt;stroke-linejoin:miter;stroke:rgb(0%,0%,0%);stroke-opacity:1;stroke-miterlimit:10;" d="M 42.183849 -175.363804 C 32.043224 -179.05521 24.652599 -179.05521 17.879161 -176.590366 " transform="matrix(1,0,0,-1,128.82787,15.44479)"/>
<path style=" stroke:none;fill-rule:nonzero;fill:rgb(0%,0%,0%);fill-opacity:1;" d="M 143.339844 190.808594 C 144.269531 191.359375 145.6875 192.511719 146.570312 193.574219 L 147.59375 190.765625 C 146.230469 191.011719 144.40625 190.984375 143.339844 190.808594 "/>
<path style="fill:none;stroke-width:0.3985;stroke-linecap:butt;stroke-linejoin:miter;stroke:rgb(0%,0%,0%);stroke-opacity:1;stroke-miterlimit:10;" d="M 71.20338 -164.797397 C 81.344005 -161.109897 88.73463 -161.109897 95.508068 -163.570835 " transform="matrix(1,0,0,-1,128.82787,15.44479)"/>
<path style=" stroke:none;fill-rule:nonzero;fill:rgb(0%,0%,0%);fill-opacity:1;" d="M 227.703125 180.242188 C 226.773438 179.691406 225.355469 178.542969 224.472656 177.476562 L 223.449219 180.285156 C 224.8125 180.039062 226.636719 180.066406 227.703125 180.242188 "/>
<path style="fill:none;stroke-width:0.3985;stroke-linecap:butt;stroke-linejoin:miter;stroke:rgb(0%,0%,0%);stroke-opacity:1;stroke-miterlimit:10;" d="M 98.875255 -175.363804 C 88.73463 -179.05521 81.344005 -179.05521 74.574474 -176.590366 " transform="matrix(1,0,0,-1,128.82787,15.44479)"/>
<path style=" stroke:none;fill-rule:nonzero;fill:rgb(0%,0%,0%);fill-opacity:1;" d="M 200.03125 190.808594 C 200.960938 191.359375 202.378906 192.511719 203.265625 193.574219 L 204.289062 190.765625 C 202.925781 191.011719 201.097656 190.984375 200.03125 190.808594 "/>
<path style="fill:none;stroke-width:0.3985;stroke-linecap:butt;stroke-linejoin:miter;stroke:rgb(0%,0%,0%);stroke-opacity:1;stroke-miterlimit:10;" d="M -99.57787 -176.984897 L -17.019276 -218.266147 " transform="matrix(1,0,0,-1,128.82787,15.44479)"/>
<path style=" stroke:none;fill-rule:nonzero;fill:rgb(0%,0%,0%);fill-opacity:1;" d="M 115.015625 235.3125 C 114.15625 234.660156 112.878906 233.355469 112.121094 232.195312 L 110.785156 234.867188 C 112.164062 234.777344 113.976562 235.015625 115.015625 235.3125 "/>
<path style="fill:none;stroke-width:0.3985;stroke-linecap:butt;stroke-linejoin:miter;stroke:rgb(0%,0%,0%);stroke-opacity:1;stroke-miterlimit:10;" d="M 99.574474 -176.984897 L 17.019786 -218.266147 " transform="matrix(1,0,0,-1,128.82787,15.44479)"/>
<path style=" stroke:none;fill-rule:nonzero;fill:rgb(0%,0%,0%);fill-opacity:1;" d="M 142.640625 235.3125 C 143.679688 235.015625 145.488281 234.777344 146.871094 234.867188 L 145.535156 232.195312 C 144.777344 233.355469 143.5 234.660156 142.640625 235.3125 "/>
<path style="fill:none;stroke-width:0.99628;stroke-linecap:butt;stroke-linejoin:miter;stroke:rgb(77.598572%,22.698975%,26.699829%);stroke-opacity:1;stroke-miterlimit:10;" d="M -98.441151 -396.855991 C -98.441151 -388.602085 -105.132557 -381.910679 -113.386464 -381.910679 C -121.64037 -381.910679 -128.331776 -388.602085 -128.331776 -396.855991 C -128.331776 -405.109897 -121.64037 -411.801304 -113.386464 -411.801304 C -105.132557 -411.801304 -98.441151 -405.109897 -98.441151 -396.855991 Z M -98.441151 -396.855991 " transform="matrix(1,0,0,-1,128.82787,15.44479)"/>
<g style="fill:rgb(77.598572%,22.698975%,26.699829%);fill-opacity:1;">
  <use xlink:href="#glyph0-2" x="9.88211" y="413.69769"/>
</g>
<g style="fill:rgb(77.598572%,22.698975%,26.699829%);fill-opacity:1;">
  <use xlink:href="#glyph3-1" x="15.57604" y="415.19207"/>
</g>
<g clip-path="url(#clip3)" clip-rule="nonzero">
<path style="fill:none;stroke-width:0.99628;stroke-linecap:butt;stroke-linejoin:miter;stroke:rgb(77.598572%,22.698975%,26.699829%);stroke-opacity:1;stroke-miterlimit:10;" d="M 128.332286 -396.855991 C 128.332286 -388.602085 121.64088 -381.910679 113.386974 -381.910679 C 105.133068 -381.910679 98.441661 -388.602085 98.441661 -396.855991 C 98.441661 -405.109897 105.133068 -411.801304 113.386974 -411.801304 C 121.64088 -411.801304 128.332286 -405.109897 128.332286 -396.855991 Z M 128.332286 -396.855991 " transform="matrix(1,0,0,-1,128.82787,15.44479)"/>
</g>
<path style="fill:none;stroke-width:0.398484;stroke-linecap:butt;stroke-linejoin:miter;stroke:rgb(77.598572%,22.698975%,26.699829%);stroke-opacity:1;stroke-miterlimit:10;" d="M 56.82755 62.243997 L 67.944738 62.243997 " transform="matrix(1,0,0,-1,179.8287,471.25181)"/>
<g style="fill:rgb(77.598572%,22.698975%,26.699829%);fill-opacity:1;">
  <use xlink:href="#glyph0-2" x="236.65657" y="414.6939"/>
</g>
<g style="fill:rgb(77.598572%,22.698975%,26.699829%);fill-opacity:1;">
  <use xlink:href="#glyph3-1" x="242.3505" y="416.18828"/>
</g>
<g clip-path="url(#clip4)" clip-rule="nonzero">
<path style="fill:none;stroke-width:0.99628;stroke-linecap:butt;stroke-linejoin:miter;stroke:rgb(0%,0%,0%);stroke-opacity:1;stroke-miterlimit:10;" d="M 14.945568 -453.547397 C 14.945568 -445.293491 8.254161 -438.605991 0.000255 -438.605991 C -8.253651 -438.605991 -14.945057 -445.293491 -14.945057 -453.547397 C -14.945057 -461.801304 -8.253651 -468.49271 0.000255 -468.49271 C 8.254161 -468.49271 14.945568 -461.801304 14.945568 -453.547397 Z M 14.945568 -453.547397 " transform="matrix(1,0,0,-1,128.82787,15.44479)"/>
</g>
<g style="fill:rgb(0%,0%,0%);fill-opacity:1;">
  <use xlink:href="#glyph0-1" x="123.70176" y="470.39131"/>
</g>
<g style="fill:rgb(0%,0%,0%);fill-opacity:1;">
  <use xlink:href="#glyph3-1" x="128.5309" y="471.88569"/>
</g>
<path style="fill:none;stroke-width:0.99628;stroke-linecap:butt;stroke-linejoin:miter;stroke:rgb(0%,0%,0%);stroke-opacity:1;stroke-miterlimit:10;" d="M 71.636974 -396.855991 C 71.636974 -388.602085 64.945568 -381.910679 56.695568 -381.910679 C 48.441661 -381.910679 41.750255 -388.602085 41.750255 -396.855991 C 41.750255 -405.109897 48.441661 -411.801304 56.695568 -411.801304 C 64.945568 -411.801304 71.636974 -405.109897 71.636974 -396.855991 Z M 71.636974 -396.855991 " transform="matrix(1,0,0,-1,128.82787,15.44479)"/>
<path style="fill:none;stroke-width:0.99628;stroke-linecap:butt;stroke-linejoin:miter;stroke:rgb(0%,0%,0%);stroke-opacity:1;stroke-miterlimit:10;" d="M -41.749745 -396.855991 C -41.749745 -388.602085 -48.441151 -381.910679 -56.695057 -381.910679 C -64.948964 -381.910679 -71.636464 -388.602085 -71.636464 -396.855991 C -71.636464 -405.109897 -64.948964 -411.801304 -56.695057 -411.801304 C -48.441151 -411.801304 -41.749745 -405.109897 -41.749745 -396.855991 Z M -41.749745 -396.855991 " transform="matrix(1,0,0,-1,128.82787,15.44479)"/>
<g style="fill:rgb(0%,0%,0%);fill-opacity:1;">
  <use xlink:href="#glyph5-1" x="122.18609" y="414.51406"/>
</g>
<g style="fill:rgb(0%,0%,0%);fill-opacity:1;">
  <use xlink:href="#glyph5-1" x="126.59954" y="414.51406"/>
</g>
<g style="fill:rgb(0%,0%,0%);fill-opacity:1;">
  <use xlink:href="#glyph5-1" x="131.022952" y="414.51406"/>
</g>
<path style="fill:none;stroke-width:0.3985;stroke-linecap:butt;stroke-linejoin:miter;stroke:rgb(0%,0%,0%);stroke-opacity:1;stroke-miterlimit:10;" d="M -98.874745 -391.574741 C -88.73412 -387.883335 -81.343495 -387.883335 -74.573964 -390.348179 " transform="matrix(1,0,0,-1,128.82787,15.44479)"/>
<path style=" stroke:none;fill-rule:nonzero;fill:rgb(0%,0%,0%);fill-opacity:1;" d="M 57.625 407.019531 C 56.691406 406.46875 55.273438 405.316406 54.390625 404.25 L 53.367188 407.058594 C 54.730469 406.8125 56.558594 406.84375 57.625 407.019531 "/>
<path style="fill:none;stroke-width:0.3985;stroke-linecap:butt;stroke-linejoin:miter;stroke:rgb(0%,0%,0%);stroke-opacity:1;stroke-miterlimit:10;" d="M -71.20287 -402.137241 C -81.343495 -405.828647 -88.73412 -405.828647 -95.507557 -403.363804 " transform="matrix(1,0,0,-1,128.82787,15.44479)"/>
<path style=" stroke:none;fill-rule:nonzero;fill:rgb(0%,0%,0%);fill-opacity:1;" d="M 29.953125 417.582031 C 30.882812 418.132812 32.300781 419.285156 33.183594 420.347656 L 34.207031 417.539062 C 32.84375 417.785156 31.019531 417.757812 29.953125 417.582031 "/>
<path style="fill:none;stroke-width:0.3985;stroke-linecap:butt;stroke-linejoin:miter;stroke:rgb(0%,0%,0%);stroke-opacity:1;stroke-miterlimit:10;" d="M -42.183339 -391.574741 C -32.042714 -387.883335 -24.652089 -387.883335 -17.882557 -390.348179 " transform="matrix(1,0,0,-1,128.82787,15.44479)"/>
<path style=" stroke:none;fill-rule:nonzero;fill:rgb(0%,0%,0%);fill-opacity:1;" d="M 114.316406 407.019531 C 113.386719 406.46875 111.96875 405.316406 111.082031 404.25 L 110.0625 407.058594 C 111.421875 406.8125 113.25 406.84375 114.316406 407.019531 "/>
<path style="fill:none;stroke-width:0.3985;stroke-linecap:butt;stroke-linejoin:miter;stroke:rgb(0%,0%,0%);stroke-opacity:1;stroke-miterlimit:10;" d="M -14.511464 -402.137241 C -24.652089 -405.828647 -32.042714 -405.828647 -38.812245 -403.363804 " transform="matrix(1,0,0,-1,128.82787,15.44479)"/>
<path style=" stroke:none;fill-rule:nonzero;fill:rgb(0%,0%,0%);fill-opacity:1;" d="M 86.644531 417.582031 C 87.574219 418.132812 88.992188 419.285156 89.878906 420.347656 L 90.902344 417.539062 C 89.539062 417.785156 87.710938 417.757812 86.644531 417.582031 "/>
<path style="fill:none;stroke-width:0.3985;stroke-linecap:butt;stroke-linejoin:miter;stroke:rgb(0%,0%,0%);stroke-opacity:1;stroke-miterlimit:10;" d="M 14.511974 -391.574741 C 24.652599 -387.883335 32.043224 -387.883335 38.812755 -390.348179 " transform="matrix(1,0,0,-1,128.82787,15.44479)"/>
<path style=" stroke:none;fill-rule:nonzero;fill:rgb(0%,0%,0%);fill-opacity:1;" d="M 171.011719 407.019531 C 170.082031 406.46875 168.664062 405.316406 167.777344 404.25 L 166.753906 407.058594 C 168.117188 406.8125 169.945312 406.84375 171.011719 407.019531 "/>
<path style="fill:none;stroke-width:0.3985;stroke-linecap:butt;stroke-linejoin:miter;stroke:rgb(0%,0%,0%);stroke-opacity:1;stroke-miterlimit:10;" d="M 42.183849 -402.137241 C 32.043224 -405.828647 24.652599 -405.828647 17.879161 -403.363804 " transform="matrix(1,0,0,-1,128.82787,15.44479)"/>
<path style=" stroke:none;fill-rule:nonzero;fill:rgb(0%,0%,0%);fill-opacity:1;" d="M 143.339844 417.582031 C 144.269531 418.132812 145.6875 419.285156 146.570312 420.347656 L 147.59375 417.539062 C 146.230469 417.785156 144.40625 417.757812 143.339844 417.582031 "/>
<path style="fill:none;stroke-width:0.3985;stroke-linecap:butt;stroke-linejoin:miter;stroke:rgb(0%,0%,0%);stroke-opacity:1;stroke-miterlimit:10;" d="M 71.20338 -391.574741 C 81.344005 -387.883335 88.73463 -387.883335 95.508068 -390.348179 " transform="matrix(1,0,0,-1,128.82787,15.44479)"/>
<path style=" stroke:none;fill-rule:nonzero;fill:rgb(0%,0%,0%);fill-opacity:1;" d="M 227.703125 407.019531 C 226.773438 406.46875 225.355469 405.316406 224.472656 404.25 L 223.449219 407.058594 C 224.8125 406.8125 226.636719 406.84375 227.703125 407.019531 "/>
<path style="fill:none;stroke-width:0.3985;stroke-linecap:butt;stroke-linejoin:miter;stroke:rgb(0%,0%,0%);stroke-opacity:1;stroke-miterlimit:10;" d="M 98.875255 -402.137241 C 88.73463 -405.828647 81.344005 -405.828647 74.574474 -403.363804 " transform="matrix(1,0,0,-1,128.82787,15.44479)"/>
<path style=" stroke:none;fill-rule:nonzero;fill:rgb(0%,0%,0%);fill-opacity:1;" d="M 200.03125 417.582031 C 200.960938 418.132812 202.378906 419.285156 203.265625 420.347656 L 204.289062 417.539062 C 202.925781 417.785156 201.097656 417.757812 200.03125 417.582031 "/>
<path style="fill:none;stroke-width:0.3985;stroke-linecap:butt;stroke-linejoin:miter;stroke:rgb(0%,0%,0%);stroke-opacity:1;stroke-miterlimit:10;" d="M -99.57787 -403.762241 L -17.019276 -445.039585 " transform="matrix(1,0,0,-1,128.82787,15.44479)"/>
<path style=" stroke:none;fill-rule:nonzero;fill:rgb(0%,0%,0%);fill-opacity:1;" d="M 115.015625 462.089844 C 114.15625 461.433594 112.878906 460.128906 112.121094 458.96875 L 110.785156 461.644531 C 112.164062 461.554688 113.976562 461.792969 115.015625 462.089844 "/>
<path style="fill:none;stroke-width:0.3985;stroke-linecap:butt;stroke-linejoin:miter;stroke:rgb(0%,0%,0%);stroke-opacity:1;stroke-miterlimit:10;" d="M 99.574474 -403.762241 L 17.019786 -445.039585 " transform="matrix(1,0,0,-1,128.82787,15.44479)"/>
<path style=" stroke:none;fill-rule:nonzero;fill:rgb(0%,0%,0%);fill-opacity:1;" d="M 142.640625 462.089844 C 143.679688 461.792969 145.488281 461.554688 146.871094 461.644531 L 145.535156 458.96875 C 144.777344 460.128906 143.5 461.433594 142.640625 462.089844 "/>
<path style="fill:none;stroke-width:0.3985;stroke-linecap:butt;stroke-linejoin:miter;stroke:rgb(0%,0%,0%);stroke-opacity:1;stroke-miterlimit:10;" d="M -13.812245 -6.906772 L -96.366932 -48.184116 " transform="matrix(1,0,0,-1,128.82787,15.44479)"/>
<path style=" stroke:none;fill-rule:nonzero;fill:rgb(0%,0%,0%);fill-opacity:1;" d="M 29.25 65.234375 C 30.292969 64.9375 32.101562 64.699219 33.484375 64.789062 L 32.148438 62.113281 C 31.390625 63.273438 30.113281 64.578125 29.25 65.234375 "/>
<path style="fill:none;stroke-width:0.3985;stroke-linecap:butt;stroke-linejoin:miter;stroke:rgb(0%,0%,0%);stroke-opacity:1;stroke-miterlimit:10;" d="M 13.812755 -6.906772 L 96.367443 -48.184116 " transform="matrix(1,0,0,-1,128.82787,15.44479)"/>
<path style=" stroke:none;fill-rule:nonzero;fill:rgb(0%,0%,0%);fill-opacity:1;" d="M 228.402344 65.234375 C 227.542969 64.578125 226.265625 63.273438 225.507812 62.113281 L 224.171875 64.789062 C 225.554688 64.699219 227.363281 64.9375 228.402344 65.234375 "/>
<path style="fill:none;stroke-width:0.3985;stroke-linecap:butt;stroke-linejoin:miter;stroke:rgb(0%,0%,0%);stroke-opacity:1;stroke-miterlimit:10;" d="M -13.812245 -120.293491 L -96.366932 -161.570835 " transform="matrix(1,0,0,-1,128.82787,15.44479)"/>
<path style=" stroke:none;fill-rule:nonzero;fill:rgb(0%,0%,0%);fill-opacity:1;" d="M 29.25 178.621094 C 30.292969 178.324219 32.101562 178.085938 33.484375 178.175781 L 32.148438 175.5 C 31.390625 176.660156 30.113281 177.96875 29.25 178.621094 "/>
<path style="fill:none;stroke-width:0.3985;stroke-linecap:butt;stroke-linejoin:miter;stroke:rgb(0%,0%,0%);stroke-opacity:1;stroke-miterlimit:10;" d="M 13.812755 -120.293491 L 96.367443 -161.570835 " transform="matrix(1,0,0,-1,128.82787,15.44479)"/>
<path style=" stroke:none;fill-rule:nonzero;fill:rgb(0%,0%,0%);fill-opacity:1;" d="M 228.402344 178.621094 C 227.542969 177.96875 226.265625 176.660156 225.507812 175.5 L 224.171875 178.175781 C 225.554688 178.085938 227.363281 178.324219 228.402344 178.621094 "/>
<path style="fill:none;stroke-width:0.3985;stroke-linecap:butt;stroke-linejoin:miter;stroke:rgb(0%,0%,0%);stroke-opacity:1;stroke-miterlimit:10;" d="M -13.929432 -347.125522 L -96.366932 -388.344272 " transform="matrix(1,0,0,-1,128.82787,15.44479)"/>
<path style=" stroke:none;fill-rule:nonzero;fill:rgb(0%,0%,0%);fill-opacity:1;" d="M 29.25 405.394531 C 30.292969 405.097656 32.101562 404.859375 33.484375 404.949219 L 32.148438 402.277344 C 31.390625 403.433594 30.113281 404.742188 29.25 405.394531 "/>
<path style="fill:none;stroke-width:0.3985;stroke-linecap:butt;stroke-linejoin:miter;stroke:rgb(0%,0%,0%);stroke-opacity:1;stroke-miterlimit:10;" d="M 13.929943 -347.125522 L 96.367443 -388.344272 " transform="matrix(1,0,0,-1,128.82787,15.44479)"/>
<path style=" stroke:none;fill-rule:nonzero;fill:rgb(0%,0%,0%);fill-opacity:1;" d="M 228.402344 405.394531 C 227.542969 404.742188 226.265625 403.433594 225.507812 402.277344 L 224.171875 404.949219 C 225.554688 404.859375 227.363281 405.097656 228.402344 405.394531 "/>
<path style="fill:none;stroke-width:0.3985;stroke-linecap:butt;stroke-linejoin:miter;stroke:rgb(0%,0%,0%);stroke-opacity:1;stroke-miterlimit:10;" d="M 0.000255 -242.215366 L 0.000255 -264.438022 " transform="matrix(1,0,0,-1,128.82787,15.44479)"/>
<path style=" stroke:none;fill-rule:nonzero;fill:rgb(0%,0%,0%);fill-opacity:1;" d="M 128.828125 283.46875 C 129.027344 282.40625 129.625 280.679688 130.320312 279.484375 L 127.332031 279.484375 C 128.03125 280.679688 128.628906 282.40625 128.828125 283.46875 "/>
<path style="fill:none;stroke-width:0.3985;stroke-linecap:butt;stroke-linejoin:miter;stroke:rgb(0%,0%,0%);stroke-opacity:1;stroke-miterlimit:10;" d="M 0.000255 -298.910679 L 0.000255 -321.000522 " transform="matrix(1,0,0,-1,128.82787,15.44479)"/>
<path style=" stroke:none;fill-rule:nonzero;fill:rgb(0%,0%,0%);fill-opacity:1;" d="M 128.828125 340.03125 C 129.027344 338.96875 129.625 337.242188 130.320312 336.046875 L 127.332031 336.046875 C 128.03125 337.242188 128.628906 338.96875 128.828125 340.03125 "/>
</g>
</svg>
