<?xml version="1.0" encoding="UTF-8"?>
<svg xmlns="http://www.w3.org/2000/svg" xmlns:xlink="http://www.w3.org/1999/xlink" width="52.27pt" height="52.34pt" viewBox="0 0 52.27 52.34" version="1.1">
<defs>
<g>
<symbol overflow="visible" id="glyph0-0">
<path style="stroke:none;" d=""/>
</symbol>
<symbol overflow="visible" id="glyph0-1">
<path style="stroke:none;" d="M 4.09375 -4.3125 C 3.8125 -4.34375 3.6875 -4.375 3.296875 -4.375 C 2.21875 -4.375 0.78125 -2.8125 0.78125 -1.25 C 0.78125 -0.6875 0.90625 0.09375 1.75 0.09375 C 2.265625 0.09375 2.828125 -0.453125 3.421875 -1.328125 L 3.453125 -1.3125 L 3.3125 -0.890625 C 3.25 -0.671875 3.21875 -0.46875 3.21875 -0.34375 C 3.21875 -0.15625 3.296875 0.09375 3.625 0.09375 C 4.25 0.09375 4.640625 -0.296875 4.90625 -0.875 C 4.859375 -0.953125 4.8125 -1.03125 4.671875 -1.03125 C 4.40625 -0.65625 4.21875 -0.5 4.109375 -0.5 C 4.09375 -0.5 4 -0.515625 4 -0.640625 C 4 -0.734375 4.0625 -1 4.09375 -1.203125 L 4.78125 -4.296875 C 4.546875 -4.296875 4.28125 -4.265625 4.09375 -4.3125 Z M 3.59375 -2.1875 C 3.09375 -1.28125 2.328125 -0.453125 2.015625 -0.453125 C 1.671875 -0.453125 1.578125 -0.84375 1.578125 -1.40625 C 1.578125 -2.46875 2.40625 -4.0625 3.3125 -4.0625 C 3.53125 -4.0625 3.75 -4 3.9375 -3.875 C 3.9375 -3.875 3.84375 -2.828125 3.59375 -2.1875 Z M 3.59375 -2.1875 "/>
</symbol>
<symbol overflow="visible" id="glyph1-0">
<path style="stroke:none;" d="M 0.359375 -4.375 L 1.59375 -2.53125 L 0.359375 -0.6875 Z M 0.578125 -0.359375 L 1.8125 -2.203125 L 3.046875 -0.359375 Z M 2.03125 -2.53125 L 3.265625 -4.375 L 3.265625 -0.6875 Z M 1.8125 -2.859375 L 0.578125 -4.703125 L 3.046875 -4.703125 Z M 0 0 L 3.625 0 L 3.625 -5.078125 L 0 -5.078125 Z M 0 0 "/>
</symbol>
<symbol overflow="visible" id="glyph1-1">
<path style="stroke:none;" d="M 2.09375 -0.890625 L 2.09375 -3.40625 C 2.09375 -3.84375 2.09375 -4.28125 2.109375 -4.375 C 2.109375 -4.421875 2.09375 -4.421875 2.078125 -4.421875 C 1.671875 -4.171875 1.28125 -3.984375 0.640625 -3.6875 C 0.65625 -3.609375 0.6875 -3.53125 0.75 -3.5 C 1.09375 -3.625 1.25 -3.671875 1.390625 -3.671875 C 1.515625 -3.671875 1.53125 -3.5 1.53125 -3.25 L 1.53125 -0.890625 C 1.53125 -0.28125 1.34375 -0.25 0.828125 -0.21875 C 0.78125 -0.1875 0.78125 -0.03125 0.828125 0.015625 C 1.1875 0 1.453125 0 1.84375 0 C 2.1875 0 2.359375 0 2.71875 0.015625 C 2.765625 -0.03125 2.765625 -0.1875 2.71875 -0.21875 C 2.21875 -0.25 2.09375 -0.28125 2.09375 -0.890625 Z M 2.09375 -0.890625 "/>
</symbol>
<symbol overflow="visible" id="glyph1-2">
<path style="stroke:none;" d="M 0.4375 -3.40625 C 0.4375 -3.25 0.578125 -3.109375 0.734375 -3.109375 C 0.859375 -3.109375 1.078125 -3.25 1.078125 -3.40625 C 1.078125 -3.46875 1.0625 -3.515625 1.046875 -3.5625 C 1.03125 -3.609375 0.984375 -3.671875 0.984375 -3.734375 C 0.984375 -3.921875 1.171875 -4.171875 1.703125 -4.171875 C 1.96875 -4.171875 2.34375 -4 2.34375 -3.296875 C 2.34375 -2.828125 2.171875 -2.453125 1.75 -2.015625 L 1.203125 -1.484375 C 0.5 -0.765625 0.375 -0.421875 0.375 0.015625 C 0.375 0.015625 0.75 0 0.984375 0 L 2.25 0 C 2.484375 0 2.8125 0.015625 2.8125 0.015625 C 2.90625 -0.375 2.984375 -0.921875 3 -1.140625 C 2.953125 -1.171875 2.859375 -1.1875 2.78125 -1.171875 C 2.65625 -0.65625 2.53125 -0.46875 2.28125 -0.46875 L 0.984375 -0.46875 C 0.984375 -0.828125 1.484375 -1.3125 1.515625 -1.34375 L 2.25 -2.0625 C 2.671875 -2.453125 2.984375 -2.78125 2.984375 -3.328125 C 2.984375 -4.109375 2.34375 -4.4375 1.75 -4.4375 C 0.9375 -4.4375 0.4375 -3.84375 0.4375 -3.40625 Z M 0.4375 -3.40625 "/>
</symbol>
</g>
<clipPath id="clip1">
  <path d="M 0 26 L 29 26 L 29 52.339844 L 0 52.339844 Z M 0 26 "/>
</clipPath>
<clipPath id="clip2">
  <path d="M 24 26 L 52.269531 26 L 52.269531 52.339844 L 24 52.339844 Z M 24 26 "/>
</clipPath>
</defs>
<g id="surface1">
<path style="fill:none;stroke-width:0.3985;stroke-linecap:butt;stroke-linejoin:miter;stroke:rgb(0%,0%,0%);stroke-opacity:1;stroke-miterlimit:10;" d="M 9.962696 0.0011575 C 9.962696 5.501157 5.501759 9.962095 0.00175875 9.962095 C -5.502147 9.962095 -9.963085 5.501157 -9.963085 0.0011575 C -9.963085 -5.502749 -5.502147 -9.963686 0.00175875 -9.963686 C 5.501759 -9.963686 9.962696 -5.502749 9.962696 0.0011575 Z M 9.962696 0.0011575 " transform="matrix(1,0,0,-1,26.13496,10.16522)"/>
<g clip-path="url(#clip1)" clip-rule="nonzero">
<path style="fill:none;stroke-width:0.3985;stroke-linecap:butt;stroke-linejoin:miter;stroke:rgb(0%,0%,0%);stroke-opacity:1;stroke-miterlimit:10;" d="M 9.960891 1.407622 C 9.960891 6.911529 5.50386 11.372466 -0.00004625 11.372466 C -5.503952 11.372466 -9.960984 6.911529 -9.960984 1.407622 C -9.960984 -4.092378 -5.503952 -8.553315 -0.00004625 -8.553315 C 5.50386 -8.553315 9.960891 -4.092378 9.960891 1.407622 Z M 9.960891 1.407622 " transform="matrix(1,0,0,-1,12.65239,43.58731)"/>
</g>
<g style="fill:rgb(0%,0%,0%);fill-opacity:1;">
  <use xlink:href="#glyph0-1" x="7.95272" y="43.58731"/>
</g>
<g style="fill:rgb(0%,0%,0%);fill-opacity:1;">
  <use xlink:href="#glyph1-1" x="13.14326" y="45.08169"/>
</g>
<g clip-path="url(#clip2)" clip-rule="nonzero">
<path style="fill:none;stroke-width:0.3985;stroke-linecap:butt;stroke-linejoin:miter;stroke:rgb(0%,0%,0%);stroke-opacity:1;stroke-miterlimit:10;" d="M 9.964501 1.407622 C 9.964501 6.911529 5.503564 11.372466 -0.0003425 11.372466 C -5.504249 11.372466 -9.96128 6.911529 -9.96128 1.407622 C -9.96128 -4.092378 -5.504249 -8.553315 -0.0003425 -8.553315 C 5.503564 -8.553315 9.964501 -4.092378 9.964501 1.407622 Z M 9.964501 1.407622 " transform="matrix(1,0,0,-1,39.61753,43.58731)"/>
</g>
<g style="fill:rgb(0%,0%,0%);fill-opacity:1;">
  <use xlink:href="#glyph0-1" x="34.91786" y="43.58731"/>
</g>
<g style="fill:rgb(0%,0%,0%);fill-opacity:1;">
  <use xlink:href="#glyph1-2" x="40.1084" y="45.08169"/>
</g>
<path style="fill:none;stroke-width:0.3985;stroke-linecap:butt;stroke-linejoin:miter;stroke:rgb(0%,0%,0%);stroke-opacity:1;stroke-miterlimit:10;" d="M -3.943554 -9.36603 L -9.537304 -22.64728 " transform="matrix(1,0,0,-1,26.13496,10.16522)"/>
<path style="fill:none;stroke-width:0.3985;stroke-linecap:butt;stroke-linejoin:miter;stroke:rgb(0%,0%,0%);stroke-opacity:1;stroke-miterlimit:10;" d="M 3.943165 -9.36603 L 9.536915 -22.64728 " transform="matrix(1,0,0,-1,26.13496,10.16522)"/>
</g>
</svg>
