<?xml version="1.0" encoding="UTF-8"?>
<svg xmlns="http://www.w3.org/2000/svg" xmlns:xlink="http://www.w3.org/1999/xlink" width="198.82pt" height="107.03pt" viewBox="0 0 198.82 107.03" version="1.1">
<defs>
<g>
<symbol overflow="visible" id="glyph0-0">
<path style="stroke:none;" d=""/>
</symbol>
<symbol overflow="visible" id="glyph0-1">
<path style="stroke:none;" d="M 4.09375 -4.3125 C 3.8125 -4.34375 3.6875 -4.375 3.296875 -4.375 C 2.21875 -4.375 0.78125 -2.8125 0.78125 -1.25 C 0.78125 -0.6875 0.90625 0.09375 1.75 0.09375 C 2.265625 0.09375 2.828125 -0.453125 3.421875 -1.328125 L 3.453125 -1.3125 L 3.3125 -0.890625 C 3.25 -0.671875 3.21875 -0.46875 3.21875 -0.34375 C 3.21875 -0.15625 3.296875 0.09375 3.625 0.09375 C 4.25 0.09375 4.640625 -0.296875 4.90625 -0.875 C 4.859375 -0.953125 4.8125 -1.03125 4.671875 -1.03125 C 4.40625 -0.65625 4.21875 -0.5 4.109375 -0.5 C 4.09375 -0.5 4 -0.515625 4 -0.640625 C 4 -0.734375 4.0625 -1 4.09375 -1.203125 L 4.78125 -4.296875 C 4.546875 -4.296875 4.28125 -4.265625 4.09375 -4.3125 Z M 3.59375 -2.1875 C 3.09375 -1.28125 2.328125 -0.453125 2.015625 -0.453125 C 1.671875 -0.453125 1.578125 -0.84375 1.578125 -1.40625 C 1.578125 -2.46875 2.40625 -4.0625 3.3125 -4.0625 C 3.53125 -4.0625 3.75 -4 3.9375 -3.875 C 3.9375 -3.875 3.84375 -2.828125 3.59375 -2.1875 Z M 3.59375 -2.1875 "/>
</symbol>
<symbol overflow="visible" id="glyph0-2">
<path style="stroke:none;" d="M 2.84375 -5.8125 C 2.984375 -6.453125 3.09375 -6.859375 3.09375 -6.859375 C 3.09375 -6.921875 3.0625 -6.953125 2.96875 -6.953125 C 2.703125 -6.859375 1.984375 -6.734375 1.578125 -6.703125 L 1.546875 -6.453125 C 1.546875 -6.4375 1.5625 -6.40625 1.59375 -6.40625 L 1.90625 -6.390625 C 2.03125 -6.390625 2.109375 -6.328125 2.109375 -6.109375 C 2.109375 -6 2.09375 -5.828125 2.046875 -5.609375 L 1.015625 -1.0625 C 0.875 -0.4375 1.140625 0.09375 2.03125 0.09375 C 2.34375 0.09375 2.734375 -0.03125 3.078125 -0.265625 C 3.984375 -0.890625 4.90625 -2.171875 4.90625 -3.1875 C 4.90625 -3.875 4.765625 -4.375 3.859375 -4.375 C 3.171875 -4.375 2.65625 -3.75 2.3125 -3.34375 L 2.296875 -3.34375 Z M 4.09375 -3 C 4.09375 -1.5625 2.84375 -0.25 2.078125 -0.25 C 1.71875 -0.25 1.671875 -0.640625 1.828125 -1.3125 L 2.15625 -2.75 C 2.625 -3.296875 3.078125 -3.90625 3.5625 -3.90625 C 3.859375 -3.90625 4.09375 -3.671875 4.09375 -3 Z M 4.09375 -3 "/>
</symbol>
<symbol overflow="visible" id="glyph1-0">
<path style="stroke:none;" d="M 0.359375 -4.375 L 1.59375 -2.53125 L 0.359375 -0.6875 Z M 0.578125 -0.359375 L 1.8125 -2.203125 L 3.046875 -0.359375 Z M 2.03125 -2.53125 L 3.265625 -4.375 L 3.265625 -0.6875 Z M 1.8125 -2.859375 L 0.578125 -4.703125 L 3.046875 -4.703125 Z M 0 0 L 3.625 0 L 3.625 -5.078125 L 0 -5.078125 Z M 0 0 "/>
</symbol>
<symbol overflow="visible" id="glyph1-1">
<path style="stroke:none;" d="M 1.6875 -4.171875 C 1.8125 -4.171875 1.921875 -4.140625 2.015625 -4.046875 C 2.234375 -3.859375 2.4375 -3.3125 2.4375 -2.34375 C 2.4375 -1.671875 2.40625 -1.21875 2.3125 -0.84375 C 2.15625 -0.25 1.796875 -0.1875 1.65625 -0.1875 C 0.984375 -0.1875 0.921875 -1.421875 0.921875 -2.0625 C 0.921875 -3.84375 1.359375 -4.171875 1.6875 -4.171875 Z M 1.65625 0.078125 C 2.21875 0.078125 3.0625 -0.5 3.0625 -2.203125 C 3.0625 -2.921875 2.890625 -3.53125 2.578125 -3.953125 C 2.390625 -4.21875 2.078125 -4.4375 1.6875 -4.4375 C 0.96875 -4.4375 0.28125 -3.578125 0.28125 -2.140625 C 0.28125 -1.359375 0.515625 -0.625 0.921875 -0.234375 C 1.125 -0.03125 1.375 0.078125 1.65625 0.078125 Z M 1.65625 0.078125 "/>
</symbol>
<symbol overflow="visible" id="glyph1-2">
<path style="stroke:none;" d="M 2.09375 -0.890625 L 2.09375 -3.40625 C 2.09375 -3.84375 2.09375 -4.28125 2.109375 -4.375 C 2.109375 -4.421875 2.09375 -4.421875 2.078125 -4.421875 C 1.671875 -4.171875 1.28125 -3.984375 0.640625 -3.6875 C 0.65625 -3.609375 0.6875 -3.53125 0.75 -3.5 C 1.09375 -3.625 1.25 -3.671875 1.390625 -3.671875 C 1.515625 -3.671875 1.53125 -3.5 1.53125 -3.25 L 1.53125 -0.890625 C 1.53125 -0.28125 1.34375 -0.25 0.828125 -0.21875 C 0.78125 -0.1875 0.78125 -0.03125 0.828125 0.015625 C 1.1875 0 1.453125 0 1.84375 0 C 2.1875 0 2.359375 0 2.71875 0.015625 C 2.765625 -0.03125 2.765625 -0.1875 2.71875 -0.21875 C 2.21875 -0.25 2.09375 -0.28125 2.09375 -0.890625 Z M 2.09375 -0.890625 "/>
</symbol>
<symbol overflow="visible" id="glyph1-3">
<path style="stroke:none;" d="M 0.4375 -3.40625 C 0.4375 -3.25 0.578125 -3.109375 0.734375 -3.109375 C 0.859375 -3.109375 1.078125 -3.25 1.078125 -3.40625 C 1.078125 -3.46875 1.0625 -3.515625 1.046875 -3.5625 C 1.03125 -3.609375 0.984375 -3.671875 0.984375 -3.734375 C 0.984375 -3.921875 1.171875 -4.171875 1.703125 -4.171875 C 1.96875 -4.171875 2.34375 -4 2.34375 -3.296875 C 2.34375 -2.828125 2.171875 -2.453125 1.75 -2.015625 L 1.203125 -1.484375 C 0.5 -0.765625 0.375 -0.421875 0.375 0.015625 C 0.375 0.015625 0.75 0 0.984375 0 L 2.25 0 C 2.484375 0 2.8125 0.015625 2.8125 0.015625 C 2.90625 -0.375 2.984375 -0.921875 3 -1.140625 C 2.953125 -1.171875 2.859375 -1.1875 2.78125 -1.171875 C 2.65625 -0.65625 2.53125 -0.46875 2.28125 -0.46875 L 0.984375 -0.46875 C 0.984375 -0.828125 1.484375 -1.3125 1.515625 -1.34375 L 2.25 -2.0625 C 2.671875 -2.453125 2.984375 -2.78125 2.984375 -3.328125 C 2.984375 -4.109375 2.34375 -4.4375 1.75 -4.4375 C 0.9375 -4.4375 0.4375 -3.84375 0.4375 -3.40625 Z M 0.4375 -3.40625 "/>
</symbol>
<symbol overflow="visible" id="glyph1-4">
<path style="stroke:none;" d="M 1.5625 -4.171875 C 1.875 -4.171875 2.171875 -3.984375 2.171875 -3.53125 C 2.171875 -3.15625 1.75 -2.59375 1.03125 -2.5 L 1.0625 -2.265625 C 1.1875 -2.28125 1.3125 -2.28125 1.40625 -2.28125 C 1.828125 -2.28125 2.359375 -2.171875 2.359375 -1.34375 C 2.359375 -0.375 1.71875 -0.1875 1.453125 -0.1875 C 1.09375 -0.1875 1.03125 -0.34375 0.9375 -0.484375 C 0.859375 -0.578125 0.765625 -0.671875 0.625 -0.671875 C 0.46875 -0.671875 0.3125 -0.53125 0.3125 -0.421875 C 0.3125 -0.125 0.9375 0.078125 1.359375 0.078125 C 2.234375 0.078125 3 -0.484375 3 -1.453125 C 3 -2.234375 2.40625 -2.515625 1.96875 -2.59375 L 1.96875 -2.609375 C 2.5625 -2.890625 2.734375 -3.1875 2.734375 -3.578125 C 2.734375 -3.796875 2.6875 -3.96875 2.5 -4.15625 C 2.34375 -4.3125 2.09375 -4.4375 1.71875 -4.4375 C 0.640625 -4.4375 0.34375 -3.734375 0.34375 -3.5 C 0.34375 -3.390625 0.421875 -3.25 0.59375 -3.25 C 0.84375 -3.25 0.875 -3.484375 0.875 -3.625 C 0.875 -4.09375 1.375 -4.171875 1.5625 -4.171875 Z M 1.5625 -4.171875 "/>
</symbol>
<symbol overflow="visible" id="glyph1-5">
<path style="stroke:none;" d="M 1.96875 -3.6875 L 1.96875 -1.59375 L 0.578125 -1.59375 C 0.953125 -2.1875 1.46875 -3 1.96875 -3.6875 Z M 3.125 -1.59375 L 2.515625 -1.59375 L 2.515625 -3.71875 C 2.515625 -4.078125 2.515625 -4.359375 2.53125 -4.421875 L 2.515625 -4.4375 L 2.28125 -4.4375 C 2.234375 -4.4375 2.203125 -4.390625 2.171875 -4.359375 C 1.71875 -3.796875 0.875 -2.59375 0.203125 -1.5625 C 0.21875 -1.453125 0.265625 -1.25 0.484375 -1.25 L 1.96875 -1.25 L 1.96875 -0.578125 C 1.96875 -0.25 1.6875 -0.25 1.375 -0.21875 C 1.34375 -0.1875 1.34375 -0.03125 1.375 0.015625 C 1.609375 0 1.90625 0 2.234375 0 C 2.515625 0 2.796875 0 3.03125 0.015625 C 3.078125 -0.03125 3.078125 -0.1875 3.03125 -0.21875 C 2.671875 -0.25 2.515625 -0.234375 2.515625 -0.578125 L 2.515625 -1.25 L 3.015625 -1.25 C 3.125 -1.25 3.234375 -1.390625 3.234375 -1.46875 C 3.234375 -1.546875 3.203125 -1.59375 3.125 -1.59375 Z M 3.125 -1.59375 "/>
</symbol>
<symbol overflow="visible" id="glyph1-6">
<path style="stroke:none;" d="M 2.3125 -1.375 C 2.3125 -0.6875 1.953125 -0.171875 1.515625 -0.171875 C 1.25 -0.171875 1.140625 -0.359375 1.03125 -0.5 C 0.9375 -0.625 0.828125 -0.734375 0.671875 -0.734375 C 0.53125 -0.734375 0.390625 -0.609375 0.390625 -0.46875 C 0.390625 -0.171875 1.015625 0.078125 1.421875 0.078125 C 2.328125 0.078125 2.96875 -0.59375 2.96875 -1.5 C 2.96875 -2.203125 2.484375 -2.84375 1.65625 -2.84375 C 1.34375 -2.84375 1.078125 -2.78125 0.953125 -2.71875 L 1.09375 -3.9375 C 1.359375 -3.90625 1.59375 -3.875 1.953125 -3.875 C 2.171875 -3.875 2.40625 -3.890625 2.703125 -3.921875 L 2.828125 -4.40625 L 2.78125 -4.4375 C 2.359375 -4.390625 1.96875 -4.359375 1.578125 -4.359375 C 1.3125 -4.359375 1.046875 -4.375 0.796875 -4.390625 L 0.546875 -2.296875 C 0.9375 -2.453125 1.21875 -2.484375 1.46875 -2.484375 C 1.953125 -2.484375 2.3125 -2.171875 2.3125 -1.375 Z M 2.3125 -1.375 "/>
</symbol>
<symbol overflow="visible" id="glyph1-7">
<path style="stroke:none;" d="M 0.984375 -2.234375 C 1.21875 -2.390625 1.453125 -2.390625 1.578125 -2.390625 C 2.296875 -2.390625 2.453125 -1.703125 2.453125 -1.34375 C 2.453125 -0.53125 2.15625 -0.171875 1.796875 -0.171875 C 1.34375 -0.171875 0.921875 -0.421875 0.921875 -1.65625 C 0.921875 -1.828125 0.9375 -2.015625 0.984375 -2.234375 Z M 1.046875 -2.484375 C 1.25 -3.15625 1.703125 -3.890625 2.671875 -4.25 C 2.671875 -4.34375 2.640625 -4.40625 2.59375 -4.4375 C 1.859375 -4.21875 1.40625 -3.921875 1 -3.4375 C 0.546875 -2.921875 0.3125 -2.265625 0.3125 -1.6875 C 0.3125 -0.203125 1.15625 0.078125 1.71875 0.078125 C 2.671875 0.078125 3.0625 -0.84375 3.0625 -1.46875 C 3.0625 -2.09375 2.71875 -2.65625 1.734375 -2.65625 C 1.546875 -2.65625 1.265625 -2.59375 1.046875 -2.484375 Z M 1.046875 -2.484375 "/>
</symbol>
</g>
<clipPath id="clip1">
  <path d="M 8 0 L 127 0 L 127 107.03125 L 8 107.03125 Z M 8 0 "/>
</clipPath>
<clipPath id="clip2">
  <path d="M 37 0 L 155 0 L 155 107.03125 L 37 107.03125 Z M 37 0 "/>
</clipPath>
<clipPath id="clip3">
  <path d="M 65 0 L 184 0 L 184 107.03125 L 65 107.03125 Z M 65 0 "/>
</clipPath>
<clipPath id="clip4">
  <path d="M 93 1 L 198.820312 1 L 198.820312 107.03125 L 93 107.03125 Z M 93 1 "/>
</clipPath>
<clipPath id="clip5">
  <path d="M 122 30 L 198.820312 30 L 198.820312 107.03125 L 122 107.03125 Z M 122 30 "/>
</clipPath>
<clipPath id="clip6">
  <path d="M 150 58 L 198.820312 58 L 198.820312 107.03125 L 150 107.03125 Z M 150 58 "/>
</clipPath>
</defs>
<g id="surface1">
<g style="fill:rgb(0%,0%,0%);fill-opacity:1;">
  <use xlink:href="#glyph0-1" x="5.38657" y="10.34105"/>
</g>
<g style="fill:rgb(0%,0%,0%);fill-opacity:1;">
  <use xlink:href="#glyph1-1" x="10.57711" y="11.83543"/>
</g>
<g style="fill:rgb(0%,0%,0%);fill-opacity:1;">
  <use xlink:href="#glyph0-2" x="13.939" y="10.34105"/>
</g>
<g style="fill:rgb(0%,0%,0%);fill-opacity:1;">
  <use xlink:href="#glyph1-1" x="19.14946" y="11.83543"/>
</g>
<g style="fill:rgb(0%,0%,0%);fill-opacity:1;">
  <use xlink:href="#glyph0-1" x="5.38657" y="38.68786"/>
</g>
<g style="fill:rgb(0%,0%,0%);fill-opacity:1;">
  <use xlink:href="#glyph1-1" x="10.57711" y="40.18224"/>
</g>
<g style="fill:rgb(0%,0%,0%);fill-opacity:1;">
  <use xlink:href="#glyph0-2" x="13.939" y="38.68786"/>
</g>
<g style="fill:rgb(0%,0%,0%);fill-opacity:1;">
  <use xlink:href="#glyph1-2" x="19.14946" y="40.18224"/>
</g>
<g style="fill:rgb(0%,0%,0%);fill-opacity:1;">
  <use xlink:href="#glyph0-1" x="5.38657" y="67.03467"/>
</g>
<g style="fill:rgb(0%,0%,0%);fill-opacity:1;">
  <use xlink:href="#glyph1-1" x="10.57711" y="68.52905"/>
</g>
<g style="fill:rgb(0%,0%,0%);fill-opacity:1;">
  <use xlink:href="#glyph0-2" x="13.939" y="67.03467"/>
</g>
<g style="fill:rgb(0%,0%,0%);fill-opacity:1;">
  <use xlink:href="#glyph1-3" x="19.14946" y="68.52905"/>
</g>
<g style="fill:rgb(0%,0%,0%);fill-opacity:1;">
  <use xlink:href="#glyph0-1" x="5.38657" y="95.38148"/>
</g>
<g style="fill:rgb(0%,0%,0%);fill-opacity:1;">
  <use xlink:href="#glyph1-1" x="10.57711" y="96.87586"/>
</g>
<g style="fill:rgb(0%,0%,0%);fill-opacity:1;">
  <use xlink:href="#glyph0-2" x="13.939" y="95.38148"/>
</g>
<g style="fill:rgb(0%,0%,0%);fill-opacity:1;">
  <use xlink:href="#glyph1-4" x="19.14946" y="96.87586"/>
</g>
<g style="fill:rgb(0%,0%,0%);fill-opacity:1;">
  <use xlink:href="#glyph0-1" x="33.73336" y="10.34105"/>
</g>
<g style="fill:rgb(0%,0%,0%);fill-opacity:1;">
  <use xlink:href="#glyph1-2" x="38.9239" y="11.83543"/>
</g>
<g style="fill:rgb(0%,0%,0%);fill-opacity:1;">
  <use xlink:href="#glyph0-2" x="42.28579" y="10.34105"/>
</g>
<g style="fill:rgb(0%,0%,0%);fill-opacity:1;">
  <use xlink:href="#glyph1-1" x="47.49625" y="11.83543"/>
</g>
<g style="fill:rgb(0%,0%,0%);fill-opacity:1;">
  <use xlink:href="#glyph0-1" x="33.73336" y="38.71879"/>
</g>
<g style="fill:rgb(0%,0%,0%);fill-opacity:1;">
  <use xlink:href="#glyph1-2" x="38.9239" y="40.21317"/>
</g>
<g style="fill:rgb(0%,0%,0%);fill-opacity:1;">
  <use xlink:href="#glyph0-2" x="42.28579" y="38.71879"/>
</g>
<g style="fill:rgb(0%,0%,0%);fill-opacity:1;">
  <use xlink:href="#glyph1-2" x="47.49625" y="40.21317"/>
</g>
<g style="fill:rgb(0%,0%,0%);fill-opacity:1;">
  <use xlink:href="#glyph0-1" x="33.73336" y="67.06559"/>
</g>
<g style="fill:rgb(0%,0%,0%);fill-opacity:1;">
  <use xlink:href="#glyph1-2" x="38.9239" y="68.55997"/>
</g>
<g style="fill:rgb(0%,0%,0%);fill-opacity:1;">
  <use xlink:href="#glyph0-2" x="42.28579" y="67.06559"/>
</g>
<g style="fill:rgb(0%,0%,0%);fill-opacity:1;">
  <use xlink:href="#glyph1-3" x="47.49625" y="68.55997"/>
</g>
<g style="fill:rgb(0%,0%,0%);fill-opacity:1;">
  <use xlink:href="#glyph0-1" x="33.73336" y="95.38148"/>
</g>
<g style="fill:rgb(0%,0%,0%);fill-opacity:1;">
  <use xlink:href="#glyph1-2" x="38.9239" y="96.87586"/>
</g>
<g style="fill:rgb(0%,0%,0%);fill-opacity:1;">
  <use xlink:href="#glyph0-2" x="42.28579" y="95.38148"/>
</g>
<g style="fill:rgb(0%,0%,0%);fill-opacity:1;">
  <use xlink:href="#glyph1-4" x="47.49625" y="96.87586"/>
</g>
<g style="fill:rgb(0%,0%,0%);fill-opacity:1;">
  <use xlink:href="#glyph0-1" x="62.08017" y="10.34105"/>
</g>
<g style="fill:rgb(0%,0%,0%);fill-opacity:1;">
  <use xlink:href="#glyph1-3" x="67.27071" y="11.83543"/>
</g>
<g style="fill:rgb(0%,0%,0%);fill-opacity:1;">
  <use xlink:href="#glyph0-2" x="70.6326" y="10.34105"/>
</g>
<g style="fill:rgb(0%,0%,0%);fill-opacity:1;">
  <use xlink:href="#glyph1-1" x="75.84306" y="11.83543"/>
</g>
<g style="fill:rgb(0%,0%,0%);fill-opacity:1;">
  <use xlink:href="#glyph0-1" x="62.08017" y="38.71879"/>
</g>
<g style="fill:rgb(0%,0%,0%);fill-opacity:1;">
  <use xlink:href="#glyph1-3" x="67.27071" y="40.21317"/>
</g>
<g style="fill:rgb(0%,0%,0%);fill-opacity:1;">
  <use xlink:href="#glyph0-2" x="70.6326" y="38.71879"/>
</g>
<g style="fill:rgb(0%,0%,0%);fill-opacity:1;">
  <use xlink:href="#glyph1-2" x="75.84306" y="40.21317"/>
</g>
<g style="fill:rgb(0%,0%,0%);fill-opacity:1;">
  <use xlink:href="#glyph0-1" x="62.08017" y="67.06559"/>
</g>
<g style="fill:rgb(0%,0%,0%);fill-opacity:1;">
  <use xlink:href="#glyph1-3" x="67.27071" y="68.55997"/>
</g>
<g style="fill:rgb(0%,0%,0%);fill-opacity:1;">
  <use xlink:href="#glyph0-2" x="70.6326" y="67.06559"/>
</g>
<g style="fill:rgb(0%,0%,0%);fill-opacity:1;">
  <use xlink:href="#glyph1-3" x="75.84306" y="68.55997"/>
</g>
<g style="fill:rgb(0%,0%,0%);fill-opacity:1;">
  <use xlink:href="#glyph0-1" x="62.08017" y="95.38148"/>
</g>
<g style="fill:rgb(0%,0%,0%);fill-opacity:1;">
  <use xlink:href="#glyph1-3" x="67.27071" y="96.87586"/>
</g>
<g style="fill:rgb(0%,0%,0%);fill-opacity:1;">
  <use xlink:href="#glyph0-2" x="70.6326" y="95.38148"/>
</g>
<g style="fill:rgb(0%,0%,0%);fill-opacity:1;">
  <use xlink:href="#glyph1-4" x="75.84306" y="96.87586"/>
</g>
<g style="fill:rgb(0%,0%,0%);fill-opacity:1;">
  <use xlink:href="#glyph0-1" x="90.42698" y="10.34105"/>
</g>
<g style="fill:rgb(0%,0%,0%);fill-opacity:1;">
  <use xlink:href="#glyph1-4" x="95.61752" y="11.83543"/>
</g>
<g style="fill:rgb(0%,0%,0%);fill-opacity:1;">
  <use xlink:href="#glyph0-2" x="98.97941" y="10.34105"/>
</g>
<g style="fill:rgb(0%,0%,0%);fill-opacity:1;">
  <use xlink:href="#glyph1-1" x="104.18987" y="11.83543"/>
</g>
<g style="fill:rgb(0%,0%,0%);fill-opacity:1;">
  <use xlink:href="#glyph0-1" x="90.42698" y="38.68786"/>
</g>
<g style="fill:rgb(0%,0%,0%);fill-opacity:1;">
  <use xlink:href="#glyph1-4" x="95.61752" y="40.18224"/>
</g>
<g style="fill:rgb(0%,0%,0%);fill-opacity:1;">
  <use xlink:href="#glyph0-2" x="98.97941" y="38.68786"/>
</g>
<g style="fill:rgb(0%,0%,0%);fill-opacity:1;">
  <use xlink:href="#glyph1-2" x="104.18987" y="40.18224"/>
</g>
<g style="fill:rgb(0%,0%,0%);fill-opacity:1;">
  <use xlink:href="#glyph0-1" x="90.42698" y="67.03467"/>
</g>
<g style="fill:rgb(0%,0%,0%);fill-opacity:1;">
  <use xlink:href="#glyph1-4" x="95.61752" y="68.52905"/>
</g>
<g style="fill:rgb(0%,0%,0%);fill-opacity:1;">
  <use xlink:href="#glyph0-2" x="98.97941" y="67.03467"/>
</g>
<g style="fill:rgb(0%,0%,0%);fill-opacity:1;">
  <use xlink:href="#glyph1-3" x="104.18987" y="68.52905"/>
</g>
<g style="fill:rgb(0%,0%,0%);fill-opacity:1;">
  <use xlink:href="#glyph0-1" x="90.42698" y="95.38148"/>
</g>
<g style="fill:rgb(0%,0%,0%);fill-opacity:1;">
  <use xlink:href="#glyph1-4" x="95.61752" y="96.87586"/>
</g>
<g style="fill:rgb(0%,0%,0%);fill-opacity:1;">
  <use xlink:href="#glyph0-2" x="98.97941" y="95.38148"/>
</g>
<g style="fill:rgb(0%,0%,0%);fill-opacity:1;">
  <use xlink:href="#glyph1-4" x="104.18987" y="96.87586"/>
</g>
<g style="fill:rgb(0%,0%,0%);fill-opacity:1;">
  <use xlink:href="#glyph0-1" x="118.77379" y="10.34105"/>
</g>
<g style="fill:rgb(0%,0%,0%);fill-opacity:1;">
  <use xlink:href="#glyph1-5" x="123.96433" y="11.83543"/>
</g>
<g style="fill:rgb(0%,0%,0%);fill-opacity:1;">
  <use xlink:href="#glyph0-2" x="127.32622" y="10.34105"/>
</g>
<g style="fill:rgb(0%,0%,0%);fill-opacity:1;">
  <use xlink:href="#glyph1-1" x="132.53668" y="11.83543"/>
</g>
<g style="fill:rgb(0%,0%,0%);fill-opacity:1;">
  <use xlink:href="#glyph0-1" x="118.77379" y="38.71879"/>
</g>
<g style="fill:rgb(0%,0%,0%);fill-opacity:1;">
  <use xlink:href="#glyph1-5" x="123.96433" y="40.21317"/>
</g>
<g style="fill:rgb(0%,0%,0%);fill-opacity:1;">
  <use xlink:href="#glyph0-2" x="127.32622" y="38.71879"/>
</g>
<g style="fill:rgb(0%,0%,0%);fill-opacity:1;">
  <use xlink:href="#glyph1-2" x="132.53668" y="40.21317"/>
</g>
<g style="fill:rgb(0%,0%,0%);fill-opacity:1;">
  <use xlink:href="#glyph0-1" x="118.77379" y="67.06559"/>
</g>
<g style="fill:rgb(0%,0%,0%);fill-opacity:1;">
  <use xlink:href="#glyph1-5" x="123.96433" y="68.55997"/>
</g>
<g style="fill:rgb(0%,0%,0%);fill-opacity:1;">
  <use xlink:href="#glyph0-2" x="127.32622" y="67.06559"/>
</g>
<g style="fill:rgb(0%,0%,0%);fill-opacity:1;">
  <use xlink:href="#glyph1-3" x="132.53668" y="68.55997"/>
</g>
<g style="fill:rgb(0%,0%,0%);fill-opacity:1;">
  <use xlink:href="#glyph0-1" x="118.77379" y="95.38148"/>
</g>
<g style="fill:rgb(0%,0%,0%);fill-opacity:1;">
  <use xlink:href="#glyph1-5" x="123.96433" y="96.87586"/>
</g>
<g style="fill:rgb(0%,0%,0%);fill-opacity:1;">
  <use xlink:href="#glyph0-2" x="127.32622" y="95.38148"/>
</g>
<g style="fill:rgb(0%,0%,0%);fill-opacity:1;">
  <use xlink:href="#glyph1-4" x="132.53668" y="96.87586"/>
</g>
<g style="fill:rgb(0%,0%,0%);fill-opacity:1;">
  <use xlink:href="#glyph0-1" x="147.12059" y="10.34105"/>
</g>
<g style="fill:rgb(0%,0%,0%);fill-opacity:1;">
  <use xlink:href="#glyph1-6" x="152.31113" y="11.83543"/>
</g>
<g style="fill:rgb(0%,0%,0%);fill-opacity:1;">
  <use xlink:href="#glyph0-2" x="155.67302" y="10.34105"/>
</g>
<g style="fill:rgb(0%,0%,0%);fill-opacity:1;">
  <use xlink:href="#glyph1-1" x="160.88348" y="11.83543"/>
</g>
<g style="fill:rgb(0%,0%,0%);fill-opacity:1;">
  <use xlink:href="#glyph0-1" x="147.12059" y="38.68786"/>
</g>
<g style="fill:rgb(0%,0%,0%);fill-opacity:1;">
  <use xlink:href="#glyph1-6" x="152.31113" y="40.18224"/>
</g>
<g style="fill:rgb(0%,0%,0%);fill-opacity:1;">
  <use xlink:href="#glyph0-2" x="155.67302" y="38.68786"/>
</g>
<g style="fill:rgb(0%,0%,0%);fill-opacity:1;">
  <use xlink:href="#glyph1-2" x="160.88348" y="40.18224"/>
</g>
<g style="fill:rgb(0%,0%,0%);fill-opacity:1;">
  <use xlink:href="#glyph0-1" x="147.12059" y="67.03467"/>
</g>
<g style="fill:rgb(0%,0%,0%);fill-opacity:1;">
  <use xlink:href="#glyph1-6" x="152.31113" y="68.52905"/>
</g>
<g style="fill:rgb(0%,0%,0%);fill-opacity:1;">
  <use xlink:href="#glyph0-2" x="155.67302" y="67.03467"/>
</g>
<g style="fill:rgb(0%,0%,0%);fill-opacity:1;">
  <use xlink:href="#glyph1-3" x="160.88348" y="68.52905"/>
</g>
<g style="fill:rgb(0%,0%,0%);fill-opacity:1;">
  <use xlink:href="#glyph0-1" x="147.12059" y="95.38148"/>
</g>
<g style="fill:rgb(0%,0%,0%);fill-opacity:1;">
  <use xlink:href="#glyph1-6" x="152.31113" y="96.87586"/>
</g>
<g style="fill:rgb(0%,0%,0%);fill-opacity:1;">
  <use xlink:href="#glyph0-2" x="155.67302" y="95.38148"/>
</g>
<g style="fill:rgb(0%,0%,0%);fill-opacity:1;">
  <use xlink:href="#glyph1-4" x="160.88348" y="96.87586"/>
</g>
<g style="fill:rgb(0%,0%,0%);fill-opacity:1;">
  <use xlink:href="#glyph0-1" x="175.46741" y="10.34105"/>
</g>
<g style="fill:rgb(0%,0%,0%);fill-opacity:1;">
  <use xlink:href="#glyph1-7" x="180.65795" y="11.83543"/>
</g>
<g style="fill:rgb(0%,0%,0%);fill-opacity:1;">
  <use xlink:href="#glyph0-2" x="184.01984" y="10.34105"/>
</g>
<g style="fill:rgb(0%,0%,0%);fill-opacity:1;">
  <use xlink:href="#glyph1-1" x="189.2303" y="11.83543"/>
</g>
<g style="fill:rgb(0%,0%,0%);fill-opacity:1;">
  <use xlink:href="#glyph0-1" x="175.46741" y="38.68786"/>
</g>
<g style="fill:rgb(0%,0%,0%);fill-opacity:1;">
  <use xlink:href="#glyph1-7" x="180.65795" y="40.18224"/>
</g>
<g style="fill:rgb(0%,0%,0%);fill-opacity:1;">
  <use xlink:href="#glyph0-2" x="184.01984" y="38.68786"/>
</g>
<g style="fill:rgb(0%,0%,0%);fill-opacity:1;">
  <use xlink:href="#glyph1-2" x="189.2303" y="40.18224"/>
</g>
<g style="fill:rgb(0%,0%,0%);fill-opacity:1;">
  <use xlink:href="#glyph0-1" x="175.46741" y="67.03467"/>
</g>
<g style="fill:rgb(0%,0%,0%);fill-opacity:1;">
  <use xlink:href="#glyph1-7" x="180.65795" y="68.52905"/>
</g>
<g style="fill:rgb(0%,0%,0%);fill-opacity:1;">
  <use xlink:href="#glyph0-2" x="184.01984" y="67.03467"/>
</g>
<g style="fill:rgb(0%,0%,0%);fill-opacity:1;">
  <use xlink:href="#glyph1-3" x="189.2303" y="68.52905"/>
</g>
<g style="fill:rgb(0%,0%,0%);fill-opacity:1;">
  <use xlink:href="#glyph0-1" x="175.46741" y="95.38148"/>
</g>
<g style="fill:rgb(0%,0%,0%);fill-opacity:1;">
  <use xlink:href="#glyph1-7" x="180.65795" y="96.87586"/>
</g>
<g style="fill:rgb(0%,0%,0%);fill-opacity:1;">
  <use xlink:href="#glyph0-2" x="184.01984" y="95.38148"/>
</g>
<g style="fill:rgb(0%,0%,0%);fill-opacity:1;">
  <use xlink:href="#glyph1-4" x="189.2303" y="96.87586"/>
</g>
<path style="fill:none;stroke-width:0.3985;stroke-linecap:butt;stroke-linejoin:miter;stroke:rgb(0%,0%,0%);stroke-opacity:1;stroke-miterlimit:10;" d="M -14.173241 -28.346644 L 21.260353 7.08695 " transform="matrix(1,0,0,-1,14.37246,7.6182)"/>
<path style="fill:none;stroke-width:0.3985;stroke-linecap:butt;stroke-linejoin:miter;stroke:rgb(0%,0%,0%);stroke-opacity:1;stroke-miterlimit:10;" d="M -14.173241 -56.6943 L 49.608009 7.08695 " transform="matrix(1,0,0,-1,14.37246,7.6182)"/>
<path style="fill:none;stroke-width:0.3985;stroke-linecap:butt;stroke-linejoin:miter;stroke:rgb(0%,0%,0%);stroke-opacity:1;stroke-miterlimit:10;" d="M -14.173241 -85.041956 L 77.955665 7.08695 " transform="matrix(1,0,0,-1,14.37246,7.6182)"/>
<g clip-path="url(#clip1)" clip-rule="nonzero">
<path style="fill:none;stroke-width:0.3985;stroke-linecap:butt;stroke-linejoin:miter;stroke:rgb(0%,0%,0%);stroke-opacity:1;stroke-miterlimit:10;" d="M -0.00136625 -99.213831 L 106.299415 7.08695 " transform="matrix(1,0,0,-1,14.37246,7.6182)"/>
</g>
<g clip-path="url(#clip2)" clip-rule="nonzero">
<path style="fill:none;stroke-width:0.3985;stroke-linecap:butt;stroke-linejoin:miter;stroke:rgb(0%,0%,0%);stroke-opacity:1;stroke-miterlimit:10;" d="M 28.34629 -99.213831 L 134.647071 7.08695 " transform="matrix(1,0,0,-1,14.37246,7.6182)"/>
</g>
<g clip-path="url(#clip3)" clip-rule="nonzero">
<path style="fill:none;stroke-width:0.3985;stroke-linecap:butt;stroke-linejoin:miter;stroke:rgb(0%,0%,0%);stroke-opacity:1;stroke-miterlimit:10;" d="M 56.693946 -99.213831 L 162.994728 7.08695 " transform="matrix(1,0,0,-1,14.37246,7.6182)"/>
</g>
<g clip-path="url(#clip4)" clip-rule="nonzero">
<path style="fill:none;stroke-width:0.3985;stroke-linecap:butt;stroke-linejoin:miter;stroke:rgb(0%,0%,0%);stroke-opacity:1;stroke-miterlimit:10;" d="M 85.041603 -99.213831 L 184.25254 0.0010125 " transform="matrix(1,0,0,-1,14.37246,7.6182)"/>
</g>
<g clip-path="url(#clip5)" clip-rule="nonzero">
<path style="fill:none;stroke-width:0.3985;stroke-linecap:butt;stroke-linejoin:miter;stroke:rgb(0%,0%,0%);stroke-opacity:1;stroke-miterlimit:10;" d="M 113.385353 -99.213831 L 184.25254 -28.346644 " transform="matrix(1,0,0,-1,14.37246,7.6182)"/>
</g>
<g clip-path="url(#clip6)" clip-rule="nonzero">
<path style="fill:none;stroke-width:0.3985;stroke-linecap:butt;stroke-linejoin:miter;stroke:rgb(0%,0%,0%);stroke-opacity:1;stroke-miterlimit:10;" d="M 141.733009 -99.213831 L 184.25254 -56.6943 " transform="matrix(1,0,0,-1,14.37246,7.6182)"/>
</g>
</g>
</svg>
